<?xml version="1.0" encoding="UTF-8"?>
<!DOCTYPE svg PUBLIC "-//W3C//DTD SVG 1.1//EN" "http://www.w3.org/Graphics/SVG/1.1/DTD/svg11.dtd">
<svg xmlns="http://www.w3.org/2000/svg" version="1.1" width="926px" height="677px" style="shape-rendering:geometricPrecision; text-rendering:geometricPrecision; image-rendering:optimizeQuality; fill-rule:evenodd; clip-rule:evenodd" xmlns:xlink="http://www.w3.org/1999/xlink">
<g><path style="opacity:0.993" fill="#040707" d="M 208.5,114.5 C 284.5,114.5 360.5,114.5 436.5,114.5C 436.5,163.833 436.5,213.167 436.5,262.5C 417.497,262.333 398.497,262.5 379.5,263C 407.9,270.4 426.067,288.234 434,316.5C 440.291,346.96 431.791,372.46 408.5,393C 397.478,401.121 385.144,406.121 371.5,408C 295.167,408.5 218.834,408.667 142.5,408.5C 142.5,359.5 142.5,310.5 142.5,261.5C 162.503,261.667 182.503,261.5 202.5,261C 164.572,251.405 144.572,227.072 142.5,188C 145.79,146.529 167.79,122.029 208.5,114.5 Z"/></g>
<g><path style="opacity:0.992" fill="#ec242c" d="M 503.5,114.5 C 568.834,114.333 634.168,114.5 699.5,115C 736.421,120.587 758.254,141.754 765,178.5C 765.667,209.5 765.667,240.5 765,271.5C 759.231,305.217 739.731,326.05 706.5,334C 676.864,335.276 647.197,335.943 617.5,336C 569.167,360.167 520.833,384.333 472.5,408.5C 471.333,321.502 471.167,234.502 472,147.5C 474.889,129.113 485.389,118.113 503.5,114.5 Z"/></g>
<g><path style="opacity:0.969" fill="#040707" d="M 335.5,436.5 C 365.858,434.256 388.358,446.256 403,472.5C 413.814,501.065 408.314,525.899 386.5,547C 360.331,564.628 333.331,565.961 305.5,551C 281.8,533.578 273.3,510.412 280,481.5C 289.432,455.228 307.932,440.228 335.5,436.5 Z M 336.5,467.5 C 351.104,465.637 362.604,470.637 371,482.5C 379.505,500.989 375.338,515.823 358.5,527C 341.622,534.072 327.456,530.572 316,516.5C 306.598,497.939 310.432,482.773 327.5,471C 330.571,469.704 333.571,468.538 336.5,467.5 Z"/></g>
<g><path style="opacity:0.969" fill="#040707" d="M 198.5,437.5 C 218.942,436.031 236.109,442.698 250,457.5C 252.884,461.434 255.384,465.601 257.5,470C 248.348,474.726 238.848,478.893 229,482.5C 220.411,466.415 207.578,461.581 190.5,468C 178.98,475.694 173.647,486.528 174.5,500.5C 175.165,524.667 187.498,535.5 211.5,533C 220.392,530.941 225.726,525.441 227.5,516.5C 219.5,516.5 211.5,516.5 203.5,516.5C 203.5,508.5 203.5,500.5 203.5,492.5C 223.5,492.5 243.5,492.5 263.5,492.5C 263.736,541.428 239.402,563.928 190.5,560C 158.66,552.526 142.327,532.359 141.5,499.5C 143.249,462.757 162.249,442.091 198.5,437.5 Z"/></g>
<g><path style="opacity:0.964" fill="#040707" d="M 407.5,440.5 C 419.007,439.176 430.673,439.176 442.5,440.5C 451.569,463.54 460.735,486.54 470,509.5C 479.592,486.643 488.925,463.643 498,440.5C 509.419,439.512 520.919,439.179 532.5,439.5C 516.362,479.247 500.029,518.914 483.5,558.5C 474.582,558.817 465.749,558.484 457,557.5C 440.448,518.411 423.948,479.411 407.5,440.5 Z"/></g>
<g><path style="opacity:0.977" fill="#040707" d="M 563.5,440.5 C 581.836,440.333 600.17,440.5 618.5,441C 635.298,443.918 643.298,453.918 642.5,471C 643.408,481.179 639.742,489.179 631.5,495C 646.815,498.645 654.149,508.311 653.5,524C 653,543.643 643,554.977 623.5,558C 603.503,558.5 583.503,558.667 563.5,558.5C 563.5,519.167 563.5,479.833 563.5,440.5 Z M 594.5,464.5 C 599.716,464.134 604.716,464.968 609.5,467C 614.833,472.667 614.833,478.333 609.5,484C 604.742,486.144 599.742,486.977 594.5,486.5C 594.5,479.167 594.5,471.833 594.5,464.5 Z M 594.5,510.5 C 602.354,509.911 610.021,510.745 617.5,513C 624.36,520.097 623.694,526.431 615.5,532C 608.574,533.339 601.574,533.839 594.5,533.5C 594.5,525.833 594.5,518.167 594.5,510.5 Z"/></g>
<g><path style="opacity:0.967" fill="#040707" d="M 667.5,440.5 C 688.22,440.047 708.887,440.547 729.5,442C 746.319,447.501 754.652,459.168 754.5,477C 755.067,494.426 747.067,505.76 730.5,511C 742.5,526.667 754.5,542.333 766.5,558C 753.154,558.833 739.821,558.666 726.5,557.5C 717.667,543.833 708.833,530.167 700,516.5C 699.5,530.496 699.333,544.496 699.5,558.5C 688.833,558.5 678.167,558.5 667.5,558.5C 667.5,519.167 667.5,479.833 667.5,440.5 Z M 699.5,464.5 C 705.814,464.079 711.814,465.246 717.5,468C 724.375,475.667 724.041,483 716.5,490C 711.068,492.205 705.402,493.038 699.5,492.5C 699.5,483.167 699.5,473.833 699.5,464.5 Z"/></g>
<g><path style="opacity:0.937" fill="#040707" d="M 529.5,528.5 C 543.326,528.812 549.159,535.812 547,549.5C 542.178,559.154 534.678,561.987 524.5,558C 514.321,549.398 513.988,540.398 523.5,531C 525.611,530.155 527.611,529.322 529.5,528.5 Z"/></g>
</svg>
