<?xml version="1.0" encoding="UTF-8"?>
<!DOCTYPE svg PUBLIC "-//W3C//DTD SVG 1.1//EN" "http://www.w3.org/Graphics/SVG/1.1/DTD/svg11.dtd">
<svg xmlns="http://www.w3.org/2000/svg" version="1.1" width="206px" height="38px" style="shape-rendering:geometricPrecision; text-rendering:geometricPrecision; image-rendering:optimizeQuality; fill-rule:evenodd; clip-rule:evenodd" xmlns:xlink="http://www.w3.org/1999/xlink">
<g><path style="opacity:0.714" fill="#000" d="M 90.5,-0.5 C 93.5,-0.5 96.5,-0.5 99.5,-0.5C 98.277,1.77197 96.277,2.93863 93.5,3C 94.938,3.21893 96.2713,3.71893 97.5,4.5C 98.2357,6.54054 99.0691,8.54054 100,10.5C 102.712,2.10007 107.712,0.433405 115,5.5C 117.54,10.097 116.707,13.9304 112.5,17C 108.187,17.2023 104.021,17.369 100,17.5C 98.072,17.0665 96.2387,16.3998 94.5,15.5C 93.0505,16.2798 91.5505,16.9465 90,17.5C 85.9892,17.206 81.8225,17.206 77.5,17.5C 77.2865,15.8561 77.6198,14.3561 78.5,13C 80.1261,13.1953 81.7928,13.1953 83.5,13C 75.7335,9.52238 75.5669,6.02238 83,2.5C 86.581,2.46584 87.7477,3.96584 86.5,7C 85.1667,7 83.8333,7 82.5,7C 85.022,7.95667 87.1886,9.45667 89,11.5C 89.7804,8.48828 90.9471,5.65495 92.5,3C 89.8101,2.66546 89.1435,1.49879 90.5,-0.5 Z M 106.5,7.5 C 111.587,7.28449 112.587,9.11783 109.5,13C 105.537,13.1177 104.537,11.2843 106.5,7.5 Z"/></g>
<g><path style="opacity:0.939" fill="#000" d="M 29.5,37.5 C 19.5,37.5 9.5,37.5 -0.5,37.5C -0.5,31.5 -0.5,25.5 -0.5,19.5C 3.05953,19.2825 3.05953,18.2825 -0.5,16.5C -0.5,13.5 -0.5,10.5 -0.5,7.5C 1.55577,4.95056 4.22244,3.45056 7.5,3C 16.1603,2.50025 24.8269,2.33358 33.5,2.5C 33.5,8.83333 33.5,15.1667 33.5,21.5C 29.8669,21.443 29.7002,22.443 33,24.5C 34.4606,29.6735 33.2939,34.0068 29.5,37.5 Z"/></g>
<g><path style="opacity:0.898" fill="#fe0e17" d="M 39.5,37.5 C 38.5,37.5 37.5,37.5 36.5,37.5C 36.3335,27.1613 36.5002,16.828 37,6.5C 37.6517,4.27686 39.1517,3.1102 41.5,3C 50.2296,2.12419 58.8963,2.45752 67.5,4C 71.3019,7.0637 72.9686,11.0637 72.5,16C 72.9793,21.5948 70.9793,25.9281 66.5,29C 56.3617,28.4121 47.3617,31.2454 39.5,37.5 Z"/></g>
<g><path style="opacity:0.711" fill="#000" d="M 120.5,2.5 C 125.319,1.74127 129.319,3.0746 132.5,6.5C 133.173,3.00318 135.173,1.83652 138.5,3C 140.385,5.93868 141.885,9.10535 143,12.5C 143.498,9.18323 143.665,5.8499 143.5,2.5C 144.833,2.5 146.167,2.5 147.5,2.5C 147.335,5.8499 147.502,9.18323 148,12.5C 149.011,13.3366 150.178,13.67 151.5,13.5C 151.5,9.83333 151.5,6.16667 151.5,2.5C 154.833,2.5 158.167,2.5 161.5,2.5C 161.5,6.16667 161.5,9.83333 161.5,13.5C 162.5,13.5 163.5,13.5 164.5,13.5C 163.772,5.39515 167.438,1.89515 175.5,3C 176.931,3.46524 178.097,4.29857 179,5.5C 181.002,17.0021 176.669,20.3354 166,15.5C 163.196,17.3444 160.03,18.0111 156.5,17.5C 156.657,16.1266 156.49,14.7932 156,13.5C 155.682,15.0609 154.849,16.2276 153.5,17C 149.522,17.166 145.689,17.3326 142,17.5C 140.333,16.8333 138.667,16.1667 137,15.5C 134.64,16.78 132.14,17.4467 129.5,17.5C 129.421,16.0695 129.754,14.7362 130.5,13.5C 128.997,12.9478 127.331,12.9478 125.5,13.5C 125.5,14.8333 125.5,16.1667 125.5,17.5C 123.833,17.5 122.167,17.5 120.5,17.5C 120.5,12.5 120.5,7.5 120.5,2.5 Z M 170.5,7.5 C 176.175,7.85972 176.842,9.85972 172.5,13.5C 169.531,12.2351 168.865,10.2351 170.5,7.5 Z"/></g>
<g><path style="opacity:0.521" fill="#000" d="M 78.5,19.5 C 80.9363,19.317 83.103,19.9837 85,21.5C 85.804,20.1955 86.9707,19.5288 88.5,19.5C 90.0598,20.6071 91.5598,20.6071 93,19.5C 93.9454,19.9054 94.6121,20.572 95,21.5C 96.8697,20.2565 99.0363,19.5899 101.5,19.5C 103.5,19.6667 105.5,19.8333 107.5,20C 108.682,21.6783 109.848,21.5117 111,19.5C 111.945,19.9054 112.612,20.572 113,21.5C 114.333,18.8333 115.667,18.8333 117,21.5C 120.493,18.4982 122.993,19.1649 124.5,23.5C 122.993,27.8351 120.493,28.5018 117,25.5C 115.667,28.1667 114.333,28.1667 113,25.5C 108.482,27.407 103.648,28.0736 98.5,27.5C 98.6557,21.6875 97.989,21.3541 96.5,26.5C 95.675,27.3857 94.675,27.719 93.5,27.5C 93.6495,26.448 93.4828,25.448 93,24.5C 90.633,27.9318 87.9663,28.2652 85,25.5C 80.8578,28.7585 78.0244,27.9252 76.5,23C 76.9783,21.6974 77.645,20.5307 78.5,19.5 Z M 87.5,22.5 C 89.337,22.6395 89.6704,23.3061 88.5,24.5C 87.7025,24.0431 87.3691,23.3764 87.5,22.5 Z M 119.5,22.5 C 121.337,22.6395 121.67,23.3061 120.5,24.5C 119.702,24.0431 119.369,23.3764 119.5,22.5 Z"/></g>
<g><path style="opacity:0.544" fill="#000" d="M 127.5,19.5 C 129.936,19.317 132.103,19.9837 134,21.5C 137.589,18.6047 140.422,19.2714 142.5,23.5C 140.422,27.7286 137.589,28.3953 134,25.5C 132.103,27.0163 129.936,27.683 127.5,27.5C 127.5,24.8333 127.5,22.1667 127.5,19.5 Z M 136.5,22.5 C 138.337,22.6395 138.67,23.3061 137.5,24.5C 136.702,24.0431 136.369,23.3764 136.5,22.5 Z"/></g>
<g><path style="opacity:0.506" fill="#000" d="M 144.5,19.5 C 148.045,20.5874 151.545,20.5874 155,19.5C 156.981,19.6292 158.647,20.2958 160,21.5C 162.699,18.7363 164.366,19.4029 165,23.5C 165.49,22.2068 165.657,20.8734 165.5,19.5C 168.044,19.1043 170.211,19.771 172,21.5C 178.713,17.878 180.88,19.7113 178.5,27C 175.975,27.8959 173.808,27.3959 172,25.5C 170.701,26.9797 169.034,27.6464 167,27.5C 163.245,26.8628 159.412,26.8628 155.5,27.5C 155.547,21.1468 154.881,20.9801 153.5,27C 150.518,27.498 147.518,27.6646 144.5,27.5C 144.5,24.8333 144.5,22.1667 144.5,19.5 Z M 175.5,22.5 C 177.337,22.6395 177.67,23.3061 176.5,24.5C 175.702,24.0431 175.369,23.3764 175.5,22.5 Z"/></g>
<g><path style="opacity:0.486" fill="#000" d="M 95.5,37.5 C 93.5,37.5 91.5,37.5 89.5,37.5C 89.1667,36.1667 88.8333,36.1667 88.5,37.5C 87.8333,37.5 87.1667,37.5 86.5,37.5C 86.1667,36.1667 85.8333,36.1667 85.5,37.5C 82.8333,37.5 80.1667,37.5 77.5,37.5C 77.908,35.5416 78.2413,33.5416 78.5,31.5C 81.3264,30.1294 82.8264,31.1294 83,34.5C 84.2937,33.1456 84.4604,31.8123 83.5,30.5C 84.8333,29.1667 86.1667,29.1667 87.5,30.5C 86.814,32.0639 86.9806,33.7306 88,35.5C 88.4762,32.1939 90.3095,30.6939 93.5,31C 95.229,32.7889 95.8957,34.9556 95.5,37.5 Z M 91.5,33.5 C 93.337,33.6395 93.6704,34.3061 92.5,35.5C 91.7025,35.0431 91.3691,34.3764 91.5,33.5 Z"/></g>
<g><path style="opacity:0.465" fill="#000" d="M 146.5,37.5 C 143.5,37.5 140.5,37.5 137.5,37.5C 137.167,36.1667 136.833,36.1667 136.5,37.5C 133.833,37.5 131.167,37.5 128.5,37.5C 128.577,36.2502 129.244,35.4169 130.5,35C 128.934,32.3234 129.6,30.9901 132.5,31C 133.191,32.0674 133.691,33.2341 134,34.5C 134.5,34 135,33.5 135.5,33C 134.663,31.9887 134.33,30.8221 134.5,29.5C 136.288,29.2148 137.955,29.5481 139.5,30.5C 138.814,32.0639 138.981,33.7306 140,35.5C 140.54,30.9818 142.706,29.8151 146.5,32C 147.752,33.8278 147.752,35.6612 146.5,37.5 Z M 142.5,33.5 C 144.337,33.6395 144.67,34.3061 143.5,35.5C 142.702,35.0431 142.369,34.3764 142.5,33.5 Z"/></g>
<g><path style="opacity:0.486" fill="#000" d="M 114.5,37.5 C 111.833,37.5 109.167,37.5 106.5,37.5C 106.167,36.1667 105.833,36.1667 105.5,37.5C 104.5,37.5 103.5,37.5 102.5,37.5C 102.167,34.8333 101.833,34.8333 101.5,37.5C 100.5,37.5 99.5,37.5 98.5,37.5C 98.5,35.1667 98.5,32.8333 98.5,30.5C 100.993,30.3291 102.826,31.3291 104,33.5C 104.368,32.09 105.201,31.09 106.5,30.5C 107.934,32.2199 108.767,34.2199 109,36.5C 109.714,29.4576 110.714,29.1242 112,35.5C 112.202,33.7444 112.702,32.0777 113.5,30.5C 114.474,32.7427 114.808,35.076 114.5,37.5 Z"/></g>
<g><path style="opacity:0.474" fill="#000" d="M 125.5,37.5 C 122.167,37.5 118.833,37.5 115.5,37.5C 115.192,35.076 115.526,32.7427 116.5,30.5C 117.298,32.0777 117.798,33.7444 118,35.5C 119.14,31.1777 121.64,30.011 125.5,32C 126.752,33.8278 126.752,35.6612 125.5,37.5 Z M 121.5,33.5 C 123.337,33.6395 123.67,34.3061 122.5,35.5C 121.702,35.0431 121.369,34.3764 121.5,33.5 Z"/></g>
<g><path style="opacity:0.468" fill="#000" d="M 179.5,37.5 C 177.833,37.5 176.167,37.5 174.5,37.5C 174.167,36.1667 173.833,36.1667 173.5,37.5C 171.5,37.5 169.5,37.5 167.5,37.5C 167.167,36.1667 166.833,36.1667 166.5,37.5C 164.833,37.5 163.167,37.5 161.5,37.5C 161.167,36.1667 160.833,36.1667 160.5,37.5C 158.833,37.5 157.167,37.5 155.5,37.5C 154.25,32.3603 153.584,32.3603 153.5,37.5C 152.833,37.5 152.167,37.5 151.5,37.5C 151.116,35.0706 150.449,32.7373 149.5,30.5C 151.766,30.1412 153.599,30.8078 155,32.5C 157,29.8333 159,29.8333 161,32.5C 161.388,31.572 162.055,30.9054 163,30.5C 164.559,31.0294 166.059,31.696 167.5,32.5C 169.713,29.9199 171.88,29.9199 174,32.5C 176.048,30.1642 177.882,30.1642 179.5,32.5C 178.948,34.0026 178.948,35.6693 179.5,37.5 Z M 157.5,33.5 C 159.337,33.6395 159.67,34.3061 158.5,35.5C 157.702,35.0431 157.369,34.3764 157.5,33.5 Z M 170.5,33.5 C 171.773,34.0768 171.773,34.7435 170.5,35.5C 169.537,35.0302 169.537,34.3635 170.5,33.5 Z"/></g>
</svg>
