<?xml version="1.0" encoding="UTF-8"?>
<!DOCTYPE svg PUBLIC "-//W3C//DTD SVG 1.1//EN" "http://www.w3.org/Graphics/SVG/1.1/DTD/svg11.dtd">
<svg xmlns="http://www.w3.org/2000/svg" version="1.1" width="1024px" height="768px" style="shape-rendering:geometricPrecision; text-rendering:geometricPrecision; image-rendering:optimizeQuality; fill-rule:evenodd; clip-rule:evenodd" xmlns:xlink="http://www.w3.org/1999/xlink">
<g><path style="opacity:1" fill="#fefefe" d="M -0.5,-0.5 C 340.833,-0.5 682.167,-0.5 1023.5,-0.5C 1023.5,255.5 1023.5,511.5 1023.5,767.5C 682.167,767.5 340.833,767.5 -0.5,767.5C -0.5,511.5 -0.5,255.5 -0.5,-0.5 Z"/></g>
<g><path style="opacity:1" fill="#daf7fe" d="M 639.5,73.5 C 679.998,72.3354 720.665,72.1687 761.5,73C 762.164,91.2613 762.497,109.595 762.5,128C 762.5,146.512 761.833,164.679 760.5,182.5C 760.5,146.167 760.5,109.833 760.5,73.5C 720.167,73.5 679.833,73.5 639.5,73.5 Z"/></g>
<g><path style="opacity:1" fill="#75bce8" d="M 384.5,76.5 C 346.167,76.5 307.833,76.5 269.5,76.5C 267.5,76.5 265.5,76.5 263.5,76.5C 263.5,111.167 263.5,145.833 263.5,180.5C 262.502,145.671 262.168,110.671 262.5,75.5C 303.337,75.1681 344.003,75.5014 384.5,76.5 Z"/></g>
<g><path style="opacity:1" fill="#0181d9" d="M 639.5,75.5 C 679.168,75.3333 718.835,75.5 758.5,76C 759.496,111.094 759.829,146.26 759.5,181.5C 715.663,181.168 671.997,181.501 628.5,182.5C 627.549,183.919 627.216,185.585 627.5,187.5C 626.675,189.308 625.675,191.141 624.5,193C 612.773,230.013 600.773,266.846 588.5,303.5C 538.162,303.833 487.829,303.5 437.5,302.5C 422.879,261.997 408.879,221.331 395.5,180.5C 352.003,179.501 308.337,179.168 264.5,179.5C 264.5,145.5 264.5,111.5 264.5,77.5C 266.415,77.7845 268.081,77.4511 269.5,76.5C 307.833,76.5 346.167,76.5 384.5,76.5C 393.081,100.992 401.081,125.659 408.5,150.5C 410.627,157.877 411.96,165.21 412.5,172.5C 412.444,173.737 411.944,174.737 411,175.5C 410.632,174.09 409.799,173.09 408.5,172.5C 407.511,176.107 407.177,179.774 407.5,183.5C 410.167,183.5 412.833,183.5 415.5,183.5C 415.34,185.199 415.506,186.866 416,188.5C 416.71,187.027 417.876,186.36 419.5,186.5C 420.248,188.584 420.248,190.584 419.5,192.5C 421.58,194.993 423.414,197.659 425,200.5C 426.789,198.771 428.956,198.104 431.5,198.5C 430.282,199.161 428.949,199.828 427.5,200.5C 428.167,200.833 428.833,201.167 429.5,201.5C 483.481,200.175 537.481,200.175 591.5,201.5C 537.827,201.836 484.494,202.836 431.5,204.5C 429.767,205.008 429.434,205.841 430.5,207C 484.5,207.667 538.5,207.667 592.5,207C 593.708,204.75 595.041,202.583 596.5,200.5C 594.709,199.83 593.042,199.163 591.5,198.5C 594.385,198.806 597.052,198.473 599.5,197.5C 601.356,192.119 603.522,186.785 606,181.5C 606.333,181.167 606.667,180.833 607,180.5C 607.333,181.5 607.667,182.5 608,183.5C 610.709,170.524 613.542,157.524 616.5,144.5C 619.933,133.329 623.599,122.329 627.5,111.5C 628.847,107.648 630.68,103.981 633,100.5C 634.265,96.2457 635.098,91.9124 635.5,87.5C 636.26,83.3128 637.593,79.3128 639.5,75.5 Z"/></g>
<g><path style="opacity:1" fill="#2f8fca" d="M 639.5,73.5 C 679.833,73.5 720.167,73.5 760.5,73.5C 760.5,109.833 760.5,146.167 760.5,182.5C 716.5,182.5 672.5,182.5 628.5,182.5C 671.997,181.501 715.663,181.168 759.5,181.5C 759.829,146.26 759.496,111.094 758.5,76C 718.835,75.5 679.168,75.3333 639.5,75.5C 639.5,74.8333 639.5,74.1667 639.5,73.5 Z"/></g>
<g><path style="opacity:1" fill="#4290ce" d="M 635.5,87.5 C 635.098,91.9124 634.265,96.2457 633,100.5C 630.68,103.981 628.847,107.648 627.5,111.5C 629.194,103.085 631.86,95.0855 635.5,87.5 Z"/></g>
<g><path style="opacity:1" fill="#187ecd" d="M 408.5,150.5 C 414.405,165.545 419.738,180.878 424.5,196.5C 482.664,197.499 540.998,197.832 599.5,197.5C 597.052,198.473 594.385,198.806 591.5,198.5C 538.167,198.5 484.833,198.5 431.5,198.5C 428.956,198.104 426.789,198.771 425,200.5C 423.414,197.659 421.58,194.993 419.5,192.5C 420.248,190.584 420.248,188.584 419.5,186.5C 417.876,186.36 416.71,187.027 416,188.5C 415.506,186.866 415.34,185.199 415.5,183.5C 412.833,183.5 410.167,183.5 407.5,183.5C 407.177,179.774 407.511,176.107 408.5,172.5C 409.799,173.09 410.632,174.09 411,175.5C 411.944,174.737 412.444,173.737 412.5,172.5C 411.96,165.21 410.627,157.877 408.5,150.5 Z"/></g>
<g><path style="opacity:1" fill="#569cd7" d="M 616.5,144.5 C 613.542,157.524 610.709,170.524 608,183.5C 607.667,182.5 607.333,181.5 607,180.5C 606.667,180.833 606.333,181.167 606,181.5C 603.522,186.785 601.356,192.119 599.5,197.5C 540.998,197.832 482.664,197.499 424.5,196.5C 482.833,196.5 541.167,196.5 599.5,196.5C 604.801,178.931 610.468,161.598 616.5,144.5 Z"/></g>
<g><path style="opacity:1" fill="#0280df" d="M 756.5,79.5 C 758.493,112.817 759.16,146.483 758.5,180.5C 716.161,180.833 673.828,180.5 631.5,179.5C 631.023,178.522 630.357,177.689 629.5,177C 627.5,176.667 625.5,176.333 623.5,176C 626.833,175.333 630.167,175.333 633.5,176C 632.098,177.342 632.431,178.176 634.5,178.5C 636.397,178.272 637.73,177.272 638.5,175.5C 649.342,176.811 660.342,177.478 671.5,177.5C 699.487,177.227 727.487,176.893 755.5,176.5C 756.493,144.21 756.826,111.877 756.5,79.5 Z"/></g>
<g><path style="opacity:1" fill="#197bb8" d="M 269.5,76.5 C 268.081,77.4511 266.415,77.7845 264.5,77.5C 264.5,111.5 264.5,145.5 264.5,179.5C 308.337,179.168 352.003,179.501 395.5,180.5C 351.5,180.5 307.5,180.5 263.5,180.5C 263.5,145.833 263.5,111.167 263.5,76.5C 265.5,76.5 267.5,76.5 269.5,76.5 Z"/></g>
<g><path style="opacity:1" fill="#d1fdfe" d="M 628.5,182.5 C 672.5,182.5 716.5,182.5 760.5,182.5C 717.335,183.333 674.002,183.833 630.5,184C 629.364,185.145 628.364,186.312 627.5,187.5C 627.216,185.585 627.549,183.919 628.5,182.5 Z"/></g>
<g><path style="opacity:1" fill="#0180de" d="M 431.5,198.5 C 484.833,198.5 538.167,198.5 591.5,198.5C 593.042,199.163 594.709,199.83 596.5,200.5C 595.041,202.583 593.708,204.75 592.5,207C 538.5,207.667 484.5,207.667 430.5,207C 429.434,205.841 429.767,205.008 431.5,204.5C 484.494,202.836 537.827,201.836 591.5,201.5C 537.481,200.175 483.481,200.175 429.5,201.5C 428.833,201.167 428.167,200.833 427.5,200.5C 428.949,199.828 430.282,199.161 431.5,198.5 Z"/></g>
<g><path style="opacity:1" fill="#ace4fe" d="M 384.5,204.5 C 343.997,204.168 303.663,204.501 263.5,205.5C 263.167,205.5 262.833,205.5 262.5,205.5C 282.489,204.167 302.822,203.5 323.5,203.5C 344.003,203.5 364.336,203.833 384.5,204.5 Z"/></g>
<g><path style="opacity:1" fill="#2a86bc" d="M 263.5,205.5 C 303.663,204.501 343.997,204.168 384.5,204.5C 385.79,208.082 386.79,211.749 387.5,215.5C 385.188,213.055 383.854,210.055 383.5,206.5C 344.172,205.5 304.839,205.167 265.5,205.5C 264.833,205.5 264.167,205.5 263.5,205.5 Z"/></g>
<g><path style="opacity:1" fill="#0083d7" d="M 431.5,204.5 C 484.837,204.167 538.171,204.5 591.5,205.5C 564.833,205.833 538.167,206.167 511.5,206.5C 484.492,206.5 457.825,205.833 431.5,204.5 Z"/></g>
<g><path style="opacity:1" fill="#0081da" d="M 265.5,205.5 C 304.839,205.167 344.172,205.5 383.5,206.5C 383.854,210.055 385.188,213.055 387.5,215.5C 389.074,217.102 389.741,219.102 389.5,221.5C 390.813,226.231 391.813,231.064 392.5,236C 392.167,237.167 391.833,238.333 391.5,239.5C 390.464,236.541 388.964,233.875 387,231.5C 386.833,231.833 386.667,232.167 386.5,232.5C 389.406,242.668 391.073,253.002 391.5,263.5C 395.5,263.5 399.5,263.5 403.5,263.5C 404.164,267.154 404.831,270.82 405.5,274.5C 404.5,276.846 403.167,279.013 401.5,281C 402.615,282.235 402.615,283.402 401.5,284.5C 404.478,287.33 405.144,290.663 403.5,294.5C 402.914,294.291 402.414,293.957 402,293.5C 401.502,296.817 401.335,300.15 401.5,303.5C 396.067,302.813 395.401,303.979 399.5,307C 398.552,307.483 397.552,307.649 396.5,307.5C 352.5,307.5 308.5,307.5 264.5,307.5C 264.174,273.427 264.507,239.427 265.5,205.5 Z"/></g>
<g><path style="opacity:1" fill="#3a8cc9" d="M 629.5,233.5 C 629.048,237.163 628.548,240.83 628,244.5C 627.119,247.014 625.619,249.014 623.5,250.5C 625.129,244.608 627.129,238.941 629.5,233.5 Z"/></g>
<g><path style="opacity:1" fill="#1583d6" d="M 389.5,221.5 C 401.924,255.77 413.59,290.437 424.5,325.5C 422.064,325.317 419.897,325.984 418,327.5C 418.148,326.175 417.982,325.008 417.5,324C 418.793,323.51 420.127,323.343 421.5,323.5C 421.55,319.681 420.384,316.347 418,313.5C 417.178,311.212 416.511,308.878 416,306.5C 415.506,308.134 415.34,309.801 415.5,311.5C 412.5,311.5 409.5,311.5 406.5,311.5C 406.66,314.884 406.327,318.217 405.5,321.5C 406.135,322.966 406.969,324.3 408,325.5C 408.333,325.167 408.667,324.833 409,324.5C 409.42,328.191 409.92,331.858 410.5,335.5C 409.5,335.5 408.5,335.5 407.5,335.5C 407.652,331.708 406.485,328.042 404,324.5C 403.333,326.5 403.333,328.5 404,330.5C 406.753,337.334 408.92,344.334 410.5,351.5C 404.988,339.299 400.655,326.632 397.5,313.5C 397.675,311.379 397.341,309.379 396.5,307.5C 397.552,307.649 398.552,307.483 399.5,307C 395.401,303.979 396.067,302.813 401.5,303.5C 401.335,300.15 401.502,296.817 402,293.5C 402.414,293.957 402.914,294.291 403.5,294.5C 405.144,290.663 404.478,287.33 401.5,284.5C 402.615,283.402 402.615,282.235 401.5,281C 403.167,279.013 404.5,276.846 405.5,274.5C 404.831,270.82 404.164,267.154 403.5,263.5C 399.5,263.5 395.5,263.5 391.5,263.5C 391.073,253.002 389.406,242.668 386.5,232.5C 386.667,232.167 386.833,231.833 387,231.5C 388.964,233.875 390.464,236.541 391.5,239.5C 391.833,238.333 392.167,237.167 392.5,236C 391.813,231.064 390.813,226.231 389.5,221.5 Z"/></g>
<g><path style="opacity:1" fill="#0a78c2" d="M 263.5,205.5 C 264.167,205.5 264.833,205.5 265.5,205.5C 264.507,239.427 264.174,273.427 264.5,307.5C 308.5,307.5 352.5,307.5 396.5,307.5C 397.341,309.379 397.675,311.379 397.5,313.5C 396.326,312.486 395.66,311.153 395.5,309.5C 351.67,308.501 307.67,308.168 263.5,308.5C 263.5,274.167 263.5,239.833 263.5,205.5 Z"/></g>
<g><path style="opacity:1" fill="#76bcea" d="M 262.5,205.5 C 262.833,205.5 263.167,205.5 263.5,205.5C 263.5,239.833 263.5,274.167 263.5,308.5C 307.67,308.168 351.67,308.501 395.5,309.5C 351.167,309.5 306.833,309.5 262.5,309.5C 262.5,274.833 262.5,240.167 262.5,205.5 Z"/></g>
<g><path style="opacity:1" fill="#1d7db9" d="M 639.5,203.5 C 679.663,202.501 719.997,202.168 760.5,202.5C 760.5,238.5 760.5,274.5 760.5,310.5C 716.499,310.333 672.499,310.5 628.5,311C 627.391,312.876 626.391,314.709 625.5,316.5C 623.53,313.452 624.196,311.285 627.5,310C 671.499,309.5 715.499,309.333 759.5,309.5C 759.5,274.167 759.5,238.833 759.5,203.5C 719.5,203.5 679.5,203.5 639.5,203.5 Z"/></g>
<g><path style="opacity:1" fill="#0181d9" d="M 639.5,203.5 C 679.5,203.5 719.5,203.5 759.5,203.5C 759.5,238.833 759.5,274.167 759.5,309.5C 715.499,309.333 671.499,309.5 627.5,310C 624.196,311.285 623.53,313.452 625.5,316.5C 624.564,323.267 622.564,329.6 619.5,335.5C 618.25,335.577 617.417,336.244 617,337.5C 615.29,345 612.956,352.334 610,359.5C 609.503,362.146 609.336,364.813 609.5,367.5C 602.513,388.757 595.513,410.09 588.5,431.5C 538.167,431.5 487.833,431.5 437.5,431.5C 437.189,426.855 436.189,422.355 434.5,418C 434.755,416.674 435.422,415.674 436.5,415C 434.023,413.625 433.189,411.791 434,409.5C 432.989,408.663 431.822,408.33 430.5,408.5C 428.976,402.086 426.976,395.753 424.5,389.5C 425.821,387.668 426.821,385.668 427.5,383.5C 426.5,383.5 425.5,383.5 424.5,383.5C 424.869,385.993 424.203,386.66 422.5,385.5C 417.129,374.725 413.129,363.392 410.5,351.5C 408.92,344.334 406.753,337.334 404,330.5C 403.333,328.5 403.333,326.5 404,324.5C 406.485,328.042 407.652,331.708 407.5,335.5C 408.5,335.5 409.5,335.5 410.5,335.5C 409.92,331.858 409.42,328.191 409,324.5C 408.667,324.833 408.333,325.167 408,325.5C 406.969,324.3 406.135,322.966 405.5,321.5C 406.327,318.217 406.66,314.884 406.5,311.5C 409.5,311.5 412.5,311.5 415.5,311.5C 415.34,309.801 415.506,308.134 416,306.5C 416.511,308.878 417.178,311.212 418,313.5C 420.384,316.347 421.55,319.681 421.5,323.5C 420.127,323.343 418.793,323.51 417.5,324C 417.982,325.008 418.148,326.175 418,327.5C 419.897,325.984 422.064,325.317 424.5,325.5C 482.833,325.5 541.167,325.5 599.5,325.5C 606.672,300.313 614.672,275.313 623.5,250.5C 625.619,249.014 627.119,247.014 628,244.5C 628.548,240.83 629.048,237.163 629.5,233.5C 631.542,224.991 634.042,216.657 637,208.5C 637.934,207.142 638.768,205.808 639.5,204.5C 639.5,204.167 639.5,203.833 639.5,203.5 Z"/></g>
<g><path style="opacity:1" fill="#0180df" d="M 639.5,204.5 C 679.167,204.5 718.833,204.5 758.5,204.5C 758.5,238.833 758.5,273.167 758.5,307.5C 757.448,307.649 756.448,307.483 755.5,307C 756.496,273.907 756.829,240.74 756.5,207.5C 717.172,207.199 678.172,206.199 639.5,204.5 Z"/></g>
<g><path style="opacity:1" fill="#0182d9" d="M 639.5,335.5 C 679.5,335.5 719.5,335.5 759.5,335.5C 759.5,370.833 759.5,406.167 759.5,441.5C 715.663,441.168 671.997,441.501 628.5,442.5C 627.463,443.93 626.796,445.597 626.5,447.5C 617.106,476.85 607.606,506.184 598,535.5C 594.921,543.578 591.754,551.578 588.5,559.5C 587.596,560.209 587.263,561.209 587.5,562.5C 583.5,562.5 579.5,562.5 575.5,562.5C 554.511,561.167 533.177,560.5 511.5,560.5C 489.823,560.5 468.489,561.167 447.5,562.5C 444.5,562.5 441.5,562.5 438.5,562.5C 438.715,560.821 438.048,559.821 436.5,559.5C 433.392,553.18 431.059,546.514 429.5,539.5C 428.568,532.526 426.901,525.693 424.5,519C 426.479,515.456 425.479,513.623 421.5,513.5C 421.338,511.473 421.505,509.473 422,507.5C 422.654,508.696 423.154,508.696 423.5,507.5C 422.846,505.885 422.346,504.218 422,502.5C 419.878,506.374 418.711,505.874 418.5,501C 418.61,498.745 419.61,497.078 421.5,496C 419.521,495.316 417.854,495.816 416.5,497.5C 415.818,496.757 415.151,496.091 414.5,495.5C 413.12,492.226 411.62,488.893 410,485.5C 408.139,478.083 405.972,470.749 403.5,463.5C 403.543,460.09 403.043,456.757 402,453.5C 399.877,449.234 398.377,444.734 397.5,440C 354.475,438.909 311.475,438.076 268.5,437.5C 267.5,438.167 266.5,438.833 265.5,439.5C 264.5,405.84 264.167,372.173 264.5,338.5C 304.168,338.333 343.835,338.5 383.5,339C 383.914,343.757 385.581,347.924 388.5,351.5C 389.167,351.5 389.5,351.833 389.5,352.5C 389.934,359.464 391.934,365.797 395.5,371.5C 403.114,391.008 409.78,411.008 415.5,431.5C 417.801,438.905 419.801,446.405 421.5,454C 421.715,455.908 422.715,457.074 424.5,457.5C 483.002,457.832 541.336,457.499 599.5,456.5C 612.087,415.776 625.421,375.443 639.5,335.5 Z"/></g>
<g><path style="opacity:1" fill="#2c85c8" d="M 619.5,335.5 C 616.76,346.384 613.427,357.05 609.5,367.5C 609.336,364.813 609.503,362.146 610,359.5C 612.956,352.334 615.29,345 617,337.5C 617.417,336.244 618.25,335.577 619.5,335.5 Z"/></g>
<g><path style="opacity:1" fill="#3c8cc4" d="M 389.5,352.5 C 391.486,358.795 393.486,365.128 395.5,371.5C 391.934,365.797 389.934,359.464 389.5,352.5 Z"/></g>
<g><path style="opacity:1" fill="#2d88d1" d="M 437.5,431.5 C 433.861,420.095 429.695,408.762 425,397.5C 423.972,393.527 423.139,389.527 422.5,385.5C 424.203,386.66 424.869,385.993 424.5,383.5C 425.5,383.5 426.5,383.5 427.5,383.5C 426.821,385.668 425.821,387.668 424.5,389.5C 426.976,395.753 428.976,402.086 430.5,408.5C 431.822,408.33 432.989,408.663 434,409.5C 433.189,411.791 434.023,413.625 436.5,415C 435.422,415.674 434.755,416.674 434.5,418C 436.189,422.355 437.189,426.855 437.5,431.5 Z"/></g>
<g><path style="opacity:1" fill="#328acb" d="M 388.5,351.5 C 385.581,347.924 383.914,343.757 383.5,339C 343.835,338.5 304.168,338.333 264.5,338.5C 264.167,372.173 264.5,405.84 265.5,439.5C 266.5,438.833 267.5,438.167 268.5,437.5C 311.475,438.076 354.475,438.909 397.5,440C 398.377,444.734 399.877,449.234 402,453.5C 403.043,456.757 403.543,460.09 403.5,463.5C 400.265,456.47 397.599,449.137 395.5,441.5C 351.499,441.667 307.499,441.5 263.5,441C 262.504,406.24 262.171,371.406 262.5,336.5C 303.168,336.333 343.835,336.5 384.5,337C 386.689,341.588 388.022,346.421 388.5,351.5 Z"/></g>
<g><path style="opacity:1" fill="#2480ba" d="M 639.5,335.5 C 639.5,335.167 639.5,334.833 639.5,334.5C 679.833,334.5 720.167,334.5 760.5,334.5C 760.5,370.5 760.5,406.5 760.5,442.5C 716.5,442.5 672.5,442.5 628.5,442.5C 671.997,441.501 715.663,441.168 759.5,441.5C 759.5,406.167 759.5,370.833 759.5,335.5C 719.5,335.5 679.5,335.5 639.5,335.5 Z"/></g>
<g><path style="opacity:1" fill="#83cbf1" d="M 628.5,442.5 C 672.5,442.5 716.5,442.5 760.5,442.5C 716.67,443.499 672.67,443.832 628.5,443.5C 628.567,444.959 628.234,446.292 627.5,447.5C 627.167,447.5 626.833,447.5 626.5,447.5C 626.796,445.597 627.463,443.93 628.5,442.5 Z"/></g>
<g><path style="opacity:1" fill="#daf8fe" d="M 639.5,334.5 C 680.665,333.335 721.998,333.169 763.5,334C 763.833,334.333 764.167,334.667 764.5,335C 762.676,370.947 761.843,407.114 762,443.5C 717.906,444.497 673.739,444.83 629.5,444.5C 629.715,446.179 629.048,447.179 627.5,447.5C 628.234,446.292 628.567,444.959 628.5,443.5C 672.67,443.832 716.67,443.499 760.5,442.5C 760.5,406.5 760.5,370.5 760.5,334.5C 720.167,334.5 679.833,334.5 639.5,334.5 Z"/></g>
<g><path style="opacity:1" fill="#3e8dc9" d="M 415.5,431.5 C 418.071,436.537 420.071,441.871 421.5,447.5C 422.808,450.73 423.808,454.064 424.5,457.5C 422.715,457.074 421.715,455.908 421.5,454C 419.801,446.405 417.801,438.905 415.5,431.5 Z"/></g>
<g><path style="opacity:1" fill="#cbf6fe" d="M 421.5,447.5 C 422.497,447.47 423.164,447.97 423.5,449C 424.09,451.196 424.757,453.362 425.5,455.5C 483.496,456.5 541.496,456.833 599.5,456.5C 541.336,457.499 483.002,457.832 424.5,457.5C 423.808,454.064 422.808,450.73 421.5,447.5 Z"/></g>
<g><path style="opacity:1" fill="#2283cd" d="M 414.5,495.5 C 415.151,496.091 415.818,496.757 416.5,497.5C 417.854,495.816 419.521,495.316 421.5,496C 419.61,497.078 418.61,498.745 418.5,501C 418.711,505.874 419.878,506.374 422,502.5C 422.346,504.218 422.846,505.885 423.5,507.5C 423.154,508.696 422.654,508.696 422,507.5C 421.505,509.473 421.338,511.473 421.5,513.5C 425.479,513.623 426.479,515.456 424.5,519C 426.901,525.693 428.568,532.526 429.5,539.5C 423.428,525.321 418.428,510.654 414.5,495.5 Z"/></g>
<g><path style="opacity:1" fill="#4188ca" d="M 436.5,559.5 C 438.048,559.821 438.715,560.821 438.5,562.5C 441.5,562.5 444.5,562.5 447.5,562.5C 490.167,562.5 532.833,562.5 575.5,562.5C 579.5,562.5 583.5,562.5 587.5,562.5C 587.263,561.209 587.596,560.209 588.5,559.5C 588.5,561.167 588.5,562.833 588.5,564.5C 538.167,564.5 487.833,564.5 437.5,564.5C 437.371,562.784 437.038,561.117 436.5,559.5 Z"/></g>
<g><path style="opacity:1" fill="#007fe1" d="M 575.5,562.5 C 532.833,562.5 490.167,562.5 447.5,562.5C 468.489,561.167 489.823,560.5 511.5,560.5C 533.177,560.5 554.511,561.167 575.5,562.5 Z"/></g>
<g><path style="opacity:1" fill="#070707" d="M 307.5,617.5 C 304.36,616.359 301.027,616.192 297.5,617C 295.68,617.2 294.347,618.034 293.5,619.5C 288.373,621.964 285.04,625.964 283.5,631.5C 281.96,633.838 281.294,636.505 281.5,639.5C 281.137,647.571 281.637,655.571 283,663.5C 289.716,679.17 300.549,683.004 315.5,675C 319.38,670.745 322.38,665.911 324.5,660.5C 329.696,662.455 335.029,663.789 340.5,664.5C 337.451,680.717 327.784,690.55 311.5,694C 287.602,696.441 271.768,686.274 264,663.5C 260.828,648.5 262.495,634.167 269,620.5C 284.765,600.011 304.265,595.844 327.5,608C 334.172,612.507 338.506,618.674 340.5,626.5C 334.685,628.787 328.685,630.454 322.5,631.5C 320.711,623.377 315.711,618.71 307.5,617.5 Z"/></g>
<g><path style="opacity:1" fill="#707070" d="M 434.5,603.5 C 458.328,602.502 482.328,602.169 506.5,602.5C 506.5,607.833 506.5,613.167 506.5,618.5C 497.5,618.5 488.5,618.5 479.5,618.5C 487.984,617.507 496.651,617.174 505.5,617.5C 505.5,612.833 505.5,608.167 505.5,603.5C 481.833,603.5 458.167,603.5 434.5,603.5 Z"/></g>
<g><path style="opacity:1" fill="#070707" d="M 601.5,631.5 C 601.437,626.797 601.771,622.13 602.5,617.5C 606.857,608.966 613.857,603.8 623.5,602C 634.549,600.538 645.216,601.871 655.5,606C 664.059,611.061 668.059,618.561 667.5,628.5C 661.5,628.5 655.5,628.5 649.5,628.5C 647.797,619.155 642.13,615.155 632.5,616.5C 626.538,615.901 621.705,617.901 618,622.5C 617.333,624.167 617.333,625.833 618,627.5C 620.338,630.923 623.504,633.256 627.5,634.5C 635.849,636.603 644.182,638.77 652.5,641C 670.955,649.697 675.455,663.197 666,681.5C 660.106,689.041 652.273,693.207 642.5,694C 625.759,697.603 612.259,692.769 602,679.5C 599.583,674.416 598.083,669.082 597.5,663.5C 603.477,662.835 609.477,662.502 615.5,662.5C 617.07,673.239 623.237,678.906 634,679.5C 641.245,679.533 647.245,676.867 652,671.5C 653.937,663.874 651.104,659.041 643.5,657C 631.793,655.32 620.793,651.653 610.5,646C 605.59,642.276 602.59,637.443 601.5,631.5 Z"/></g>
<g><path style="opacity:1" fill="#010101" d="M 423.5,603.5 C 423.5,608.167 423.5,612.833 423.5,617.5C 407.167,617.5 390.833,617.5 374.5,617.5C 374.5,624.5 374.5,631.5 374.5,638.5C 389.5,638.5 404.5,638.5 419.5,638.5C 419.5,643.167 419.5,647.833 419.5,652.5C 404.5,652.5 389.5,652.5 374.5,652.5C 374.5,661.167 374.5,669.833 374.5,678.5C 391.5,678.5 408.5,678.5 425.5,678.5C 425.5,683.167 425.5,687.833 425.5,692.5C 402.833,692.5 380.167,692.5 357.5,692.5C 357.5,662.833 357.5,633.167 357.5,603.5C 379.5,603.5 401.5,603.5 423.5,603.5 Z"/></g>
<g><path style="opacity:1" fill="#030303" d="M 434.5,603.5 C 458.167,603.5 481.833,603.5 505.5,603.5C 505.5,608.167 505.5,612.833 505.5,617.5C 496.651,617.174 487.984,617.507 479.5,618.5C 479.5,643.167 479.5,667.833 479.5,692.5C 473.5,692.5 467.5,692.5 461.5,692.5C 461.5,667.5 461.5,642.5 461.5,617.5C 452.5,617.5 443.5,617.5 434.5,617.5C 434.5,612.833 434.5,608.167 434.5,603.5 Z"/></g>
<g><path style="opacity:1" fill="#020202" d="M 584.5,603.5 C 584.5,608.167 584.5,612.833 584.5,617.5C 568.167,617.5 551.833,617.5 535.5,617.5C 535.5,624.5 535.5,631.5 535.5,638.5C 550.5,638.5 565.5,638.5 580.5,638.5C 580.5,643.167 580.5,647.833 580.5,652.5C 565.657,652.171 550.99,652.504 536.5,653.5C 535.508,661.316 535.174,669.316 535.5,677.5C 552.5,677.5 569.5,677.5 586.5,677.5C 586.5,682.5 586.5,687.5 586.5,692.5C 563.833,692.5 541.167,692.5 518.5,692.5C 518.5,662.833 518.5,633.167 518.5,603.5C 540.5,603.5 562.5,603.5 584.5,603.5 Z"/></g>
<g><path style="opacity:1" fill="#050505" d="M 735.5,603.5 C 756.395,608.294 761.895,620.294 752,639.5C 750.104,641.53 747.937,643.197 745.5,644.5C 761.953,652.771 765.787,665.105 757,681.5C 752.458,687.692 746.292,691.192 738.5,692C 721.17,692.5 703.837,692.667 686.5,692.5C 686.5,662.833 686.5,633.167 686.5,603.5C 702.833,603.5 719.167,603.5 735.5,603.5 Z"/></g>
<g><path style="opacity:1" fill="#686868" d="M 423.5,603.5 C 401.5,603.5 379.5,603.5 357.5,603.5C 357.5,633.167 357.5,662.833 357.5,692.5C 380.167,692.5 402.833,692.5 425.5,692.5C 402.673,693.498 379.673,693.831 356.5,693.5C 356.5,663.167 356.5,632.833 356.5,602.5C 379.006,602.169 401.34,602.503 423.5,603.5 Z"/></g>
<g><path style="opacity:1" fill="#989898" d="M 735.5,603.5 C 719.167,603.5 702.833,603.5 686.5,603.5C 686.5,633.167 686.5,662.833 686.5,692.5C 685.502,662.671 685.169,632.671 685.5,602.5C 702.342,602.17 719.008,602.503 735.5,603.5 Z"/></g>
<g><path style="opacity:1" fill="#717171" d="M 584.5,603.5 C 562.5,603.5 540.5,603.5 518.5,603.5C 518.5,633.167 518.5,662.833 518.5,692.5C 541.167,692.5 563.833,692.5 586.5,692.5C 563.673,693.498 540.673,693.831 517.5,693.5C 517.5,663.167 517.5,632.833 517.5,602.5C 540.006,602.169 562.34,602.503 584.5,603.5 Z"/></g>
<g><path style="opacity:1" fill="#979797" d="M 307.5,617.5 C 302.673,617.221 298.007,617.887 293.5,619.5C 294.347,618.034 295.68,617.2 297.5,617C 301.027,616.192 304.36,616.359 307.5,617.5 Z"/></g>
<g><path style="opacity:1" fill="#878787" d="M 423.5,617.5 C 407.675,618.496 391.675,618.83 375.5,618.5C 375.5,624.833 375.5,631.167 375.5,637.5C 390.676,637.171 405.676,637.504 420.5,638.5C 420.167,638.5 419.833,638.5 419.5,638.5C 404.5,638.5 389.5,638.5 374.5,638.5C 374.5,631.5 374.5,624.5 374.5,617.5C 390.833,617.5 407.167,617.5 423.5,617.5 Z"/></g>
<g><path style="opacity:1" fill="#858585" d="M 584.5,617.5 C 568.675,618.496 552.675,618.83 536.5,618.5C 536.5,624.833 536.5,631.167 536.5,637.5C 551.676,637.171 566.676,637.504 581.5,638.5C 581.167,638.5 580.833,638.5 580.5,638.5C 565.5,638.5 550.5,638.5 535.5,638.5C 535.5,631.5 535.5,624.5 535.5,617.5C 551.833,617.5 568.167,617.5 584.5,617.5 Z"/></g>
<g><path style="opacity:1" fill="#f9f9f9" d="M 704.5,617.5 C 714.566,617.105 724.566,617.605 734.5,619C 741.583,626.02 740.916,632.353 732.5,638C 723.173,638.5 713.839,638.666 704.5,638.5C 704.5,631.5 704.5,624.5 704.5,617.5 Z"/></g>
<g><path style="opacity:1" fill="#aaaaaa" d="M 434.5,617.5 C 443.5,617.5 452.5,617.5 461.5,617.5C 461.5,642.5 461.5,667.5 461.5,692.5C 460.502,668.006 460.169,643.339 460.5,618.5C 451.651,618.826 442.984,618.493 434.5,617.5 Z"/></g>
<g><path style="opacity:1" fill="#494949" d="M 602.5,617.5 C 601.771,622.13 601.437,626.797 601.5,631.5C 600.839,629.866 600.506,628.033 600.5,626C 600.36,622.85 601.027,620.017 602.5,617.5 Z"/></g>
<g><path style="opacity:1" fill="#949494" d="M 283.5,631.5 C 283.435,634.428 282.768,637.095 281.5,639.5C 281.294,636.505 281.96,633.838 283.5,631.5 Z"/></g>
<g><path style="opacity:1" fill="#505050" d="M 580.5,638.5 C 580.833,638.5 581.167,638.5 581.5,638.5C 581.5,643.5 581.5,648.5 581.5,653.5C 566.5,653.5 551.5,653.5 536.5,653.5C 550.99,652.504 565.657,652.171 580.5,652.5C 580.5,647.833 580.5,643.167 580.5,638.5 Z"/></g>
<g><path style="opacity:1" fill="#fbfbfb" d="M 704.5,653.5 C 714.889,653.13 725.223,653.63 735.5,655C 740.858,656.711 743.191,660.378 742.5,666C 742.681,671.172 740.348,674.839 735.5,677C 725.172,677.5 714.839,677.666 704.5,677.5C 704.5,669.5 704.5,661.5 704.5,653.5 Z"/></g>
<g><path style="opacity:1" fill="#616161" d="M 419.5,638.5 C 419.833,638.5 420.167,638.5 420.5,638.5C 420.5,643.5 420.5,648.5 420.5,653.5C 405.5,653.5 390.5,653.5 375.5,653.5C 375.5,661.5 375.5,669.5 375.5,677.5C 392.342,677.17 409.008,677.503 425.5,678.5C 408.5,678.5 391.5,678.5 374.5,678.5C 374.5,669.833 374.5,661.167 374.5,652.5C 389.5,652.5 404.5,652.5 419.5,652.5C 419.5,647.833 419.5,643.167 419.5,638.5 Z"/></g>
</svg>
