<?xml version="1.0" encoding="UTF-8"?>
<!DOCTYPE svg PUBLIC "-//W3C//DTD SVG 1.1//EN" "http://www.w3.org/Graphics/SVG/1.1/DTD/svg11.dtd">
<svg xmlns="http://www.w3.org/2000/svg" version="1.1" width="218px" height="200px" style="shape-rendering:geometricPrecision; text-rendering:geometricPrecision; image-rendering:optimizeQuality; fill-rule:evenodd; clip-rule:evenodd" xmlns:xlink="http://www.w3.org/1999/xlink">
<g><path style="opacity:1" fill="#fbfbfb" d="M -0.5,-0.5 C 72.1667,-0.5 144.833,-0.5 217.5,-0.5C 217.5,66.1667 217.5,132.833 217.5,199.5C 144.833,199.5 72.1667,199.5 -0.5,199.5C -0.5,132.833 -0.5,66.1667 -0.5,-0.5 Z"/></g>
<g><path style="opacity:1" fill="#101010" d="M 111.5,23.5 C 103.199,22.7518 95.199,23.9184 87.5,27C 74.7614,33.4029 63.4281,41.7362 53.5,52C 51.5646,51.9421 49.8979,51.1088 48.5,49.5C 47.3744,48.1417 47.3744,46.8084 48.5,45.5C 60.0577,33.4095 73.7244,24.9095 89.5,20C 94.1667,19.3333 98.8333,19.3333 103.5,20C 106.476,20.7048 109.142,21.8714 111.5,23.5 Z"/></g>
<g><path style="opacity:1" fill="#e2e2e2" d="M 111.5,23.5 C 113.253,25.2225 115.253,26.7225 117.5,28C 116.906,28.4643 116.239,28.631 115.5,28.5C 105.877,26.5171 96.5432,27.3505 87.5,31C 75.1793,36.9951 64.5126,45.1618 55.5,55.5C 53.9557,55.2969 52.6223,54.6302 51.5,53.5C 49.8767,54.4756 48.5433,53.9756 47.5,52C 48.2524,51.3292 48.5858,50.4959 48.5,49.5C 49.8979,51.1088 51.5646,51.9421 53.5,52C 63.4281,41.7362 74.7614,33.4029 87.5,27C 95.199,23.9184 103.199,22.7518 111.5,23.5 Z"/></g>
<g><path style="opacity:1" fill="#121212" d="M 115.5,28.5 C 116.514,29.6737 117.847,30.3404 119.5,30.5C 121.674,30.7497 123.341,31.7497 124.5,33.5C 114.603,30.4732 104.936,30.9732 95.5,35C 89.2362,38.2698 83.2362,41.9365 77.5,46C 71.6219,51.09 65.6219,55.9234 59.5,60.5C 58.1667,58.8333 56.8333,57.1667 55.5,55.5C 64.5126,45.1618 75.1793,36.9951 87.5,31C 96.5432,27.3505 105.877,26.5171 115.5,28.5 Z"/></g>
<g><path style="opacity:1" fill="#969696" d="M 111.5,23.5 C 115.024,23.9289 118.024,25.4289 120.5,28C 119.748,28.6708 119.414,29.5041 119.5,30.5C 117.847,30.3404 116.514,29.6737 115.5,28.5C 116.239,28.631 116.906,28.4643 117.5,28C 115.253,26.7225 113.253,25.2225 111.5,23.5 Z"/></g>
<g><path style="opacity:1" fill="#dfdfdf" d="M 124.5,33.5 C 127.598,34.2159 130.264,35.7159 132.5,38C 131.944,38.3826 131.611,38.8826 131.5,39.5C 120.402,34.7847 109.069,34.2847 97.5,38C 84.4882,44.3311 73.1549,52.8311 63.5,63.5C 62.1283,62.4884 60.795,61.4884 59.5,60.5C 65.6219,55.9234 71.6219,51.09 77.5,46C 83.2362,41.9365 89.2362,38.2698 95.5,35C 104.936,30.9732 114.603,30.4732 124.5,33.5 Z"/></g>
<g><path style="opacity:1" fill="#101010" d="M 131.5,39.5 C 131.918,40.2216 132.584,40.7216 133.5,41C 133,41.1667 132.5,41.3333 132,41.5C 129.953,40.3906 127.787,39.7239 125.5,39.5C 123.866,38.8389 122.033,38.5056 120,38.5C 116.85,38.3603 114.017,39.027 111.5,40.5C 105.874,41.8084 100.541,43.9751 95.5,47C 86.8781,53.2867 78.5447,59.9534 70.5,67C 69.5,67.6667 68.5,67.6667 67.5,67C 66.2949,65.6244 64.9616,64.4577 63.5,63.5C 73.1549,52.8311 84.4882,44.3311 97.5,38C 109.069,34.2847 120.402,34.7847 131.5,39.5 Z"/></g>
<g><path style="opacity:1" fill="#888888" d="M 125.5,39.5 C 120.797,39.4372 116.13,39.7705 111.5,40.5C 114.017,39.027 116.85,38.3603 120,38.5C 122.033,38.5056 123.866,38.8389 125.5,39.5 Z"/></g>
<g><path style="opacity:1" fill="#e2181e" d="M 108.5,82.5 C 108.5,81.8333 108.833,81.5 109.5,81.5C 118.53,82.5818 127.197,81.0818 135.5,77C 146.397,70.1043 156.73,62.4376 166.5,54C 168.788,53.5825 170.788,54.2491 172.5,56C 173.517,57.0495 173.684,58.2161 173,59.5C 163.459,68.3529 152.959,75.8529 141.5,82C 130.49,86.3264 119.49,86.4931 108.5,82.5 Z"/></g>
<g><path style="opacity:1" fill="#e31d20" d="M 161.5,45.5 C 162.458,46.9616 163.624,48.2949 165,49.5C 165.667,50.1667 165.667,50.8333 165,51.5C 154.94,60.89 143.774,68.7234 131.5,75C 123.026,78.2612 114.359,79.0946 105.5,77.5C 103.75,76.1302 101.75,75.1302 99.5,74.5C 98.5266,74.0133 97.5266,73.5133 96.5,73C 95.3044,72.3457 95.3044,71.8457 96.5,71.5C 98.4496,72.3721 100.45,73.0388 102.5,73.5C 110.28,74.4919 117.946,73.3253 125.5,70C 136.623,64.2118 146.623,56.8784 155.5,48C 157.217,46.4412 159.217,45.6079 161.5,45.5 Z"/></g>
<g><path style="opacity:1" fill="#e32023" d="M 156.5,41.5 C 152.047,48.1182 146.38,53.6182 139.5,58C 133.79,61.8548 127.79,65.1881 121.5,68C 118.883,68.8215 116.216,69.3215 113.5,69.5C 107.464,69.6401 101.464,69.3068 95.5,68.5C 93.0721,67.7878 90.7388,66.7878 88.5,65.5C 87.1667,64.8333 87.1667,64.1667 88.5,63.5C 94.8898,66.9711 101.556,67.4711 108.5,65C 124.439,59.0297 138.439,50.0297 150.5,38C 151,37.8333 151.5,37.6667 152,37.5C 153.351,39.0182 154.851,40.3515 156.5,41.5 Z"/></g>
<g><path style="opacity:1" fill="#fae6e3" d="M 156.5,41.5 C 157.626,43.5363 159.293,44.8697 161.5,45.5C 159.217,45.6079 157.217,46.4412 155.5,48C 146.623,56.8784 136.623,64.2118 125.5,70C 117.946,73.3253 110.28,74.4919 102.5,73.5C 105.32,73.7525 107.986,73.2525 110.5,72C 107.964,71.8138 105.631,71.3138 103.5,70.5C 107.042,70.8128 110.375,70.4794 113.5,69.5C 116.216,69.3215 118.883,68.8215 121.5,68C 127.79,65.1881 133.79,61.8548 139.5,58C 146.38,53.6182 152.047,48.1182 156.5,41.5 Z"/></g>
<g><path style="opacity:1" fill="#e85865" d="M 95.5,68.5 C 101.464,69.3068 107.464,69.6401 113.5,69.5C 110.375,70.4794 107.042,70.8128 103.5,70.5C 100.505,70.7062 97.8383,70.0395 95.5,68.5 Z"/></g>
<g><path style="opacity:1" fill="#f3c1c5" d="M 99.5,74.5 C 101.75,75.1302 103.75,76.1302 105.5,77.5C 104.761,77.369 104.094,77.5357 103.5,78C 104.416,78.2784 105.082,78.7784 105.5,79.5C 104.833,79.5 104.167,79.5 103.5,79.5C 101.391,78.6091 99.3911,77.4424 97.5,76C 98.4158,75.7216 99.0825,75.2216 99.5,74.5 Z"/></g>
<g><path style="opacity:1" fill="#e65f70" d="M 103.5,79.5 C 104.167,79.5 104.833,79.5 105.5,79.5C 106.995,79.9887 108.329,80.6554 109.5,81.5C 108.833,81.5 108.5,81.8333 108.5,82.5C 106.326,82.2503 104.659,81.2503 103.5,79.5 Z"/></g>
<g><path style="opacity:1" fill="#4b4b4b" d="M 66.5,109.5 C 70.6344,108.515 74.9677,108.182 79.5,108.5C 79.5,106.833 79.5,105.167 79.5,103.5C 72.5,103.5 65.5,103.5 58.5,103.5C 58.5,114.167 58.5,124.833 58.5,135.5C 65.5,135.5 72.5,135.5 79.5,135.5C 72.3524,136.492 65.0191,136.825 57.5,136.5C 57.5,125.167 57.5,113.833 57.5,102.5C 65.1667,102.5 72.8333,102.5 80.5,102.5C 80.5,104.833 80.5,107.167 80.5,109.5C 75.8333,109.5 71.1667,109.5 66.5,109.5 Z"/></g>
<g><path style="opacity:1" fill="#5f5f5f" d="M 85.5,103.5 C 92.9818,102.508 100.648,102.175 108.5,102.5C 108.802,105.059 108.468,107.393 107.5,109.5C 107.5,107.5 107.5,105.5 107.5,103.5C 100.167,103.5 92.8333,103.5 85.5,103.5 Z"/></g>
<g><path style="opacity:1" fill="#4f4f4f" d="M 121.5,109.5 C 125.634,108.515 129.968,108.182 134.5,108.5C 134.5,106.833 134.5,105.167 134.5,103.5C 127.5,103.5 120.5,103.5 113.5,103.5C 113.825,111.019 113.492,118.352 112.5,125.5C 112.5,117.833 112.5,110.167 112.5,102.5C 120.167,102.5 127.833,102.5 135.5,102.5C 135.5,104.833 135.5,107.167 135.5,109.5C 130.833,109.5 126.167,109.5 121.5,109.5 Z"/></g>
<g><path style="opacity:1" fill="#101010" d="M 156.5,109.5 C 153.531,107.994 150.698,108.327 148,110.5C 148.177,113.186 149.677,114.852 152.5,115.5C 163.474,121.463 164.141,128.296 154.5,136C 149.472,136.588 144.472,136.422 139.5,135.5C 139.5,133.167 139.5,130.833 139.5,128.5C 143.466,129.162 147.466,129.495 151.5,129.5C 151.657,128.127 151.49,126.793 151,125.5C 142.495,122.799 138.828,117.132 140,108.5C 141.167,106 143,104.167 145.5,103C 150.528,102.412 155.528,102.578 160.5,103.5C 160.5,105.5 160.5,107.5 160.5,109.5C 159.167,109.5 157.833,109.5 156.5,109.5 Z"/></g>
<g><path style="opacity:1" fill="#101010" d="M 23.5,102.5 C 31.8322,101.684 39.8322,102.851 47.5,106C 51.7917,109.087 53.4583,113.254 52.5,118.5C 52.672,127.648 48.3387,133.482 39.5,136C 33.8431,136.499 28.1764,136.666 22.5,136.5C 22.8333,125.167 23.1667,113.833 23.5,102.5 Z"/></g>
<g><path style="opacity:1" fill="#060606" d="M 66.5,109.5 C 65.1667,111.5 65.1667,113.5 66.5,115.5C 70.6344,116.485 74.9677,116.818 79.5,116.5C 79.5,118.167 79.5,119.833 79.5,121.5C 75.03,122.486 70.3633,122.819 65.5,122.5C 65.5,124.833 65.5,127.167 65.5,129.5C 70.5,129.5 75.5,129.5 80.5,129.5C 80.7947,131.735 80.4614,133.735 79.5,135.5C 72.5,135.5 65.5,135.5 58.5,135.5C 58.5,124.833 58.5,114.167 58.5,103.5C 65.5,103.5 72.5,103.5 79.5,103.5C 79.5,105.167 79.5,106.833 79.5,108.5C 74.9677,108.182 70.6344,108.515 66.5,109.5 Z"/></g>
<g><path style="opacity:1" fill="#050505" d="M 85.5,103.5 C 92.8333,103.5 100.167,103.5 107.5,103.5C 107.5,105.5 107.5,107.5 107.5,109.5C 102.833,109.5 98.1667,109.5 93.5,109.5C 93.5,111.833 93.5,114.167 93.5,116.5C 98.1667,116.5 102.833,116.5 107.5,116.5C 107.5,118.5 107.5,120.5 107.5,122.5C 102.833,122.5 98.1667,122.5 93.5,122.5C 92.5151,126.634 92.1818,130.968 92.5,135.5C 90.1667,135.5 87.8333,135.5 85.5,135.5C 85.5,124.833 85.5,114.167 85.5,103.5 Z"/></g>
<g><path style="opacity:1" fill="#050505" d="M 121.5,109.5 C 120.532,111.607 120.198,113.941 120.5,116.5C 125.167,116.5 129.833,116.5 134.5,116.5C 134.5,118.5 134.5,120.5 134.5,122.5C 129.833,122.5 125.167,122.5 120.5,122.5C 120.5,124.833 120.5,127.167 120.5,129.5C 125.167,129.5 129.833,129.5 134.5,129.5C 134.5,131.5 134.5,133.5 134.5,135.5C 127.167,135.5 119.833,135.5 112.5,135.5C 112.5,132.167 112.5,128.833 112.5,125.5C 113.492,118.352 113.825,111.019 113.5,103.5C 120.5,103.5 127.5,103.5 134.5,103.5C 134.5,105.167 134.5,106.833 134.5,108.5C 129.968,108.182 125.634,108.515 121.5,109.5 Z"/></g>
<g><path style="opacity:1" fill="#111111" d="M 175.5,102.5 C 179.106,102.211 182.606,102.544 186,103.5C 190.409,114.315 194.243,125.315 197.5,136.5C 194.5,136.5 191.5,136.5 188.5,136.5C 189.314,130.19 186.648,127.523 180.5,128.5C 174.75,127.964 172.083,130.631 172.5,136.5C 169.5,136.5 166.5,136.5 163.5,136.5C 166.982,124.894 170.982,113.56 175.5,102.5 Z"/></g>
<g><path style="opacity:1" fill="#f3f3f3" d="M 37.5,128.5 C 35.5,128.5 33.5,128.5 31.5,128.5C 31.5,122.833 31.5,117.167 31.5,111.5C 36.563,108.73 40.7297,110.064 44,115.5C 45.1279,121.525 42.9612,125.858 37.5,128.5 Z"/></g>
<g><path style="opacity:1" fill="#b3b3b3" d="M 156.5,109.5 C 154.5,109.5 152.5,109.5 150.5,109.5C 150.253,111.858 150.919,113.858 152.5,115.5C 149.677,114.852 148.177,113.186 148,110.5C 150.698,108.327 153.531,107.994 156.5,109.5 Z"/></g>
<g><path style="opacity:1" fill="#7d7d7d" d="M 182.5,113.5 C 181.778,113.082 181.278,112.416 181,111.5C 180.722,112.416 180.222,113.082 179.5,113.5C 179.238,112.022 179.571,110.689 180.5,109.5C 182.111,110.32 182.778,111.654 182.5,113.5 Z"/></g>
<g><path style="opacity:1" fill="#6d6d6d" d="M 66.5,115.5 C 71.1667,115.5 75.8333,115.5 80.5,115.5C 80.5,117.5 80.5,119.5 80.5,121.5C 80.1667,121.5 79.8333,121.5 79.5,121.5C 79.5,119.833 79.5,118.167 79.5,116.5C 74.9677,116.818 70.6344,116.485 66.5,115.5 Z"/></g>
<g><path style="opacity:1" fill="#909090" d="M 107.5,109.5 C 103.366,110.485 99.0323,110.818 94.5,110.5C 94.5,112.167 94.5,113.833 94.5,115.5C 99.0323,115.182 103.366,115.515 107.5,116.5C 102.833,116.5 98.1667,116.5 93.5,116.5C 93.5,114.167 93.5,111.833 93.5,109.5C 98.1667,109.5 102.833,109.5 107.5,109.5 Z"/></g>
<g><path style="opacity:1" fill="#767676" d="M 121.5,109.5 C 121.5,111.5 121.5,113.5 121.5,115.5C 126.167,115.5 130.833,115.5 135.5,115.5C 135.802,118.059 135.468,120.393 134.5,122.5C 134.5,120.5 134.5,118.5 134.5,116.5C 129.833,116.5 125.167,116.5 120.5,116.5C 120.198,113.941 120.532,111.607 121.5,109.5 Z"/></g>
<g><path style="opacity:1" fill="#ededed" d="M 182.5,113.5 C 183.167,116.167 183.833,118.833 184.5,121.5C 181.612,122.01 179.279,121.344 177.5,119.5C 178.167,117.5 178.833,115.5 179.5,113.5C 180.222,113.082 180.722,112.416 181,111.5C 181.278,112.416 181.778,113.082 182.5,113.5 Z"/></g>
<g><path style="opacity:1" fill="#5e5e5e" d="M 31.5,111.5 C 31.5,117.167 31.5,122.833 31.5,128.5C 33.5,128.5 35.5,128.5 37.5,128.5C 35.3926,129.468 33.0593,129.802 30.5,129.5C 30.1771,123.31 30.5104,117.31 31.5,111.5 Z"/></g>
<g><path style="opacity:1" fill="#5f5f5f" d="M 177.5,119.5 C 179.279,121.344 181.612,122.01 184.5,121.5C 182.052,122.473 179.385,122.806 176.5,122.5C 176.263,121.209 176.596,120.209 177.5,119.5 Z"/></g>
<g><path style="opacity:1" fill="#bebebe" d="M 79.5,121.5 C 79.8333,121.5 80.1667,121.5 80.5,121.5C 76.2853,123.436 71.6186,124.103 66.5,123.5C 66.5,125.167 66.5,126.833 66.5,128.5C 71.3633,128.181 76.03,128.514 80.5,129.5C 75.5,129.5 70.5,129.5 65.5,129.5C 65.5,127.167 65.5,124.833 65.5,122.5C 70.3633,122.819 75.03,122.486 79.5,121.5 Z"/></g>
<g><path style="opacity:1" fill="#c1c1c1" d="M 134.5,122.5 C 130.366,123.485 126.032,123.818 121.5,123.5C 121.5,125.167 121.5,126.833 121.5,128.5C 126.032,128.182 130.366,128.515 134.5,129.5C 129.833,129.5 125.167,129.5 120.5,129.5C 120.5,127.167 120.5,124.833 120.5,122.5C 125.167,122.5 129.833,122.5 134.5,122.5 Z"/></g>
<g><path style="opacity:1" fill="#424242" d="M 93.5,122.5 C 93.5,127.167 93.5,131.833 93.5,136.5C 90.6146,136.806 87.9479,136.473 85.5,135.5C 87.8333,135.5 90.1667,135.5 92.5,135.5C 92.1818,130.968 92.5151,126.634 93.5,122.5 Z"/></g>
<g><path style="opacity:1" fill="#555555" d="M 134.5,129.5 C 135.468,131.607 135.802,133.941 135.5,136.5C 127.648,136.825 119.982,136.492 112.5,135.5C 119.833,135.5 127.167,135.5 134.5,135.5C 134.5,133.5 134.5,131.5 134.5,129.5 Z"/></g>
<g><path style="opacity:1" fill="#343434" d="M 151.5,138.5 C 152.675,138.281 153.675,138.614 154.5,139.5C 151.355,143.66 150.355,143.326 151.5,138.5 Z"/></g>
<g><path style="opacity:1" fill="#141414" d="M 88.5,144.5 C 91.5184,144.335 94.5184,144.502 97.5,145C 101.007,150.818 99.3407,153.984 92.5,154.5C 92.7845,156.415 92.4511,158.081 91.5,159.5C 90.5,159.5 89.5,159.5 88.5,159.5C 88.5,154.5 88.5,149.5 88.5,144.5 Z"/></g>
<g><path style="opacity:1" fill="#1f1f1f" d="M 148.5,144.5 C 150.833,144.5 153.167,144.5 155.5,144.5C 157.037,149.778 158.37,155.112 159.5,160.5C 158.167,160.5 156.833,160.5 155.5,160.5C 155.67,159.178 155.337,158.011 154.5,157C 152.527,156.505 150.527,156.338 148.5,156.5C 148.616,159.91 146.95,161.244 143.5,160.5C 145.167,155.167 146.833,149.833 148.5,144.5 Z"/></g>
<g><path style="opacity:1" fill="#161616" d="M 38.5,158.5 C 37.4324,159.434 36.099,159.768 34.5,159.5C 34.7373,158.209 34.404,157.209 33.5,156.5C 31.5,156.5 29.5,156.5 27.5,156.5C 27.5,157.5 27.5,158.5 27.5,159.5C 26.1667,159.5 24.8333,159.5 23.5,159.5C 24.5887,154.65 26.2553,149.983 28.5,145.5C 30.396,144.534 32.396,144.201 34.5,144.5C 35.6304,149.224 36.9637,153.891 38.5,158.5 Z"/></g>
<g><path style="opacity:1" fill="#121212" d="M 64.5,144.5 C 68.0698,147.041 68.4031,150.041 65.5,153.5C 67.415,155.071 68.415,157.071 68.5,159.5C 65.1668,160.167 63.1668,158.833 62.5,155.5C 61.675,154.614 60.675,154.281 59.5,154.5C 59.5,156.167 59.5,157.833 59.5,159.5C 58.5,159.5 57.5,159.5 56.5,159.5C 56.5,154.5 56.5,149.5 56.5,144.5C 59.1667,144.5 61.8333,144.5 64.5,144.5 Z"/></g>
<g><path style="opacity:1" fill="#1b1b1b" d="M 73.5,144.5 C 85.8186,143.659 88.8186,148.493 82.5,159C 72.2625,162.098 68.4292,158.265 71,147.5C 72.045,146.627 72.8783,145.627 73.5,144.5 Z"/></g>
<g><path style="opacity:1" fill="#151515" d="M 133.5,155.5 C 134.884,156.801 136.384,156.801 138,155.5C 138.499,151.848 138.665,148.182 138.5,144.5C 139.833,144.5 141.167,144.5 142.5,144.5C 142.666,148.514 142.499,152.514 142,156.5C 139.293,160.035 135.793,161.202 131.5,160C 130.177,159.184 129.511,158.017 129.5,156.5C 129.5,152.5 129.5,148.5 129.5,144.5C 130.5,144.5 131.5,144.5 132.5,144.5C 132.185,148.371 132.518,152.038 133.5,155.5 Z"/></g>
<g><path style="opacity:1" fill="#181818" d="M 161.5,144.5 C 165.584,144.043 169.417,144.71 173,146.5C 173.678,148.902 173.178,151.068 171.5,153C 172.363,155.227 173.363,157.393 174.5,159.5C 173.277,160.614 171.944,160.781 170.5,160C 167.396,152.742 165.73,152.909 165.5,160.5C 164.167,160.5 162.833,160.5 161.5,160.5C 161.5,155.167 161.5,149.833 161.5,144.5 Z"/></g>
<g><path style="opacity:1" fill="#161616" d="M 117.5,144.5 C 120.5,144.5 123.5,144.5 126.5,144.5C 126.5,145.5 126.5,146.5 126.5,147.5C 119.003,146.804 117.003,149.637 120.5,156C 122.473,156.495 124.473,156.662 126.5,156.5C 126.64,158.124 125.973,159.29 124.5,160C 117.761,161.227 114.427,158.393 114.5,151.5C 114.667,150.167 114.833,148.833 115,147.5C 116.045,146.627 116.878,145.627 117.5,144.5 Z"/></g>
<g><path style="opacity:1" fill="#7a7a7a" d="M 133.5,155.5 C 132.518,152.038 132.185,148.371 132.5,144.5C 131.5,144.5 130.5,144.5 129.5,144.5C 129.5,148.5 129.5,152.5 129.5,156.5C 128.515,152.366 128.182,148.032 128.5,143.5C 130.167,143.5 131.833,143.5 133.5,143.5C 133.5,147.5 133.5,151.5 133.5,155.5 Z"/></g>
<g><path style="opacity:1" fill="#0f0f0f" d="M 102.5,144.5 C 105.833,144.5 109.167,144.5 112.5,144.5C 112.5,145.5 112.5,146.5 112.5,147.5C 110.167,147.5 107.833,147.5 105.5,147.5C 105.5,148.5 105.5,149.5 105.5,150.5C 107.833,150.5 110.167,150.5 112.5,150.5C 112.5,151.5 112.5,152.5 112.5,153.5C 110.167,153.5 107.833,153.5 105.5,153.5C 105.5,154.833 105.5,156.167 105.5,157.5C 108.388,156.99 110.721,157.656 112.5,159.5C 109.167,159.5 105.833,159.5 102.5,159.5C 102.5,154.5 102.5,149.5 102.5,144.5 Z"/></g>
<g><path style="opacity:1" fill="#1b1b1b" d="M 186.5,144.5 C 188.833,144.5 191.167,144.5 193.5,144.5C 194.517,149.903 195.851,155.236 197.5,160.5C 196.167,160.5 194.833,160.5 193.5,160.5C 193.67,159.178 193.337,158.011 192.5,157C 190.527,156.505 188.527,156.338 186.5,156.5C 186.616,159.91 184.95,161.244 181.5,160.5C 183.184,155.117 184.851,149.783 186.5,144.5 Z"/></g>
<g><path style="opacity:1" fill="#cfcfcf" d="M 59.5,147.5 C 60.8333,147.5 62.1667,147.5 63.5,147.5C 63.5,148.833 63.5,150.167 63.5,151.5C 62.1667,151.5 60.8333,151.5 59.5,151.5C 59.5,150.167 59.5,148.833 59.5,147.5 Z"/></g>
<g><path style="opacity:1" fill="#eeeeee" d="M 76.5,147.5 C 80.805,147.842 82.305,150.176 81,154.5C 77.1822,157.498 75.0155,156.498 74.5,151.5C 74.8029,149.886 75.4695,148.552 76.5,147.5 Z"/></g>
<g><path style="opacity:1" fill="#e2e2e2" d="M 92.5,147.5 C 93.5,147.5 94.5,147.5 95.5,147.5C 95.5,148.833 95.5,150.167 95.5,151.5C 94.5,151.5 93.5,151.5 92.5,151.5C 92.5,150.167 92.5,148.833 92.5,147.5 Z"/></g>
<g><path style="opacity:1" fill="#d9d9d9" d="M 165.5,147.5 C 166.833,147.5 168.167,147.5 169.5,147.5C 169.833,150.5 168.5,151.833 165.5,151.5C 165.5,150.167 165.5,148.833 165.5,147.5 Z"/></g>
<g><path style="opacity:1" fill="#ababab" d="M 30.5,148.5 C 32.2132,149.635 32.8799,151.302 32.5,153.5C 31.5,153.5 30.5,153.5 29.5,153.5C 29.366,151.708 29.6993,150.042 30.5,148.5 Z"/></g>
<g><path style="opacity:1" fill="#181818" d="M 43.5,144.5 C 46.5,144.5 49.5,144.5 52.5,144.5C 52.5,145.5 52.5,146.5 52.5,147.5C 45.9999,146.499 43.4999,149.165 45,155.5C 46.3561,156.38 47.8561,156.714 49.5,156.5C 49.5,154.833 49.5,153.167 49.5,151.5C 50.8333,151.5 52.1667,151.5 53.5,151.5C 54.6049,160.724 50.9383,163.058 42.5,158.5C 38.3083,153.509 38.6417,148.842 43.5,144.5 Z"/></g>
<g><path style="opacity:1" fill="#868686" d="M 64.5,144.5 C 61.8333,144.5 59.1667,144.5 56.5,144.5C 56.5,149.5 56.5,154.5 56.5,159.5C 57.5,159.5 58.5,159.5 59.5,159.5C 58.4324,160.434 57.099,160.768 55.5,160.5C 55.5,154.833 55.5,149.167 55.5,143.5C 58.7131,143.19 61.7131,143.523 64.5,144.5 Z"/></g>
<g><path style="opacity:1" fill="#bababa" d="M 151.5,148.5 C 152.339,149.641 153.006,150.974 153.5,152.5C 152.675,153.386 151.675,153.719 150.5,153.5C 150.629,151.784 150.962,150.117 151.5,148.5 Z"/></g>
<g><path style="opacity:1" fill="#bebebe" d="M 189.5,148.5 C 190.339,149.641 191.006,150.974 191.5,152.5C 190.675,153.386 189.675,153.719 188.5,153.5C 188.366,151.708 188.699,150.042 189.5,148.5 Z"/></g>
<g><path style="opacity:1" fill="#737373" d="M 176.5,144.5 C 176.5,149.5 176.5,154.5 176.5,159.5C 177.5,159.5 178.5,159.5 179.5,159.5C 179.5,154.5 179.5,149.5 179.5,144.5C 180.488,149.64 180.821,154.974 180.5,160.5C 178.833,160.5 177.167,160.5 175.5,160.5C 175.179,154.974 175.512,149.64 176.5,144.5 Z"/></g>
<g><path style="opacity:1" fill="#040404" d="M 176.5,144.5 C 177.5,144.5 178.5,144.5 179.5,144.5C 179.5,149.5 179.5,154.5 179.5,159.5C 178.5,159.5 177.5,159.5 176.5,159.5C 176.5,154.5 176.5,149.5 176.5,144.5 Z"/></g>
<g><path style="opacity:1" fill="#8c8c8c" d="M 88.5,144.5 C 88.5,149.5 88.5,154.5 88.5,159.5C 89.5,159.5 90.5,159.5 91.5,159.5C 90.4324,160.434 89.099,160.768 87.5,160.5C 87.1786,154.974 87.5119,149.64 88.5,144.5 Z"/></g>
<g><path style="opacity:1" fill="#979797" d="M 33.5,156.5 C 34.404,157.209 34.7373,158.209 34.5,159.5C 36.099,159.768 37.4324,159.434 38.5,158.5C 39.0431,158.56 39.3764,158.893 39.5,159.5C 37.604,160.466 35.604,160.799 33.5,160.5C 33.5,159.167 33.5,157.833 33.5,156.5 Z"/></g>
<g><path style="opacity:1" fill="#666666" d="M 102.5,144.5 C 102.5,149.5 102.5,154.5 102.5,159.5C 105.833,159.5 109.167,159.5 112.5,159.5C 109.038,160.482 105.371,160.815 101.5,160.5C 101.179,154.974 101.512,149.64 102.5,144.5 Z"/></g>
<g><path style="opacity:1" fill="#959595" d="M 23.5,168.5 C 26.2469,168.187 28.9135,168.52 31.5,169.5C 29.8333,170.167 28.1667,170.833 26.5,171.5C 27.6888,172.429 29.0222,172.762 30.5,172.5C 30.5,173.5 30.5,174.5 30.5,175.5C 29.0222,175.238 27.6888,175.571 26.5,176.5C 29.5352,177.665 32.5352,177.498 35.5,176C 31.3219,172.802 31.6552,170.302 36.5,168.5C 37.1667,168.833 37.8333,169.167 38.5,169.5C 34.6856,171.27 34.8522,172.936 39,174.5C 39.7805,175.944 39.6139,177.277 38.5,178.5C 33.7031,178.88 28.7031,179.213 23.5,179.5C 23.5,175.833 23.5,172.167 23.5,168.5 Z"/></g>
<g><path style="opacity:1" fill="#979797" d="M 99.5,168.5 C 101.924,168.192 104.257,168.526 106.5,169.5C 99.9514,171.093 99.9514,172.093 106.5,172.5C 106.5,173.5 106.5,174.5 106.5,175.5C 101.167,175.833 101.167,176.167 106.5,176.5C 106.5,177.5 106.5,178.5 106.5,179.5C 104.167,179.5 101.833,179.5 99.5,179.5C 99.5,175.833 99.5,172.167 99.5,168.5 Z"/></g>
<g><path style="opacity:1" fill="#8f8f8f" d="M 113.5,168.5 C 120.662,168.613 120.995,169.613 114.5,171.5C 117.722,173.14 119.056,175.807 118.5,179.5C 112.303,179.675 111.637,178.675 116.5,176.5C 112.743,174.78 111.743,172.113 113.5,168.5 Z"/></g>
<g><path style="opacity:1" fill="#949494" d="M 167.5,168.5 C 168.5,168.5 169.5,168.5 170.5,168.5C 170.5,171.167 170.5,173.833 170.5,176.5C 171.833,176.5 173.167,176.5 174.5,176.5C 174.192,174.076 174.526,171.743 175.5,169.5C 176.748,172.506 176.748,175.506 175.5,178.5C 172.718,179.952 170.218,179.619 168,177.5C 167.502,174.518 167.335,171.518 167.5,168.5 Z"/></g>
<g><path style="opacity:1" fill="#8d8d8d" d="M 40.5,168.5 C 43.2469,168.187 45.9135,168.52 48.5,169.5C 47.675,170.386 46.675,170.719 45.5,170.5C 44.8333,182.5 44.1667,182.5 43.5,170.5C 41.8212,170.715 40.8212,170.048 40.5,168.5 Z"/></g>
<g><path style="opacity:1" fill="#949494" d="M 72.5,168.5 C 81.4157,167.585 83.749,171.085 79.5,179C 76.6529,179.944 74.1529,179.444 72,177.5C 71.3658,174.445 71.5325,171.445 72.5,168.5 Z"/></g>
<g><path style="opacity:1" fill="#f2f2f2" d="M 74.5,171.5 C 78.6759,170.831 80.0093,172.331 78.5,176C 77.2068,176.49 75.8734,176.657 74.5,176.5C 74.5,174.833 74.5,173.167 74.5,171.5 Z"/></g>
<g><path style="opacity:1" fill="#979797" d="M 51.5,168.5 C 53.1439,168.286 54.6439,168.62 56,169.5C 57.3524,172.72 58.1857,176.053 58.5,179.5C 57.5,179.5 56.5,179.5 55.5,179.5C 55.5,178.5 55.5,177.5 55.5,176.5C 52.9512,176.441 50.9512,177.441 49.5,179.5C 49.1667,178.833 48.8333,178.167 48.5,177.5C 49.7976,174.578 50.7976,171.578 51.5,168.5 Z"/></g>
<g><path style="opacity:1" fill="#9a9a9a" d="M 148.5,168.5 C 150.92,168.292 153.253,168.626 155.5,169.5C 157.574,173.839 156.241,175.839 151.5,175.5C 151.5,176.833 151.5,178.167 151.5,179.5C 150.5,179.5 149.5,179.5 148.5,179.5C 148.5,175.833 148.5,172.167 148.5,168.5 Z"/></g>
<g><path style="opacity:1" fill="#979797" d="M 159.5,168.5 C 161.144,168.286 162.644,168.62 164,169.5C 165.143,172.777 165.977,176.11 166.5,179.5C 164.723,179.214 163.056,178.547 161.5,177.5C 159.944,178.547 158.277,179.214 156.5,179.5C 157.2,175.763 158.2,172.096 159.5,168.5 Z"/></g>
<g><path style="opacity:1" fill="#939393" d="M 123.5,168.5 C 124.978,168.238 126.311,168.571 127.5,169.5C 129.312,172.603 130.312,175.936 130.5,179.5C 128.723,179.214 127.056,178.547 125.5,177.5C 124.259,178.037 123.092,178.704 122,179.5C 121.5,179.167 121,178.833 120.5,178.5C 121.755,175.208 122.755,171.875 123.5,168.5 Z"/></g>
<g><path style="opacity:1" fill="#919191" d="M 87.5,168.5 C 96.3538,167.33 99.0205,170.664 95.5,178.5C 92.9135,179.48 90.2469,179.813 87.5,179.5C 87.5,175.833 87.5,172.167 87.5,168.5 Z"/></g>
<g><path style="opacity:1" fill="#e8e8e8" d="M 90.5,170.5 C 94.4377,170.843 95.4377,172.843 93.5,176.5C 92.675,177.386 91.675,177.719 90.5,177.5C 90.5,175.167 90.5,172.833 90.5,170.5 Z"/></g>
<g><path style="opacity:1" fill="#9a9a9a" d="M 178.5,168.5 C 179.833,168.5 181.167,168.5 182.5,168.5C 182.5,171.167 182.5,173.833 182.5,176.5C 183.833,176.5 185.167,176.5 186.5,176.5C 186.636,169.019 189.97,167.019 196.5,170.5C 198.436,175.358 196.936,178.358 192,179.5C 190.188,179.507 188.688,178.84 187.5,177.5C 184.788,179.26 181.788,179.927 178.5,179.5C 178.5,175.833 178.5,172.167 178.5,168.5 Z"/></g>
<g><path style="opacity:1" fill="#f0f0f0" d="M 189.5,171.5 C 191.167,171.5 192.833,171.5 194.5,171.5C 194.5,173.167 194.5,174.833 194.5,176.5C 192.833,176.5 191.167,176.5 189.5,176.5C 189.5,174.833 189.5,173.167 189.5,171.5 Z"/></g>
<g><path style="opacity:1" fill="#959595" d="M 133.5,168.5 C 142.375,168.491 144.375,171.991 139.5,179C 134.605,180.116 131.939,178.116 131.5,173C 131.519,171.167 132.185,169.667 133.5,168.5 Z"/></g>
<g><path style="opacity:1" fill="#efefef" d="M 135.5,170.5 C 139.068,170.759 140.401,172.759 139.5,176.5C 137.833,176.5 136.167,176.5 134.5,176.5C 134.325,174.379 134.659,172.379 135.5,170.5 Z"/></g>
<g><path style="opacity:1" fill="#939393" d="M 60.5,168.5 C 69.1594,166.676 71.8261,169.842 68.5,178C 65.9865,179.252 63.3198,179.752 60.5,179.5C 60.5,175.833 60.5,172.167 60.5,168.5 Z"/></g>
<g><path style="opacity:1" fill="#f0f0f0" d="M 63.5,171.5 C 64.8333,171.5 66.1667,171.5 67.5,171.5C 68.2436,174.95 66.9103,176.616 63.5,176.5C 63.5,174.833 63.5,173.167 63.5,171.5 Z"/></g>
</svg>
