<?xml version="1.0" encoding="UTF-8"?>
<svg version="1.1" xmlns="http://www.w3.org/2000/svg" width="1181" height="1508">
<path d="M0 0 C389.73 0 779.46 0 1181 0 C1181 497.64 1181 995.28 1181 1508 C791.27 1508 401.54 1508 0 1508 C0 1010.36 0 512.72 0 0 Z " fill="#FEFEFE" transform="translate(0,0)"/>
<path d="M0 0 C208.23 0 416.46 0 631 0 C631 76.23 631 152.46 631 231 C724.06 231 817.12 231 913 231 C912.03960395 234.8415842 910.97726037 236.88624437 908.859375 240.15625 C907.88194336 241.67412109 907.88194336 241.67412109 906.88476562 243.22265625 C906.18029297 244.30417969 905.47582031 245.38570312 904.75 246.5 C904.01710178 247.63380681 903.28468523 248.76792512 902.55273438 249.90234375 C900.37560157 253.27287851 898.18850031 256.63683488 896 260 C894.86977593 261.73957311 893.73956611 263.47915548 892.609375 265.21875 C891.05446834 267.61059786 889.49875717 270.00190667 887.94091797 272.3918457 C882.85016686 280.20782993 877.82730792 288.06681424 872.80517578 295.92700195 C869.01368533 301.85938105 865.20860517 307.78225703 861.375 313.6875 C857.25291877 320.03811047 853.18275016 326.42061637 849.125 332.8125 C842.4910165 343.25730339 835.76495506 353.63967085 829 364 C827.03097845 367.01558237 825.06199952 370.03119214 823.09350586 373.04711914 C821.82549419 374.9894746 820.55682769 376.93140281 819.28735352 378.87280273 C815.1432542 385.21829491 811.05639113 391.59812778 807 398 C799.23652774 410.24869614 791.41775694 422.45559654 783.47558594 434.58935547 C779.00959567 441.4233213 774.62361173 448.30345337 770.27905273 455.21508789 C765.7041753 462.48842517 761.04032316 469.70216379 756.35888672 476.90722656 C754.06807344 480.43522718 751.78434458 483.96780892 749.5 487.5 C746.76514547 491.72879668 744.02900047 495.95671659 741.28515625 500.1796875 C736.55607583 507.46369526 731.87175907 514.77237582 727.25 522.125 C722.16080418 530.21792861 716.95272038 538.22895581 711.71679688 546.22753906 C706.74480622 553.83280566 701.85172707 561.48566253 696.984375 569.15820312 C693.12948837 575.23270208 689.2404254 581.28341068 685.32324219 587.31787109 C681.18813844 593.69444695 677.09329564 600.09652736 673 606.5 C668.0994373 614.16575798 663.18680354 621.82291856 658.23144531 629.45336914 C655.47375726 633.70557605 652.73912192 637.97189455 650.015625 642.24609375 C648.95891602 643.90318359 648.95891602 643.90318359 647.88085938 645.59375 C646.50005566 647.76051073 645.12103572 649.92840964 643.74414062 652.09765625 C642.78024414 653.60972656 642.78024414 653.60972656 641.796875 655.15234375 C641.23323242 656.03913818 640.66958984 656.92593262 640.08886719 657.83959961 C639.39954102 658.88253174 638.71021484 659.92546387 638 661 C637.55130274 661.80898142 637.10260549 662.61796284 636.64031134 663.45145885 C632.44947989 670.42210753 632.44947989 670.42210753 628.65819589 671.9336528 C625.83738721 672.29172246 623.16065267 672.33432438 620.31762409 672.27072716 C619.24777854 672.28656916 618.177933 672.30241116 617.07566789 672.31873322 C613.47700252 672.35970512 609.88249019 672.32921684 606.2837677 672.29916382 C603.68350262 672.31371172 601.08325876 672.33259271 598.48305339 672.35544264 C592.82282631 672.39798412 587.16351578 672.40316693 581.50317574 672.38384438 C573.08607296 672.35514876 564.66982824 672.383371 556.2528019 672.42238687 C540.34524433 672.49385531 524.43811904 672.4966178 508.53044675 672.47699307 C496.24568985 672.46201068 483.96103438 672.46304663 471.67627525 672.47536087 C468.14072684 672.4787189 464.60517836 672.48200005 461.06962985 672.4852587 C460.19069091 672.48607297 459.31175197 672.48688724 458.40617852 672.48772618 C433.68084273 672.50999821 408.95558601 672.51016827 384.23027515 672.46640587 C382.83179502 672.4639479 382.83179502 672.4639479 381.40506276 672.46144027 C376.67963129 672.45309312 371.95420011 672.44458612 367.22876898 672.43604355 C366.2902748 672.43435115 365.35178062 672.43265876 364.38484722 672.43091509 C362.4869826 672.4274916 360.589118 672.42405454 358.69125343 672.4206039 C329.16480804 672.3675065 299.63938137 672.3955623 270.11303711 672.48535156 C236.94316571 672.58615673 203.7741548 672.61946704 170.6041643 672.5575062 C167.06704443 672.55114335 163.5299242 672.54503928 159.99280357 672.53911209 C159.1218702 672.5376124 158.25093682 672.5361127 157.35361153 672.53456756 C143.33878116 672.51200033 129.32484384 672.55352389 115.3101721 672.61729539 C101.22364344 672.67960409 87.13868921 672.66707575 73.05228589 672.57898973 C64.68378013 672.5287627 56.31960761 672.53373183 47.95135614 672.618421 C41.70014744 672.67549608 35.45381474 672.62798182 29.20305761 672.5399185 C26.67617912 672.52051837 24.14876867 672.53487183 21.62234125 672.58640628 C3.21697026 672.9350291 3.21697026 672.9350291 -2.16415884 668.02551201 C-5.97624994 663.22756857 -8.57422251 657.99276423 -10.95433906 652.37240429 C-12.37850041 649.1412551 -14.15648138 646.30553143 -16.07421875 643.34375 C-16.66992676 642.37928955 -17.26563477 641.4148291 -17.87939453 640.42114258 C-18.47606934 639.45716553 -19.07274414 638.49318848 -19.6875 637.5 C-25.36964974 628.29254468 -31.01510579 619.06409122 -36.625 609.8125 C-36.98078125 609.22578522 -37.3365625 608.63907043 -37.703125 608.03457642 C-39.11962352 605.69844037 -40.53599422 603.36222692 -41.95211792 601.02586365 C-45.35708979 595.40891922 -48.77124132 589.7975846 -52.1875 584.1875 C-52.75355957 583.25784424 -53.31961914 582.32818848 -53.90283203 581.37036133 C-55.0346206 579.51168991 -56.16645626 577.65304716 -57.29833984 575.79443359 C-59.61371213 571.99217374 -61.92835553 568.18947044 -64.24291992 564.38671875 C-65.41355235 562.46347882 -66.5842879 560.54030165 -67.75512695 558.6171875 C-70.64859747 553.86446368 -73.54066682 549.11089897 -76.4296875 544.35546875 C-82.62935472 534.15445426 -88.85882724 523.9728162 -95.125 513.8125 C-100.35494699 505.33184195 -105.52727057 496.82064025 -110.63330078 488.26489258 C-114.19681418 482.30618134 -117.83402306 476.39614455 -121.5 470.5 C-126.28132219 462.8097615 -130.9797851 455.07482424 -135.62548828 447.30200195 C-139.73162152 440.43480151 -143.89466879 433.6039375 -148.07421875 426.78125 C-152.02442153 420.33193934 -155.95078468 413.86810128 -159.87841797 407.4050293 C-165.49992482 398.16145152 -171.17734759 388.95255388 -176.859375 379.74609375 C-183.56193777 368.8817645 -190.23079958 358.00019138 -196.78125 347.04321289 C-202.98489433 336.66913083 -209.30670079 326.3682421 -215.6484375 316.078125 C-222.67482789 304.67666355 -229.67960136 293.26345383 -236.625 281.8125 C-236.97836426 281.22995453 -237.33172852 280.64740906 -237.69580078 280.04721069 C-239.44994654 277.15509 -241.20362451 274.26268598 -242.95703125 271.37011719 C-246.17735036 266.05782214 -249.39950589 260.74665455 -252.625 255.4375 C-253.16850098 254.54071533 -253.71200195 253.64393066 -254.27197266 252.7199707 C-257.63788432 247.18208358 -261.1081854 241.73173869 -264.69287109 236.33227539 C-266 234 -266 234 -266 231 C-178.22 231 -90.44 231 0 231 C0 154.77 0 78.54 0 0 Z " fill="#019BDB" transform="translate(267,441)"/>
<path d="M0 0 C389.73 0 779.46 0 1181 0 C1181 144.87 1181 289.74 1181 439 C1040.915 439.495 1040.915 439.495 898 440 C894.04 432.41 890.08 424.82 886 417 C882.37859362 410.35698635 882.37859362 410.35698635 878.74755859 403.71923828 C874.08366523 395.21012267 869.53745054 386.63946558 865 378.0625 C864.61098511 377.32724091 864.22197021 376.59198181 863.82116699 375.83444214 C859.05589185 366.82341339 854.32252775 357.79656485 849.625 348.75 C845.4895338 340.7883529 841.2377614 332.89871406 836.91821289 325.03564453 C831.80942179 315.70868317 826.85120266 306.30347021 821.88754272 296.89880371 C816.53425938 286.7579122 811.1214206 276.65318733 805.63232422 266.58496094 C801.15621332 258.3486896 796.84423112 250.03113493 792.55078125 241.69848633 C788.99716016 234.82979742 785.28003122 228.10248487 781.29296875 221.4765625 C780 219 780 219 780 216 C652.62 216 525.24 216 394 216 C393.34 217.65 392.68 219.3 392 221 C391.03308685 222.86498071 390.03557987 224.71427202 389.015625 226.55078125 C388.41758057 227.6289209 387.81953613 228.70706055 387.20336914 229.81787109 C386.55246075 230.98286735 385.90133182 232.14774042 385.25 233.3125 C384.91708954 233.91024231 384.58417908 234.50798462 384.24118042 235.12384033 C379.06294017 244.42045881 373.74158456 253.62567479 368.34277344 262.79614258 C363.39867473 271.23112911 358.67837629 279.78118319 353.98379517 288.35617065 C348.81229466 297.79613219 343.47205893 307.12001433 338.0078125 316.39453125 C334.20955438 322.86371061 330.55983076 329.39690698 327 336 C322.32288432 344.67463051 317.42030764 353.1945879 312.421875 361.6875 C307.99769311 369.22893914 303.72297963 376.84431233 299.5 384.5 C294.09128123 394.30211788 288.54691293 404.01154238 282.8762207 413.66430664 C279.0296086 420.21514309 275.25626059 426.80099421 271.57470703 433.44604492 C269.09807848 437.90192152 269.09807848 437.90192152 268 439 C266.56668493 439.10159761 265.12840051 439.13397163 263.69149685 439.1386652 C262.75566076 439.14414057 261.81982468 439.14961594 260.85562992 439.15525723 C259.2962805 439.156723 259.2962805 439.156723 257.70542908 439.15821838 C256.06654221 439.16561287 256.06654221 439.16561287 254.39454651 439.17315674 C250.69133675 439.1886346 246.98814423 439.19692097 243.28491211 439.20532227 C240.60148901 439.21503011 237.91807008 439.22513083 235.23465061 439.23572445 C228.7537604 439.26043783 222.27286468 439.28000775 215.7919522 439.29780969 C208.29980153 439.31860925 200.80768284 439.34575715 193.31555176 439.3729248 C173.5228859 439.44154131 153.73019075 439.50148572 133.9375 439.5625 C89.738125 439.706875 45.53875 439.85125 0 440 C0 294.8 0 149.6 0 0 Z " fill="#019BDB" transform="translate(0,0)"/>
<path d="M0 0 C2.87414802 -0.09422755 5.73203506 -0.03628175 8.6061945 0.03351974 C10.20443381 0.02828451 11.80266306 0.01777313 13.40083748 0.00244975 C17.78735238 -0.02436779 22.17034733 0.0235763 26.55641353 0.08378649 C31.28775715 0.13562443 36.01890337 0.1180707 40.75045109 0.1089592 C48.94614467 0.1026677 57.14069163 0.14030579 65.33609676 0.20781326 C77.1850589 0.30535239 89.03346678 0.33659167 100.88278688 0.35166916 C120.10731506 0.37793082 139.33123213 0.45778396 158.5554285 0.57130051 C177.22955105 0.68145425 195.90350759 0.76639233 214.57788944 0.81739426 C216.30460129 0.82212328 216.30460129 0.82212328 218.0661962 0.82694784 C223.84115221 0.84260832 229.61610941 0.85777281 235.39106739 0.87269068 C283.29792067 0.99708534 331.2041106 1.20843729 379.11036015 1.47657394 C379.6536446 2.56781067 380.19692905 3.65904739 380.75667667 4.7833519 C381.47975233 6.23327896 382.20287386 7.68318315 382.92603397 9.13306808 C383.28288525 9.85014183 383.63973652 10.56721558 384.00740147 11.30601883 C386.80759363 16.91673449 389.75107218 22.43330805 392.79786015 27.91407394 C397.18436852 35.87727376 401.43944276 43.89846085 405.61036015 51.97657394 C410.17863272 60.82021141 414.865761 69.58629911 419.6611414 78.30860519 C423.75610038 85.77651724 427.69677954 93.31859443 431.61499882 100.88038254 C434.98986407 107.37577855 438.45679372 113.81354448 441.98536015 120.22657394 C446.48732954 128.41304987 450.83119453 136.67157586 455.11036015 144.97657394 C459.72003426 153.91979254 464.42218495 162.79797412 469.27686405 171.61036301 C472.45458019 177.39621453 475.56979023 183.212336 478.64942265 189.05079269 C479.04742069 189.80506042 479.44541874 190.55932816 479.85547733 191.33645248 C481.83896364 195.09778513 483.81830018 198.86124445 485.79297733 202.62720871 C486.53151481 204.0301586 487.27011879 205.43307349 488.00879765 206.83594894 C488.33345005 207.45817841 488.65810246 208.08040787 488.99259281 208.72149277 C489.62891514 209.92784347 490.28033168 211.12638574 490.94851243 212.31538641 C492.11036015 214.47657394 492.11036015 214.47657394 493.23040164 217.00336206 C495.77134379 222.30217866 495.77134379 222.30217866 500.51251006 225.39549375 C503.56080089 225.74207741 506.47049876 225.76186137 509.53769779 225.67911911 C510.69438611 225.68766336 511.85107442 225.69620761 513.0428139 225.70501077 C516.246016 225.71862151 519.4451554 225.68744983 522.64787698 225.63723016 C526.10383336 225.59399176 529.55960484 225.60866272 533.01575565 225.6162529 C539.0009559 225.62149337 544.98506498 225.59015513 550.96999073 225.53387451 C559.62296017 225.45255736 568.27540268 225.42655578 576.9287128 225.4139946 C590.96823933 225.39211517 605.00718443 225.32558563 619.0463953 225.23096848 C632.68308495 225.13915975 646.3196158 225.06849966 659.95655155 225.02589035 C661.23054335 225.02187039 661.23054335 225.02187039 662.53027236 225.01776922 C669.17270384 224.99697465 675.81513878 224.97740553 682.45757508 224.95822358 C715.00903714 224.86390814 747.55904348 224.6627233 780.11036015 224.47657394 C780.11036015 303.67657394 780.11036015 382.87657394 780.11036015 464.47657394 C778.79036015 464.14657394 777.47036015 463.81657394 776.11036015 463.47657394 C777.10036015 461.49657394 778.09036015 459.51657394 779.11036015 457.47657394 C686.05036015 457.47657394 592.99036015 457.47657394 497.11036015 457.47657394 C497.11036015 381.24657394 497.11036015 305.01657394 497.11036015 226.47657394 C288.88036015 226.47657394 80.65036015 226.47657394 -133.88963985 226.47657394 C-133.88963985 302.70657394 -133.88963985 378.93657394 -133.88963985 457.47657394 C-221.66963985 457.47657394 -309.44963985 457.47657394 -399.88963985 457.47657394 C-398.40463985 460.94157394 -398.40463985 460.94157394 -396.88963985 464.47657394 C-397.87963985 464.80657394 -398.86963985 465.13657394 -399.88963985 465.47657394 C-401.8160632 463.5501506 -401.01536496 460.66087288 -401.02338326 458.0967803 C-401.02115254 457.17043862 -401.01892182 456.24409694 -401.0166235 455.2896843 C-401.01818349 454.31356642 -401.01974348 453.33744855 -401.02135074 452.33175135 C-401.02536529 449.03430743 -401.02216934 445.73690889 -401.01903439 442.43946457 C-401.02038823 440.08628945 -401.02216806 437.73311454 -401.02434444 435.37994003 C-401.02892084 428.96897428 -401.02712837 422.55802454 -401.02396536 416.14705849 C-401.0212986 410.13173209 -401.02342419 404.116406 -401.02489255 398.10107952 C-401.02774745 385.46099292 -401.02446017 372.82091357 -401.01909219 360.18082815 C-401.01462414 349.32351453 -401.01540007 338.46621159 -401.02001095 327.60889816 C-401.02535654 315.01555311 -401.02747276 302.42221442 -401.02439868 289.82886839 C-401.02281448 283.15709799 -401.02264348 276.48533401 -401.02593517 269.8135643 C-401.02881261 263.54281311 -401.02684056 257.27208222 -401.02104092 251.00133324 C-401.01971263 248.69257071 -401.02010859 246.3838065 -401.02230358 244.07504463 C-401.0250124 240.93782747 -401.02163726 237.80067647 -401.0166235 234.66346359 C-401.01885422 233.73712191 -401.02108494 232.81078023 -401.02338326 231.85636759 C-401.00378966 225.59072375 -401.00378966 225.59072375 -399.88963985 224.47657394 C-398.46153982 224.3749925 -397.02845462 224.34260284 -395.59675407 224.33790874 C-394.66469641 224.3324343 -393.73263874 224.32695986 -392.7723369 224.32131952 C-391.73636655 224.32034141 -390.70039619 224.31936331 -389.6330328 224.31835556 C-388.54186989 224.31341758 -387.45070699 224.30847961 -386.32647854 224.30339199 C-382.63977027 224.2879323 -378.95307952 224.27963357 -375.26634884 224.27125168 C-372.63569132 224.2616798 -370.00503537 224.25167014 -367.37438107 224.2412529 C-361.69512764 224.21945883 -356.01587187 224.20132511 -350.3365984 224.18564796 C-342.12523138 224.16297594 -333.91389039 224.13482947 -325.70254541 224.10532869 C-312.38153953 224.05761998 -299.06052304 224.01436472 -285.73949337 223.9738884 C-272.79612558 223.93455013 -259.85276725 223.89312793 -246.90941525 223.8488884 C-246.11215015 223.84616413 -245.31488505 223.84343985 -244.49346041 223.84063303 C-240.4939839 223.82695382 -236.49450753 223.8132335 -232.49503124 223.79949272 C-199.29325358 223.68547645 -166.09145631 223.57867853 -132.88963985 223.47657394 C-130.96866891 220.11807749 -129.04824786 216.7592669 -127.1279211 213.40040207 C-126.58752193 212.45561996 -126.04712276 211.51083786 -125.49034786 210.53742599 C-121.58461258 203.70499109 -117.71860112 196.85235025 -113.88963985 189.97657394 C-107.15254579 177.91442993 -100.30607384 165.91726611 -93.43065548 153.93360519 C-86.92131743 142.58354446 -80.48147275 131.19749672 -74.10106564 119.77442551 C-69.92078774 112.29756181 -65.68786568 104.85272254 -61.42430782 97.42310715 C-57.57117678 90.69760739 -53.78802479 83.93456885 -50.01463985 77.16407394 C-45.4180293 68.92139624 -40.73383437 60.73820508 -35.95213985 52.60157394 C-30.18634685 42.78969624 -24.6153046 32.87894773 -19.12621212 22.91065598 C-18.54411983 21.85475266 -17.96202755 20.79884933 -17.3622961 19.71094894 C-16.8596423 18.7953923 -16.35698849 17.87983566 -15.83910275 16.93653488 C-14.87411861 15.22385422 -14.87411861 15.22385422 -13.88963985 13.47657394 C-13.30709821 12.0350575 -13.30709821 12.0350575 -12.71278805 10.56441951 C-9.67117833 3.94373787 -7.49215656 0.74511 0 0 Z " fill="#FEFEFE" transform="translate(400.88963985443115,214.5234260559082)"/>
<path d="M0 0 C207.9 0 415.8 0 630 0 C630 75.24 630 150.48 630 228 C423.42 227.67 216.84 227.34 4 227 C4 227.66 4 228.32 4 229 C2.68 229 1.36 229 0 229 C0 153.43 0 77.86 0 0 Z " fill="#009BDB" transform="translate(268,441)"/>
<path d="M0 0 C207.9 0 415.8 0 630 0 C620.40530303 19.18939394 620.40530303 19.18939394 615.5 28.625 C614.94030518 29.70257568 614.38061035 30.78015137 613.80395508 31.89038086 C610.2861449 38.62882881 606.62238692 45.24041109 602.796875 51.80859375 C600.89130782 55.19304676 599.14694991 58.63928276 597.4375 62.125 C592.24336741 72.69914656 586.59673927 83.03597825 581.01017761 93.40597534 C578.692497 97.70894715 576.38435173 102.01691704 574.08203125 106.328125 C568.46875107 116.83565224 562.84057243 127.33179099 557.0625 137.75 C553.97705207 143.31788395 550.99272182 148.91076907 548.1875 154.625 C544.26273236 162.61732828 540.0324279 170.4360918 535.79492188 178.26611328 C530.71594818 187.65464213 525.6921865 197.07167611 520.6875 206.5 C520.30925079 207.21220703 519.93100159 207.92441406 519.54129028 208.65820312 C515.71175878 215.79872747 515.71175878 215.79872747 512 223 C463.06490873 223.54958477 414.13012979 223.97235537 365.19255828 224.22556791 C359.41238407 224.25558411 353.63221593 224.28664792 347.85205078 224.31835938 C346.12599335 224.32780255 346.12599335 224.32780255 344.36506607 224.3374365 C325.74351514 224.44181127 307.12374616 224.63100351 288.50325166 224.85166711 C269.39026558 225.07627432 250.27821124 225.20944445 231.16395962 225.25812387 C219.37244082 225.29102484 207.58595808 225.39482395 195.79599036 225.58999521 C187.70593048 225.71707859 179.61846491 225.75515957 171.52747987 225.72403306 C166.86013218 225.70868319 162.20156135 225.73179747 157.53578568 225.8609314 C130.3030821 226.578213 130.3030821 226.578213 123.15435839 220.63371658 C118.45453051 214.93961722 115.55978496 208.71007853 113.05512929 201.80805969 C111.66722862 198.11438161 109.84059994 194.93480711 107.80859375 191.55859375 C106.68245018 189.51957798 105.5586876 187.47924509 104.4375 185.4375 C103.17513179 183.15328504 101.91209968 180.86943687 100.6484375 178.5859375 C100.03581055 177.47831055 99.42318359 176.37068359 98.79199219 175.22949219 C91.0039497 161.19403905 83.01652565 147.27018762 75.04092407 133.34082031 C69.64101562 123.90725504 64.30888975 114.43713778 59.01025391 104.94628906 C54.87258708 97.54079911 50.68326719 90.16654363 46.46557617 82.80639648 C42.80976706 76.42463194 39.17937646 70.0289068 35.5625 63.625 C35.02085205 62.6661792 34.4792041 61.7073584 33.92114258 60.71948242 C31.21674709 55.93045711 28.5152612 51.1398059 25.81640625 46.34765625 C24.75283546 44.46080711 23.68903325 42.57408839 22.625 40.6875 C22.10268799 39.76114746 21.58037598 38.83479492 21.04223633 37.88037109 C18.01794443 32.52959514 14.96483818 27.19656106 11.8828125 21.87890625 C11.53775665 21.28313278 11.19270081 20.68735931 10.83718872 20.0735321 C9.14886014 17.15953976 7.45703175 14.24771222 5.76025391 11.33862305 C5.15358887 10.29359619 4.54692383 9.24856934 3.921875 8.171875 C3.11121582 6.7811377 3.11121582 6.7811377 2.28417969 5.36230469 C1 3 1 3 0 0 Z " fill="#FEFEFE" transform="translate(268,672)"/>
<path d="M0 0 C1.34279022 0.00067978 1.34279022 0.00067978 2.71270752 0.00137329 C3.6514975 -0.00198532 4.59028748 -0.00534393 5.55752563 -0.00880432 C8.69536639 -0.01837752 11.83315379 -0.02026309 14.9710083 -0.02133179 C17.17259747 -0.02454891 19.37418642 -0.02791332 21.57577515 -0.03141785 C26.22493989 -0.03743102 30.87408603 -0.0392564 35.52325439 -0.03866577 C40.22446636 -0.03858562 44.92557861 -0.04533924 49.62677002 -0.05917358 C94.59879787 -0.18946993 94.59879787 -0.18946993 115.8069458 1.02163696 C116.49937252 1.05978327 117.19179924 1.09792957 117.90520859 1.13723183 C147.29721511 2.81814678 175.64247531 11.12034422 199.7913208 28.14663696 C200.6266333 28.73187134 201.4619458 29.31710571 202.3225708 29.92007446 C206.40782316 32.8689362 206.40782316 32.8689362 207.7913208 34.14663696 C207.7913208 34.80663696 207.7913208 35.46663696 207.7913208 36.14663696 C209.1113208 36.47663696 210.4313208 36.80663696 211.7913208 37.14663696 C211.7913208 37.80663696 211.7913208 38.46663696 211.7913208 39.14663696 C212.36624268 39.38898071 212.94116455 39.63132446 213.5335083 39.88101196 C224.26982342 45.89929241 233.86168715 62.14976189 238.7913208 73.14663696 C239.43460011 74.37714219 240.08055755 75.6062501 240.7288208 76.83413696 C250.54415253 96.54208651 254.34328316 117.64997289 254.12750244 139.47525024 C254.10389951 142.01317362 254.10697576 144.55003728 254.11358643 147.08804321 C254.08199948 165.59565213 252.80472118 183.83770302 245.7913208 201.14663696 C245.53995361 201.84401978 245.28858643 202.54140259 245.02960205 203.25991821 C239.83136718 217.25516594 232.35663755 229.74602367 222.7913208 241.14663696 C222.11198486 241.97808228 221.43264893 242.80952759 220.73272705 243.66616821 C215.97629934 249.28392086 210.64116976 253.71000188 204.7913208 258.14663696 C203.92120361 258.85562134 203.05108643 259.56460571 202.15460205 260.29507446 C158.94645188 294.64464991 99.18887348 290.64579423 47.18182373 290.35263062 C41.02564686 290.32135741 34.86943002 290.30811791 28.7131958 290.29312134 C16.73913652 290.26141489 4.76524863 290.21055215 -7.2086792 290.14663696 C-7.23154427 253.34676823 -7.24917676 216.54690057 -7.25974453 179.74702618 C-7.26099531 175.40716661 -7.26228962 171.06730706 -7.26361084 166.72744751 C-7.26387315 165.86342215 -7.26413546 164.99939679 -7.26440572 164.10918885 C-7.26876269 150.10013268 -7.27665038 136.09108059 -7.285832 122.08202685 C-7.2951678 107.71843465 -7.30073465 93.35484461 -7.30276769 78.9912495 C-7.30414307 70.12081831 -7.30849448 61.25039866 -7.31659567 52.37997102 C-7.32186222 46.30566894 -7.3234837 40.23137287 -7.32218058 34.15706868 C-7.32153705 30.64715002 -7.3225563 27.1372516 -7.32788467 23.6273365 C-7.33360606 19.83103305 -7.33168025 16.03475641 -7.32893372 12.2384491 C-7.33184656 11.11687788 -7.3347594 9.99530666 -7.33776051 8.83974844 C-7.33576946 7.83105607 -7.33377841 6.8223637 -7.33172703 5.7831049 C-7.33229661 4.46680437 -7.33229661 4.46680437 -7.3328777 3.12391192 C-7.05739345 -1.26187459 -3.60798896 0.01902014 0 0 Z " fill="#221A17" transform="translate(110.20867919921875,1217.8533630371094)"/>
<path d="M0 0 C93.72 0 187.44 0 284 0 C284 144.54 284 289.08 284 438 C280.49055429 434.49055429 278.08329432 431.18154685 275.5625 427 C274.67222919 425.5497632 273.78022076 424.10059203 272.88671875 422.65234375 C272.41669434 421.89034668 271.94666992 421.12834961 271.46240234 420.34326172 C268.98901566 416.38006215 266.43119854 412.47260232 263.875 408.5625 C258.83335733 400.83882726 253.84106231 393.0849827 248.875 385.3125 C242.61690494 375.51963721 236.32616403 365.74899262 230 356 C222.9741298 345.17271883 215.99880699 334.31424865 209.04858398 323.43823242 C204.85235252 316.87761932 200.62934028 310.33555963 196.375 303.8125 C191.22304506 295.91230407 186.14707254 287.96584628 181.09155273 280.00366211 C174.76916043 270.0508508 168.36118139 260.15482276 161.921875 250.27734375 C155.63264788 240.62562594 149.40288675 230.93948431 143.23120117 221.2121582 C139.35901306 215.11610364 135.44593147 209.04854752 131.5 203 C126.30362195 195.03428049 121.18257054 187.02293888 116.08544922 178.9934082 C112.19446088 172.86718274 108.27105183 166.76344894 104.31933594 160.67626953 C100.22613442 154.36480732 96.17525051 148.02658635 92.125 141.6875 C87.27949151 134.10552384 82.41437546 126.53752709 77.5 119 C71.8880734 110.39258913 66.34492861 101.74219304 60.81176758 93.08398438 C55.24035122 84.36807652 49.63090294 75.67755418 44 67 C38.40110637 58.37177405 32.82324586 49.73094835 27.28637695 41.06274414 C21.09785137 31.37522723 14.8885759 21.70170135 8.625 12.0625 C7.98852539 11.07942871 7.35205078 10.09635742 6.69628906 9.08349609 C5.81408691 7.72925537 5.81408691 7.72925537 4.9140625 6.34765625 C4.3979541 5.55367432 3.8818457 4.75969238 3.35009766 3.94165039 C2.00958691 1.89167064 2.00958691 1.89167064 0 0 Z " fill="#FEFEFE" transform="translate(897,0)"/>
<path d="M0 0 C88.11 0 176.22 0 267 0 C265.23293893 4.41765268 263.17428409 8.31561059 260.75 12.375 C260.31743896 13.10468994 259.88487793 13.83437988 259.43920898 14.58618164 C253.92203221 23.86186877 248.29248948 33.07019135 242.66357422 42.27832031 C241.18165821 44.70279928 239.70164965 47.12842504 238.22265625 49.5546875 C233.49851671 57.30033551 228.75048153 65.03097572 223.99047852 72.75463867 C218.66775434 81.39171196 213.34735525 90.0284541 208.14868164 98.7409668 C204.94708577 104.1037346 201.69044959 109.43208553 198.4296875 114.7590332 C194.67314695 120.89630712 190.92796471 127.04041584 187.1875 133.1875 C186.59735107 134.1571167 186.00720215 135.1267334 185.39916992 136.12573242 C182.45057742 140.97079057 179.50346974 145.8167445 176.55859375 150.6640625 C170.36269526 160.85848201 164.1371062 171.03359699 157.875 181.1875 C152.60094481 189.74106089 147.38013879 198.32322239 142.22387695 206.94824219 C135.73689629 217.79630173 129.13228381 228.57111333 122.46679688 239.31030273 C114.93840797 251.44001523 107.52315345 263.63659294 100.12486267 275.84584045 C96.69472611 281.50585347 93.25484197 287.15990448 89.8125 292.8125 C89.24668213 293.74175293 88.68086426 294.67100586 88.09790039 295.62841797 C86.96587031 297.48749789 85.83379055 299.34654757 84.70166016 301.20556641 C81.80040563 305.96995081 78.90026793 310.73501498 76 315.5 C74.83333849 317.41666981 73.66667183 319.33333648 72.5 321.25 C71.9225 322.19875 71.345 323.1475 70.75 324.125 C64.33333333 334.66666667 57.91666667 345.20833333 51.5 355.75 C50.92241943 356.69891113 50.34483887 357.64782227 49.74975586 358.62548828 C48.58400628 360.54059022 47.41815354 362.45562937 46.25219727 364.37060547 C43.32064668 369.18570084 40.39094208 374.00190161 37.46484375 378.8203125 C30.77999111 389.82402541 24.05557252 400.80150267 17.26171875 411.73828125 C14.93930789 415.4780927 12.63196681 419.22679462 10.33203125 422.98046875 C9.43303101 424.44395752 9.43303101 424.44395752 8.51586914 425.93701172 C7.35727949 427.82362432 6.20142248 429.71191838 5.04858398 431.60205078 C4.53239502 432.44106934 4.01620605 433.28008789 3.484375 434.14453125 C3.02772461 434.89065674 2.57107422 435.63678223 2.10058594 436.40551758 C1.5557959 437.19478638 1.5557959 437.19478638 1 438 C0.67 438 0.34 438 0 438 C0 293.46 0 148.92 0 0 Z " fill="#FEFEFE" transform="translate(0,0)"/>
<path d="M0 0 C33 0 66 0 100 0 C103.3 9.9 106.6 19.8 110 30 C111.98 34.95 111.98 34.95 114 40 C114.7966441 42.28848991 115.57081593 44.58499647 116.31640625 46.890625 C118.25194333 52.80236979 120.27069282 58.6805847 122.33984375 64.546875 C122.63226959 65.37731323 122.92469543 66.20775146 123.22598267 67.06335449 C124.42861268 70.47662262 125.63279054 73.88933376 126.84057617 77.30078125 C130.42037037 87.41940713 133.88282234 97.55516011 137.04478455 107.81317139 C138.49059282 112.48820634 140.12299006 117.00988905 142.01660156 121.52490234 C143.23700658 124.59651755 144.26445607 127.71174475 145.296875 130.8515625 C147.86788096 138.62992219 150.51777894 146.37997376 153.1875 154.125 C153.66647485 155.51617665 154.14539625 156.9073717 154.62426758 158.29858398 C155.84500459 161.84441815 157.0666702 165.38993162 158.28857422 168.93536377 C159.19571906 171.56799834 160.10216575 174.20087299 161.0085907 176.83375549 C166.0045629 191.35918022 166.0045629 191.35918022 171.05078125 205.8671875 C173.94682545 214.14159951 176.81981021 222.42061257 179.578125 230.7421875 C179.79980347 231.41051102 180.02148193 232.07883453 180.24987793 232.76741028 C181.33824743 236.05157265 182.42231231 239.33707305 183.5 242.62475586 C185.49730785 248.67544761 187.59027485 254.63242422 190.00878906 260.52709961 C191.90416971 265.25574753 193.56847781 270.06709212 195.25 274.875 C195.79527344 276.40253906 195.79527344 276.40253906 196.3515625 277.9609375 C196.86589844 279.43046875 196.86589844 279.43046875 197.390625 280.9296875 C197.70032227 281.80866699 198.01001953 282.68764648 198.32910156 283.59326172 C199 286 199 286 199 290 C100.33 290 1.66 290 -100 290 C-98.07082127 283.56940423 -96.10515496 277.2054395 -93.92578125 270.86328125 C-93.64115524 270.03028 -93.35652924 269.19727875 -93.0632782 268.33903503 C-92.14824517 265.66287114 -91.23045717 262.98766213 -90.3125 260.3125 C-89.67242505 258.4427429 -89.03245178 256.57295099 -88.39257812 254.703125 C-84.99105446 244.76999891 -81.56714378 234.84507767 -78.10302734 224.93359375 C-74.83850532 215.57450834 -71.63876022 206.19336471 -68.4375 196.8125 C-67.99333237 195.5109346 -67.99333237 195.5109346 -67.54019165 194.18307495 C-64.04920337 183.95141234 -60.56318078 173.71805952 -57.078125 163.484375 C-45.61333345 129.82124477 -45.61333345 129.82124477 -40.75 115.75 C-40.40348389 114.74590088 -40.05696777 113.74180176 -39.69995117 112.70727539 C-38.08808734 108.05752711 -36.43141294 103.4312891 -34.68847656 98.82910156 C-30.54261223 87.81462796 -26.8261663 76.62814171 -23 65.5 C-22.77248047 64.83839874 -22.54496094 64.17679749 -22.31054688 63.49514771 C-19.28345244 54.68882723 -16.27606996 45.87594052 -13.28125 37.05859375 C-12.33231937 34.26802375 -11.38321537 31.47751277 -10.43408203 28.68701172 C-9.51516788 25.98214731 -8.59934913 23.27624765 -7.68359375 20.5703125 C-7.11212325 18.88927393 -6.54051515 17.20828212 -5.96875 15.52734375 C-5.71291138 14.76820175 -5.45707275 14.00905975 -5.19348145 13.22691345 C-4.94851929 12.50870926 -4.70355713 11.79050507 -4.45117188 11.05053711 C-4.24230347 10.43423935 -4.03343506 9.81794159 -3.8182373 9.18296814 C-2.65471498 6.07881712 -1.30586106 3.04700914 0 0 Z " fill="#211A17" transform="translate(472,1218)"/>
<path d="M0 0 C58.74 0 117.48 0 178 0 C178 20.79 178 41.58 178 63 C176.06775535 64.93224465 173.16389611 64.12018438 170.59291077 64.12442017 C169.67078293 64.12082489 168.74865509 64.11722961 167.79858398 64.11352539 C166.34995972 64.11374443 166.34995972 64.11374443 164.87207031 64.1139679 C161.66338901 64.11326834 158.45476497 64.10547397 155.24609375 64.09765625 C153.02791882 64.09579222 150.80974348 64.09436825 148.59156799 64.09336853 C142.74059929 64.08954216 136.88965523 64.07971086 131.03869629 64.06866455 C124.02532714 64.05665902 117.01194978 64.05204876 109.9985733 64.04621124 C99.33236504 64.03649916 88.6662109 64.01734343 78 64 C78 80.17 78 96.34 78 113 C84.70183594 112.98839844 91.40367187 112.97679687 98.30859375 112.96484375 C102.54231867 112.95973709 106.77603982 112.95492333 111.00976562 112.95117188 C117.736743 112.94518305 124.46370683 112.93808172 131.19067383 112.92456055 C136.61118277 112.91373294 142.0316772 112.90772344 147.45219612 112.90512276 C149.52514945 112.90326828 151.59810194 112.89964723 153.67104912 112.89426994 C156.56383893 112.8870612 159.45656796 112.88600899 162.34936523 112.88647461 C163.64840034 112.8810817 163.64840034 112.8810817 164.97367859 112.87557983 C170.88594784 112.88594784 170.88594784 112.88594784 172 114 C172.09396057 115.93306498 172.11743517 117.86958838 172.11352539 119.80493164 C172.11340454 121.06358032 172.11328369 122.322229 172.11315918 123.61901855 C172.10812272 124.96606495 172.10295608 126.31311087 172.09765625 127.66015625 C172.09664917 128.87795776 172.09564209 130.09575928 172.09460449 131.35046387 C172.08935295 135.92115209 172.07539185 140.49182694 172.0625 145.0625 C172.041875 155.271875 172.02125 165.48125 172 176 C140.65 176 109.3 176 77 176 C77 191.84 77 207.68 77 224 C87.68503906 223.98259766 87.68503906 223.98259766 98.5859375 223.96484375 C103.08854257 223.95973651 107.59114409 223.9549227 112.09375 223.95117188 C119.24642678 223.94518531 126.39909081 223.93808995 133.55175781 223.92456055 C139.31591558 223.9137253 145.08005968 223.9077218 150.84422684 223.90512276 C153.04753459 223.90326966 155.25084156 223.89965125 157.45414352 223.89426994 C160.53113189 223.88705108 163.60806317 223.88600942 166.68505859 223.88647461 C168.06285744 223.8810817 168.06285744 223.8810817 169.4684906 223.87557983 C170.30424118 223.8769545 171.13999176 223.87832916 172.00106812 223.87974548 C173.0933928 223.87836279 173.0933928 223.87836279 174.20778465 223.87695217 C176 224 176 224 178 225 C178.02312684 233.32728947 178.04091683 241.65456563 178.05181217 249.98187923 C178.05704026 253.84820118 178.06413654 257.71450121 178.07543945 261.58081055 C178.086271 265.30903401 178.0922774 269.03723634 178.09487724 272.76547432 C178.09673101 274.19089656 178.10035071 275.61631759 178.10573006 277.04173088 C178.11294393 279.03163408 178.11340808 281.02155834 178.11352539 283.01147461 C178.115746 284.14620712 178.11796661 285.28093964 178.12025452 286.45005798 C178 289 178 289 177 290 C174.72176255 290.09709071 172.44044577 290.12186604 170.16014099 290.12025452 C169.43825089 290.12111053 168.71636078 290.12196655 167.97259521 290.12284851 C165.5278482 290.12451356 163.08316856 290.11896418 160.63842773 290.11352539 C158.86612735 290.1132193 157.09382685 290.11335214 155.32152653 290.11389065 C150.5583476 290.1141172 145.7951936 290.10830475 141.03202057 290.10128021 C136.56891294 290.09560194 132.1058115 290.095318 127.6427002 290.09460449 C114.57429681 290.08934889 101.50589809 290.07538785 88.4375 290.0625 C44.6609375 290.0315625 44.6609375 290.0315625 0 290 C0 194.3 0 98.6 0 0 Z " fill="#221A17" transform="translate(928,1218)"/>
<path d="M0 0 C58.41 0 116.82 0 177 0 C177 21.12 177 42.24 177 64 C144 64 111 64 77 64 C77 80.17 77 96.34 77 113 C87.03535156 112.98259766 87.03535156 112.98259766 97.2734375 112.96484375 C101.50260513 112.95973643 105.73176898 112.95492261 109.9609375 112.95117188 C116.67904445 112.94518562 123.39713783 112.93809109 130.11523438 112.92456055 C135.52926406 112.91372424 140.94327919 112.90772158 146.35731888 112.90512276 C148.42665461 112.90326986 150.4959895 112.89965181 152.56531906 112.89426994 C155.45551041 112.88704968 158.34564099 112.88600948 161.23583984 112.88647461 C162.52948204 112.8810817 162.52948204 112.8810817 163.84925842 112.87557983 C169.77189568 112.88594784 169.77189568 112.88594784 172 114 C172 134.46 172 154.92 172 176 C140.65 176 109.3 176 77 176 C77 191.84 77 207.68 77 224 C84.13496094 223.98839844 91.26992188 223.97679687 98.62109375 223.96484375 C103.12825611 223.95973713 107.63541493 223.95492337 112.14257812 223.95117188 C119.30412533 223.9451829 126.46565981 223.93808116 133.62719727 223.92456055 C139.39783429 223.91373347 145.16845768 223.90772355 150.93910408 223.90512276 C153.14602943 223.90326818 155.352954 223.89964696 157.55987358 223.89426994 C160.63946041 223.8870619 163.71899014 223.88600896 166.79858398 223.88647461 C167.72071182 223.88287933 168.64283966 223.87928406 169.59291077 223.87557983 C175.88594784 223.88594784 175.88594784 223.88594784 177 225 C177 246.45 177 267.9 177 290 C118.59 290 60.18 290 0 290 C0 194.3 0 98.6 0 0 Z " fill="#211917" transform="translate(699,1218)"/>
<path d="M0 0 C32 0 32 0 42 2 C43.12148437 2.22300781 44.24296875 2.44601562 45.3984375 2.67578125 C53.02661981 4.30753153 59.94154806 6.68481735 67 10 C67.77988281 10.35707031 68.55976563 10.71414063 69.36328125 11.08203125 C83.55401884 18.2152084 92.3089882 30.16580724 97.3125 44.875 C103.65615508 64.86068226 104.70286268 87.69878372 99 108 C98.69835937 109.14597656 98.39671875 110.29195312 98.0859375 111.47265625 C95.37117179 121.08469257 91.16972838 129.16277747 85 137 C84.34 137 83.68 137 83 137 C82.67 137.99 82.34 138.98 82 140 C58.77069332 159.80357054 28.94213608 159 0 159 C0 106.53 0 54.06 0 0 Z " fill="#FDFDFD" transform="translate(182,1283)"/>
<path d="M0 0 C36.96 0 73.92 0 112 0 C120.14925373 26.7761194 120.14925373 26.7761194 122.9375 37.25 C123.23978516 38.36117188 123.54207031 39.47234375 123.85351562 40.6171875 C126 48.61904762 126 48.61904762 126 52 C79.47 52 32.94 52 -15 52 C-12.22053131 41.43801897 -9.50811055 31.16713933 -6.19921875 20.8125 C-4.63266297 15.83217934 -3.20825612 10.81956791 -1.796875 5.79296875 C-1.24217594 3.84880291 -0.63933339 1.91800017 0 0 Z " fill="#FDFDFD" transform="translate(466,1456)"/>
<path d="M0 0 C2.01739592 3.54383265 2.93542376 7.25549988 3.875 11.1875 C4.04717041 11.88875 4.21934082 12.59 4.39672852 13.3125 C5.28663956 16.95793824 6.14354624 20.60980764 6.97265625 24.26953125 C9.75432228 36.50801417 13.404162 48.30725122 17.4375 60.1875 C19.81325694 67.23259055 21.83179672 74.35762231 23.83740234 81.515625 C25.33862455 86.82659834 27.02316523 91.98350456 29.00390625 97.13671875 C30.62787459 101.80483168 31.84957677 106.58371278 33.13378906 111.35449219 C34.58054503 116.66676411 36.27223927 121.8101221 38.30078125 126.93359375 C39 129 39 129 39 132 C13.59 132 -11.82 132 -38 132 C-36.72820693 125.0051381 -35.53529274 118.97972349 -33.1875 112.4375 C-31.12578183 106.48177258 -29.25286942 100.52596626 -27.625 94.4375 C-25.67218504 87.17649859 -23.445902 80.02643749 -21.125 72.875 C-17.72573158 62.39539427 -14.57569285 51.86096016 -11.53125 41.2734375 C-10.33429169 37.1178212 -9.06651408 32.9940933 -7.75 28.875 C-6.0352327 23.40233839 -4.86990489 17.87401082 -3.7265625 12.2578125 C-2.78479499 8.03504853 -1.47189597 4.06523648 0 0 Z " fill="#FCFCFC" transform="translate(522,1267)"/>
<path d="M0 0 C0.66 0.33 1.32 0.66 2 1 C3.54257539 1.09344828 5.08917363 1.1237359 6.6345768 1.12304783 C8.10880118 1.1260344 8.10880118 1.1260344 9.61280787 1.12908131 C10.70033866 1.12616847 11.78786945 1.12325563 12.90835571 1.12025452 C14.63213631 1.12153615 14.63213631 1.12153615 16.39074075 1.12284368 C19.59007924 1.12421027 22.78937762 1.1210688 25.98871136 1.11606562 C29.43519785 1.11175979 32.88168236 1.11320764 36.32817078 1.1139679 C42.30262321 1.11449305 48.27706474 1.11134717 54.25151443 1.10573006 C62.88963732 1.09761386 71.52775492 1.09499971 80.1658812 1.09374207 C94.17960087 1.09155174 108.19331473 1.08489216 122.20703125 1.07543945 C135.82259085 1.06626485 149.43814887 1.05918425 163.05371094 1.05493164 C164.3119414 1.05453756 164.3119414 1.05453756 165.59559067 1.05413551 C169.80357341 1.0528305 174.01155616 1.05156679 178.21953893 1.05032361 C213.14636343 1.03995158 248.07318118 1.02233378 283 1 C283 1.33 283 1.66 283 2 C282.41501557 2.00135653 281.83003113 2.00271306 281.2273199 2.00411069 C246.58108013 2.08470459 211.93488336 2.17563599 177.28870712 2.28005161 C173.13168062 2.29257096 168.97465387 2.30500366 164.81762695 2.31738281 C163.57620691 2.3210818 163.57620691 2.3210818 162.30970768 2.32485552 C148.89693628 2.36461401 135.48415642 2.39734765 122.07136037 2.42749982 C108.31567945 2.45857861 94.56003454 2.4971726 80.80439407 2.54279006 C72.31170255 2.57071585 63.81903746 2.59273109 55.32631228 2.60726251 C49.50800233 2.61777858 43.68974347 2.63557319 37.87147196 2.65916704 C34.51114994 2.67257627 31.15096354 2.68162746 27.79060555 2.68421364 C24.15255446 2.68751633 20.51475503 2.70293962 16.87675476 2.7215271 C15.80770061 2.71959237 14.73864645 2.71765763 13.63719672 2.71566427 C12.666323 2.72312976 11.69544928 2.73059525 10.69515514 2.73828697 C9.85483405 2.74056529 9.01451296 2.74284362 8.1487276 2.74519098 C5.70331878 2.87072365 5.70331878 2.87072365 3 5 C2.69359412 8.03160542 2.58457702 10.86094461 2.60127258 13.89627075 C2.59462576 14.82902954 2.58797893 15.76178833 2.58113068 16.72281253 C2.56238685 19.86756344 2.56511361 23.01193767 2.56762695 26.15673828 C2.55861674 28.40331566 2.54829137 30.64988809 2.53674316 32.89645386 C2.50906004 39.01185569 2.49987333 45.12716454 2.49388909 51.24262094 C2.48453477 57.62751387 2.45833389 64.01233653 2.43388367 70.39718628 C2.39511009 81.11911468 2.36679103 91.84101251 2.34643555 102.56298828 C2.32543838 113.60793758 2.29817438 124.65284199 2.26245117 135.69775391 C2.26025235 136.37826345 2.25805352 137.058773 2.25578807 137.75990404 C2.24471873 141.17373136 2.23352586 144.58755826 2.22227156 148.00138497 C2.12902715 176.33421681 2.05767867 204.66707499 2 233 C1.67 233 1.34 233 1 233 C1 157.1 1 81.2 1 3 C-207.23 3 -415.46 3 -630 3 C-630 2.67 -630 2.34 -630 2 C-422.1 2 -214.2 2 0 2 C0 1.34 0 0.68 0 0 Z " fill="#CFE5F7" transform="translate(897,438)"/>
<path d="M0 0 C-13.66390253 4.54607283 -27.86307692 2.83927876 -42 2 C-42 1.67 -42 1.34 -42 1 C-41.20416504 0.97494385 -40.40833008 0.9498877 -39.58837891 0.92407227 C-35.93379832 0.80703014 -32.27940825 0.68480038 -28.625 0.5625 C-27.37332031 0.52318359 -26.12164062 0.48386719 -24.83203125 0.44335938 C-18.53252289 0.2289782 -12.3154065 -0.07039585 -6.06396484 -0.89868164 C-3.84073565 -1.00781816 -2.12033646 -0.64400504 0 0 Z " fill="#545050" transform="translate(224,1441)"/>
<path d="M0 0 C10 11.92307692 10 11.92307692 10 16 C6.125 14.25 6.125 14.25 5 12 C3.35 12 1.7 12 0 12 C0.33 11.01 0.66 10.02 1 9 C1.66 9 2.32 9 3 9 C3 8.34 3 7.68 3 7 C2.34 6.67 1.68 6.34 1 6 C-0.1875 4.0625 -0.1875 4.0625 -1 2 C-0.67 1.34 -0.34 0.68 0 0 Z " fill="#099EDD" transform="translate(1017,185)"/>
<path d="M0 0 C0.125 2.375 0.125 2.375 0 5 C-0.66 5.66 -1.32 6.32 -2 7 C-4.33746522 6.69699525 -6.67085177 6.36141955 -9 6 C-11.32158065 6.34659295 -11.32158065 6.34659295 -13 7 C-13 6.34 -13 5.68 -13 5 C-12.37351563 4.72285156 -11.74703125 4.44570312 -11.1015625 4.16015625 C-10.28429687 3.79792969 -9.46703125 3.43570312 -8.625 3.0625 C-7.81289062 2.70285156 -7.00078125 2.34320312 -6.1640625 1.97265625 C-1.7751004 0 -1.7751004 0 0 0 Z " fill="#312C2A" transform="translate(254,1430)"/>
<path d="M0 0 C2 2 2 2 2.125 4.625 C2.08375 5.40875 2.0425 6.1925 2 7 C1.01 7.33 0.02 7.66 -1 8 C-0.67 10.31 -0.34 12.62 0 15 C-1.98 15.99 -3.96 16.98 -6 18 C-4.41039668 11.76559832 -2.72399099 5.83712355 0 0 Z " fill="#3B3634" transform="translate(437,1319)"/>
<path d="M0 0 C0.66 0 1.32 0 2 0 C0.41467191 4.55564061 -1.99003081 8.31475769 -4.625 12.3125 C-5.04523437 12.95767578 -5.46546875 13.60285156 -5.8984375 14.26757812 C-6.92838241 15.84760724 -7.96365628 17.42416047 -9 19 C-10.04528847 15.76591956 -10.06464549 15.15699619 -8.6875 11.8125 C-7 9 -7 9 -5 8 C-4.34786708 5.97536745 -4.34786708 5.97536745 -4 4 C-3.01 4 -2.02 4 -1 4 C-0.67 2.68 -0.34 1.36 0 0 Z " fill="#119FDB" transform="translate(1013,929)"/>
<path d="M0 0 C2.31 0.66 4.62 1.32 7 2 C7.66 5.3 8.32 8.6 9 12 C5.03126566 10.67708855 4.70094963 9.08850262 2.8125 5.4375 C2.28269531 4.42558594 1.75289062 3.41367187 1.20703125 2.37109375 C0.80871094 1.58863281 0.41039062 0.80617188 0 0 Z M8 1 C8.99 1.495 8.99 1.495 10 2 C9.34 2.66 8.68 3.32 8 4 C8 3.01 8 2.02 8 1 Z " fill="#129FDB" transform="translate(206,1010)"/>
<path d="M0 0 C6.6 0 13.2 0 20 0 C20.66 1.32 21.32 2.64 22 4 C21.34 4.66 20.68 5.32 20 6 C20 5.34 20 4.68 20 4 C18.02 4.33 16.04 4.66 14 5 C14.33 4.01 14.66 3.02 15 2 C10.05 1.67 5.1 1.34 0 1 C0 0.67 0 0.34 0 0 Z " fill="#27211E" transform="translate(186,1218)"/>
<path d="M0 0 C0.66 0.33 1.32 0.66 2 1 C2.33 1.99 2.66 2.98 3 4 C3.33 2.68 3.66 1.36 4 0 C4.144375 0.94875 4.28875 1.8975 4.4375 2.875 C4.82935399 5.8934494 4.82935399 5.8934494 6 8 C6.33 8.66 6.66 9.32 7 10 C6.01 10.99 5.02 11.98 4 13 C3.13633178 11.21289414 2.28431406 9.4201535 1.4375 7.625 C0.96183594 6.62726563 0.48617187 5.62953125 -0.00390625 4.6015625 C-0.49697266 3.31378906 -0.49697266 3.31378906 -1 2 C-0.67 1.34 -0.34 0.68 0 0 Z " fill="#109FDF" transform="translate(881,403)"/>
<path d="M0 0 C2.3828125 -0.29296875 2.3828125 -0.29296875 5.125 -0.1875 C6.03507812 -0.16042969 6.94515625 -0.13335938 7.8828125 -0.10546875 C8.58148438 -0.07066406 9.28015625 -0.03585937 10 0 C7.66302971 2.33697029 5.50902101 3.27094054 2.5 4.625 C1.5203125 5.07101562 0.540625 5.51703125 -0.46875 5.9765625 C-3 7 -3 7 -5 7 C-5 6.34 -5 5.68 -5 5 C-4.01 4.34 -3.02 3.68 -2 3 C-1.34 2.01 -0.68 1.02 0 0 Z " fill="#3D3736" transform="translate(284,1489)"/>
<path d="M0 0 C2.83333333 5.66666667 2.83333333 5.66666667 3 9 C1.0625 11.3125 1.0625 11.3125 -1 13 C-1 12.34 -1 11.68 -1 11 C-1.66 11 -2.32 11 -3 11 C-2.01 7.37 -1.02 3.74 0 0 Z " fill="#2F2927" transform="translate(419,1370)"/>
<path d="M0 0 C2.375 0.625 2.375 0.625 5 2 C6.3125 5.125 6.3125 5.125 7 8 C6.01 8 5.02 8 4 8 C3.67 7.67 3.34 7.34 3 7 C1.67405895 6.63837971 0.34061543 6.30271961 -1 6 C-1.042721 4.33388095 -1.04063832 2.66617115 -1 1 C-0.67 0.67 -0.34 0.34 0 0 Z " fill="#27211F" transform="translate(339,1280)"/>
<path d="M0 0 C2 3 2 3 3 6 C0.7629196 9.3556206 0.57482962 9.19278041 -3 10 C-3.33 10.66 -3.66 11.32 -4 12 C-4.66 11.67 -5.32 11.34 -6 11 C-4.02 7.37 -2.04 3.74 0 0 Z " fill="#149FDC" transform="translate(837,786)"/>
<path d="M0 0 C0.99 0 1.98 0 3 0 C3 1.65 3 3.3 3 5 C1.68 5 0.36 5 -1 5 C-1.268125 5.928125 -1.53625 6.85625 -1.8125 7.8125 C-2.91148371 10.76240366 -3.62418561 12.05615186 -6 14 C-6.66 13.67 -7.32 13.34 -8 13 C-6.74210557 10.82482863 -5.46994813 8.6606219 -4.1875 6.5 C-3.83107422 5.87996094 -3.47464844 5.25992187 -3.10742188 4.62109375 C-2.15368233 3.0286112 -1.08302607 1.50753916 0 0 Z " fill="#16A0DE" transform="translate(44,366)"/>
<path d="M0 0 C0.33 0 0.66 0 1 0 C1.125 5.75 1.125 5.75 0 8 C-0.99 8.33 -1.98 8.66 -3 9 C-3.33 10.65 -3.66 12.3 -4 14 C-5.32 13.67 -6.64 13.34 -8 13 C-6.69181533 10.83061859 -5.37874076 8.6644848 -4.0625 6.5 C-3.68931641 5.87996094 -3.31613281 5.25992187 -2.93164062 4.62109375 C-1.9818016 3.06370003 -0.99386689 1.5296725 0 0 Z " fill="#14A0DB" transform="translate(110,258)"/>
<path d="M0 0 C0.66 0.33 1.32 0.66 2 1 C1.01 5.62 0.02 10.24 -1 15 C-3 11 -3 11 -3 7 C-2.34 7 -1.68 7 -1 7 C-1 6.34 -1 5.68 -1 5 C-1.66 4.67 -2.32 4.34 -3 4 C-2.01 2.68 -1.02 1.36 0 0 Z " fill="#363130" transform="translate(516,1282)"/>
<path d="M0 0 C2.72957339 2.35735884 3.88893396 4.58133526 5 8 C5 8.99 5 9.98 5 11 C5.20625 11.825 5.4125 12.65 5.625 13.5 C6 16 6 16 4 19 C2.35318751 12.69239743 0.73690113 6.48472993 0 0 Z " fill="#312C2B" transform="translate(585,1479)"/>
<path d="M0 0 C1 3 1 3 -0.25 6.625 C-2 10 -2 10 -5 11 C-5.33 11.99 -5.66 12.98 -6 14 C-6.66 13.67 -7.32 13.34 -8 13 C-5.36 8.71 -2.72 4.42 0 0 Z " fill="#18A0DE" transform="translate(101,273)"/>
<path d="M0 0 C1.4540625 0.0309375 1.4540625 0.0309375 2.9375 0.0625 C1.2875 3.3625 -0.3625 6.6625 -2.0625 10.0625 C-2.7225 9.7325 -3.3825 9.4025 -4.0625 9.0625 C-4.16015625 2.91015625 -4.16015625 2.91015625 -4.0625 1.0625 C-3.0625 0.0625 -3.0625 0.0625 0 0 Z " fill="#109FDE" transform="translate(358.0625,274.9375)"/>
<path d="M0 0 C0.99 1.32 1.98 2.64 3 4 C2.1875 6.75 2.1875 6.75 1 9 C-0.98 9 -2.96 9 -5 9 C-3.35 6.03 -1.7 3.06 0 0 Z " fill="#0F9FDD" transform="translate(133,220)"/>
<path d="M0 0 C1 2 1 2 0.125 4.875 C-0.24625 5.90625 -0.6175 6.9375 -1 8 C-1.34976758 9.32911682 -1.69096017 10.66082739 -2 12 C-3.65 12.33 -5.3 12.66 -7 13 C-5.35821735 8.22390502 -2.73453298 4.20617096 0 0 Z " fill="#13A1DA" transform="translate(187,132)"/>
<path d="M0 0 C2.475 0.99 2.475 0.99 5 2 C5 2.66 5 3.32 5 4 C6.32 3.67 7.64 3.34 9 3 C9.33 4.32 9.66 5.64 10 7 C9.01 7 8.02 7 7 7 C6.34 7.66 5.68 8.32 5 9 C3.35 6.03 1.7 3.06 0 0 Z " fill="#12A0DE" transform="translate(6,682)"/>
<path d="M0 0 C2.94194821 2.73905523 5.33889284 5.30865076 7 9 C6.1875 11.3125 6.1875 11.3125 5 13 C3.4375 11.1875 3.4375 11.1875 2 9 C2.33 8.01 2.66 7.02 3 6 C2.01 5.67 1.02 5.34 0 5 C0 3.35 0 1.7 0 0 Z " fill="#17A1DC" transform="translate(1121,347)"/>
<path d="M0 0 C0.66 0.66 1.32 1.32 2 2 C0.35 4.97 -1.3 7.94 -3 11 C-3.99 10.01 -4.98 9.02 -6 8 C-4.73058503 4.08597051 -3.48832306 2.20927127 0 0 Z " fill="#109FDE" transform="translate(295,387)"/>
<path d="M0 0 C1.21065165 3.63195496 0.62784815 5.06531629 -0.4375 8.6875 C-0.72496094 9.68136719 -1.01242187 10.67523437 -1.30859375 11.69921875 C-1.53675781 12.45847656 -1.76492188 13.21773437 -2 14 C-4.40914637 10.38628044 -4 8.22199845 -4 4 C-2 1.8125 -2 1.8125 0 0 Z " fill="#2E2927" transform="translate(486,1385)"/>
<path d="M0 0 C0.66 0 1.32 0 2 0 C2.28875 0.78375 2.5775 1.5675 2.875 2.375 C3.84912254 5.09671632 3.84912254 5.09671632 6 7 C6 10.10551666 5.4606285 11.35261084 4 14 C3.32968281 12.0429132 2.66385317 10.08428887 2 8.125 C1.62875 7.03445313 1.2575 5.94390625 0.875 4.8203125 C0 2 0 2 0 0 Z " fill="#413C3B" transform="translate(529,1295)"/>
<path d="M0 0 C1.5625 1.75 1.5625 1.75 3 4 C2.6875 6.25 2.6875 6.25 2 8 C0.23537317 4.91190305 0 3.76687864 0 0 Z M-4 2 C-2.35 3.32 -0.7 4.64 1 6 C0.34 7.32 -0.32 8.64 -1 10 C-2.98 6.535 -2.98 6.535 -5 3 C-4.67 2.67 -4.34 2.34 -4 2 Z " fill="#149EDC" transform="translate(75,784)"/>
<path d="M0 0 C1.921875 0.33984375 1.921875 0.33984375 4 1 C5.25 3.5625 5.25 3.5625 6 6 C5.34 6 4.68 6 4 6 C4 7.65 4 9.3 4 11 C3.34 10.67 2.68 10.34 2 10 C1.3671875 7.71484375 1.3671875 7.71484375 0.875 4.9375 C0.70742187 4.01839844 0.53984375 3.09929687 0.3671875 2.15234375 C0.24601562 1.44207031 0.12484375 0.73179687 0 0 Z " fill="#0F9EDD" transform="translate(1146,389)"/>
<path d="M0 0 C0.99 0 1.98 0 3 0 C1.43358249 4.30764815 -0.68336156 8.06171464 -3 12 C-3.33 12 -3.66 12 -4 12 C-4.37096774 6.43548387 -4.37096774 6.43548387 -2.5625 4.3125 C-1.7890625 3.6628125 -1.7890625 3.6628125 -1 3 C-0.67 2.01 -0.34 1.02 0 0 Z " fill="#15A1DC" transform="translate(327,329)"/>
<path d="M0 0 C0.103125 0.598125 0.20625 1.19625 0.3125 1.8125 C1.08876455 4.28243264 2.07088921 5.32251235 4 7 C2.7934375 7.6496875 2.7934375 7.6496875 1.5625 8.3125 C-1.27846354 9.80474002 -1.27846354 9.80474002 -2 13 C-2.66 13 -3.32 13 -4 13 C-3.52140759 11.39566191 -3.04210442 9.79153584 -2.5625 8.1875 C-2.29566406 7.29417969 -2.02882813 6.40085937 -1.75390625 5.48046875 C-1.19612127 3.64526945 -0.60655425 1.81966274 0 0 Z " fill="#3E3837" transform="translate(387,1463)"/>
<path d="M0 0 C0.82810826 3.31243305 1.09278428 5.65976579 1 9 C1.99 9.33 2.98 9.66 4 10 C3.01 11.485 3.01 11.485 2 13 C1.67 12.34 1.34 11.68 1 11 C-0.32 11 -1.64 11 -3 11 C-2.01 7.37 -1.02 3.74 0 0 Z " fill="#332E2C" transform="translate(460,1251)"/>
<path d="M0 0 C2.97 0.33 5.94 0.66 9 1 C9 1.66 9 2.32 9 3 C8.071875 3.185625 8.071875 3.185625 7.125 3.375 C4.80879168 3.87197356 4.80879168 3.87197356 3 6 C1.5 4.6875 1.5 4.6875 0 3 C0 2.01 0 1.02 0 0 Z " fill="#302A29" transform="translate(260,1225)"/>
<path d="M0 0 C4.8 3.32307692 4.8 3.32307692 5.8125 6.75 C5.874375 7.4925 5.93625 8.235 6 9 C5.01 9.495 5.01 9.495 4 10 C2.35 7.03 0.7 4.06 -1 1 C-0.67 0.67 -0.34 0.34 0 0 Z " fill="#15A0DD" transform="translate(191,983)"/>
<path d="M0 0 C0.99 0 1.98 0 3 0 C3.2475 0.804375 3.495 1.60875 3.75 2.4375 C4.72238859 5.171081 4.72238859 5.171081 7.125 5.8125 C8.053125 5.9053125 8.053125 5.9053125 9 6 C9 6.66 9 7.32 9 8 C8.34 8 7.68 8 7 8 C6.67 8.99 6.34 9.98 6 11 C4.02 7.37 2.04 3.74 0 0 Z " fill="#17A0DD" transform="translate(91,821)"/>
<path d="M0 0 C3.04049801 3.64859761 4.96518762 7.7444533 7 12 C3.68611612 10.89537204 3.25213431 10.33213682 1.375 7.5625 C0.94960938 6.94503906 0.52421875 6.32757812 0.0859375 5.69140625 C-1 4 -1 4 -2 2 C-1.34 2 -0.68 2 0 2 C0 1.34 0 0.68 0 0 Z " fill="#1EA3DF" transform="translate(325,773)"/>
<path d="M0 0 C1 3 1 3 -0.21484375 5.91796875 C-0.78332031 6.99691406 -1.35179687 8.07585938 -1.9375 9.1875 C-2.50339844 10.27417969 -3.06929687 11.36085938 -3.65234375 12.48046875 C-4.09707031 13.31191406 -4.54179688 14.14335938 -5 15 C-5.66 15 -6.32 15 -7 15 C-5.45454854 9.52067211 -2.84456788 4.88570819 0 0 Z " fill="#21A2DE" transform="translate(885,696)"/>
<path d="M0 0 C0.66 0.66 1.32 1.32 2 2 C0.02 4.97 -1.96 7.94 -4 11 C-5 8 -5 8 -3.6875 4.375 C-2 1 -2 1 0 0 Z " fill="#139FDD" transform="translate(952,1024)"/>
<path d="M0 0 C0.66 0.33 1.32 0.66 2 1 C2.625 4.0625 2.625 4.0625 3 7 C0.69 7.33 -1.62 7.66 -4 8 C-2.68 5.36 -1.36 2.72 0 0 Z " fill="#159FDD" transform="translate(804,848)"/>
<path d="M0 0 C0.33 0.66 0.66 1.32 1 2 C0.06421005 4.35981813 -0.93347808 6.69631264 -2 9 C-2.66 9 -3.32 9 -4 9 C-4.33 9.99 -4.66 10.98 -5 12 C-5.66 11.67 -6.32 11.34 -7 11 C-4.69 7.37 -2.38 3.74 0 0 Z " fill="#1FA3DE" transform="translate(237,50)"/>
<path d="M0 0 C0 0.33 0 0.66 0 1 C-1.74784829 1.36463732 -3.49840502 1.7163078 -5.25 2.0625 C-6.71179688 2.35833984 -6.71179688 2.35833984 -8.203125 2.66015625 C-10.868119 2.98397535 -12.48871723 2.85503199 -15 2 C-10.19321542 -2.00565382 -5.77107298 -0.93009526 0 0 Z " fill="#2A2524" transform="translate(261,1501)"/>
<path d="M0 0 C1.32 0.33 2.64 0.66 4 1 C1.525 5.455 1.525 5.455 -1 10 C-1.66 9.01 -2.32 8.02 -3 7 C-2.01 6.67 -1.02 6.34 0 6 C0 4.02 0 2.04 0 0 Z " fill="#13A0DB" transform="translate(1124,753)"/>
<path d="M0 0 C2.79872437 2.52788007 4.45773019 4.20411134 5 8 C4.01 8.33 3.02 8.66 2 9 C0.59306362 6.37371875 -0.49157276 3.94887797 -1 1 C-0.67 0.67 -0.34 0.34 0 0 Z " fill="#15A0DD" transform="translate(964,103)"/>
<path d="M0 0 C3.465 1.98 3.465 1.98 7 4 C6.01 5.485 6.01 5.485 5 7 C3.68 6.67 2.36 6.34 1 6 C0.67 4.02 0.34 2.04 0 0 Z " fill="#36302E" transform="translate(536,1318)"/>
<path d="M0 0 C1.32 0 2.64 0 4 0 C3.6875 2.375 3.6875 2.375 3 5 C2.01 5.66 1.02 6.32 0 7 C-1.125 2.25 -1.125 2.25 0 0 Z " fill="#109FDD" transform="translate(897,1105)"/>
<path d="M0 0 C0.33 0.99 0.66 1.98 1 3 C1.66 3 2.32 3 3 3 C3 4.98 3 6.96 3 9 C2.34 9 1.68 9 1 9 C1 7.68 1 6.36 1 5 C-0.32 5.33 -1.64 5.66 -3 6 C-2.01 4.02 -1.02 2.04 0 0 Z " fill="#109FDC" transform="translate(852,758)"/>
<path d="M0 0 C2.25245881 2.68841859 3.88213958 4.64641875 5 8 C3.02 8 1.04 8 -1 8 C-0.814375 7.38125 -0.62875 6.7625 -0.4375 6.125 C0.23686176 3.95839822 0.23686176 3.95839822 -1 2 C-0.67 1.34 -0.34 0.68 0 0 Z " fill="#14A0DE" transform="translate(306,740)"/>
<path d="M0 0 C2.25245881 2.68841859 3.88213958 4.64641875 5 8 C2 8 2 8 0.25 6.8125 C-1 5 -1 5 -0.6875 2.3125 C-0.460625 1.549375 -0.23375 0.78625 0 0 Z " fill="#1BA2DD" transform="translate(276,687)"/>
<path d="M0 0 C0.33 0 0.66 0 1 0 C1.33 2.64 1.66 5.28 2 8 C1.01 8.33 0.02 8.66 -1 9 C-1 9.66 -1 10.32 -1 11 C-1.66 11 -2.32 11 -3 11 C-2.01 7.37 -1.02 3.74 0 0 Z " fill="#36302F" transform="translate(380,1483)"/>
<path d="M0 0 C0.66 0.33 1.32 0.66 2 1 C2.625 4.0625 2.625 4.0625 3 7 C1.35 7.66 -0.3 8.32 -2 9 C-1.34 6.03 -0.68 3.06 0 0 Z " fill="#393533" transform="translate(402,1419)"/>
<path d="M0 0 C0.66 0.66 1.32 1.32 2 2 C1.01 3.485 1.01 3.485 0 5 C-0.38499891 6.65549531 -0.72793135 8.3222433 -1 10 C-2.54571278 7.68143083 -3.79618552 5.49361571 -5 3 C-3.35 2.01 -1.7 1.02 0 0 Z " fill="#2D2624" transform="translate(278,1312)"/>
<path d="M0 0 C0.66 0.66 1.32 1.32 2 2 C0.02 4.97 0.02 4.97 -2 8 C-2.99 6.68 -3.98 5.36 -5 4 C-4.67 3.34 -4.34 2.68 -4 2 C-2.68 2 -1.36 2 0 2 C0 1.34 0 0.68 0 0 Z " fill="#15A1D9" transform="translate(937,1047)"/>
<path d="M0 0 C0.33 0 0.66 0 1 0 C1.6875 2.75 1.6875 2.75 2 6 C0.5625 8.375 0.5625 8.375 -1 10 C-1.99 9.34 -2.98 8.68 -4 8 C-2.68 5.36 -1.36 2.72 0 0 Z " fill="#1EA5DF" transform="translate(843,774)"/>
<path d="M0 0 C1.4606285 2.64738916 2 3.89448334 2 7 C0.02 7.33 -1.96 7.66 -4 8 C-2.87548273 5.0280615 -1.77706209 2.66559313 0 0 Z " fill="#1DA0DC" transform="translate(4,432)"/>
<path d="M0 0 C1.32 0.33 2.64 0.66 4 1 C3.01 2.98 2.02 4.96 1 7 C0.01 6.01 -0.98 5.02 -2 4 C-1.34 2.68 -0.68 1.36 0 0 Z " fill="#109FDC" transform="translate(285,401)"/>
<path d="M0 0 C-1.875 4.75 -1.875 4.75 -3 7 C-3.66 7 -4.32 7 -5 7 C-5.6875 5.1875 -5.6875 5.1875 -6 3 C-4.04862098 0.26806937 -3.44686768 0 0 0 Z " fill="#12A0DD" transform="translate(312,361)"/>
<path d="M0 0 C0.33 2.31 0.66 4.62 1 7 C0.01 7.495 0.01 7.495 -1 8 C-1.99 5.69 -2.98 3.38 -4 1 C-2 0 -2 0 0 0 Z " fill="#119EDA" transform="translate(819,282)"/>
<path d="M0 0 C0.33 0.99 0.66 1.98 1 3 C1.66 3.33 2.32 3.66 3 4 C2.01 5.98 1.02 7.96 0 10 C-0.99 9.34 -1.98 8.68 -3 8 C-2.34 8 -1.68 8 -1 8 C-1.20625 7.236875 -1.4125 6.47375 -1.625 5.6875 C-2 3 -2 3 0 0 Z " fill="#119EDE" transform="translate(364,261)"/>
<path d="M0 0 C2.34058637 2.12780579 3.70700306 4.11562221 5 7 C1.89448334 7 0.64738916 6.4606285 -2 5 C-1.34 3.35 -0.68 1.7 0 0 Z " fill="#14A0DE" transform="translate(948,78)"/>
<path d="M0 0 C0.33 0.66 0.66 1.32 1 2 C1.99 2 2.98 2 4 2 C2.92598892 4.91517292 2.22189824 6.77810176 0 9 C0 7.02 0 5.04 0 3 C-0.66 3 -1.32 3 -2 3 C-1 1 -1 1 0 0 Z " fill="#109EDB" transform="translate(1058,854)"/>
<path d="M0 0 C2.74277578 3.19990508 4.6302836 6.00499382 6 10 C4.68 9.34 3.36 8.68 2 8 C2 7.34 2 6.68 2 6 C1.34 5.67 0.68 5.34 0 5 C0 3.35 0 1.7 0 0 Z " fill="#1FA4DD" transform="translate(1169,421)"/>
<path d="M0 0 C0.33 0.99 0.66 1.98 1 3 C-0.65 4.65 -2.3 6.3 -4 8 C-4.66 7.67 -5.32 7.34 -6 7 C-4.6875 4.0625 -4.6875 4.0625 -3 1 C-2.01 0.67 -1.02 0.34 0 0 Z " fill="#F0F7F9" transform="translate(284,414)"/>
<path d="M0 0 C2.72426311 2.35277269 3.8141763 4.62496331 5 8 C0.25 6.125 0.25 6.125 -2 5 C-1.34 3.35 -0.68 1.7 0 0 Z " fill="#15A0DD" transform="translate(1078,280)"/>
<path d="M0 0 C0.99 0.66 1.98 1.32 3 2 C2.67 3.32 2.34 4.64 2 6 C0.02 6.33 -1.96 6.66 -4 7 C-2.68 4.69 -1.36 2.38 0 0 Z " fill="#18A1DB" transform="translate(179,145)"/>
<path d="M0 0 C0 0.99 0 1.98 0 3 C-1.8125 3.6875 -1.8125 3.6875 -4 4 C-5.75 2.5625 -5.75 2.5625 -7 1 C-3.375 -1.125 -3.375 -1.125 0 0 Z " fill="#36312F" transform="translate(255,1291)"/>
<path d="M0 0 C1.32 0.33 2.64 0.66 4 1 C2.02 3.97 2.02 3.97 0 7 C-0.66 6.34 -1.32 5.68 -2 5 C-1.34 3.35 -0.68 1.7 0 0 Z " fill="#19A2DD" transform="translate(917,1076)"/>
<path d="M0 0 C1.98 0.66 3.96 1.32 6 2 C6.33 3.65 6.66 5.3 7 7 C5.1875 6.875 5.1875 6.875 3 6 C1.25 2.9375 1.25 2.9375 0 0 Z " fill="#14A0DD" transform="translate(228,1046)"/>
<path d="M0 0 C0.33 0.99 0.66 1.98 1 3 C3.00016466 4.20882096 3.00016466 4.20882096 5 5 C4.67 5.99 4.34 6.98 4 8 C2.68 7.01 1.36 6.02 0 5 C-0.33 5.66 -0.66 6.32 -1 7 C-1.04254356 5.00045254 -1.04080783 2.99958364 -1 1 C-0.67 0.67 -0.34 0.34 0 0 Z " fill="#0EA0DF" transform="translate(1018,912)"/>
<path d="M0 0 C2.72426311 2.35277269 3.8141763 4.62496331 5 8 C3.125 7.75 3.125 7.75 1 7 C-0.3125 5.125 -0.3125 5.125 -1 3 C-0.67 2.01 -0.34 1.02 0 0 Z " fill="#18A2DC" transform="translate(1060,252)"/>
<path d="M0 0 C0.66 0.99 1.32 1.98 2 3 C1 6 1 6 -1 7 C-1 7.99 -1 8.98 -1 10 C-1.99 9.67 -2.98 9.34 -4 9 C-2.80100302 5.9168649 -1.52299523 2.93720508 0 0 Z " fill="#19A1DC" transform="translate(259,13)"/>
<path d="M0 0 C0.33 0 0.66 0 1 0 C1.390625 5.95703125 1.390625 5.95703125 1 8 C-0.32 8.99 -1.64 9.98 -3 11 C-2.01 7.37 -1.02 3.74 0 0 Z " fill="#484443" transform="translate(393,1445)"/>
<path d="M0 0 C2.45823172 3.68734758 3.01242616 6.69699971 4 11 C3.34 10.67 2.68 10.34 2 10 C2 9.34 2 8.68 2 8 C1.01 8 0.02 8 -1 8 C-0.67 5.36 -0.34 2.72 0 0 Z " fill="#433F3E" transform="translate(642,1423)"/>
<path d="M0 0 C2.12508244 3.18762365 2.5020163 5.26512223 3 9 C1.68 9 0.36 9 -1 9 C-0.67 6.03 -0.34 3.06 0 0 Z " fill="#443F3F" transform="translate(620,1359)"/>
<path d="M0 0 C1.98 0.66 3.96 1.32 6 2 C6 4.31 6 6.62 6 9 C3.59927045 6.11912454 1.52708963 3.43595166 0 0 Z " fill="#16A0DD" transform="translate(45,746)"/>
<path d="M0 0 C1.32 0 2.64 0 4 0 C4 0.66 4 1.32 4 2 C3.34 2 2.68 2 2 2 C2 3.65 2 5.3 2 7 C1.67 6.34 1.34 5.68 1 5 C0.01 4.67 -0.98 4.34 -2 4 C-1.34 2.68 -0.68 1.36 0 0 Z " fill="#11A0DD" transform="translate(897,673)"/>
<path d="M0 0 C0.99 0 1.98 0 3 0 C1.7508258 3.45925163 0.32472205 6.14693203 -2 9 C-2.33 7.68 -2.66 6.36 -3 5 C-2.34 5 -1.68 5 -1 5 C-0.67 3.35 -0.34 1.7 0 0 Z " fill="#139FDD" transform="translate(277,417)"/>
<path d="M0 0 C2.96865509 2.54456151 4.3619751 5.48994665 6 9 C4.68 8.34 3.36 7.68 2 7 C2 6.34 2 5.68 2 5 C1.34 5 0.68 5 0 5 C0 3.35 0 1.7 0 0 Z " fill="#1AA1DA" transform="translate(1134,367)"/>
<path d="M0 0 C0.33 0 0.66 0 1 0 C1 1.65 1 3.3 1 5 C-0.98 5.99 -0.98 5.99 -3 7 C-3 7.66 -3 8.32 -3 9 C-3.66 8.67 -4.32 8.34 -5 8 C-4.19185349 6.66402348 -3.37836819 5.331275 -2.5625 4 C-2.11003906 3.2575 -1.65757812 2.515 -1.19140625 1.75 C-0.79824219 1.1725 -0.40507812 0.595 0 0 Z " fill="#13A0D9" transform="translate(145,201)"/>
<path d="M0 0 C0 3 0 3 -1 6 C-1.99 5.67 -2.98 5.34 -4 5 C-4.33 4.01 -4.66 3.02 -5 2 C-3.35 1.34 -1.7 0.68 0 0 Z " fill="#0FA1DE" transform="translate(222,1026)"/>
<path d="M0 0 C1.32 0.66 2.64 1.32 4 2 C3.01 2.33 2.02 2.66 1 3 C0.67 4.65 0.34 6.3 0 8 C-0.66 7.01 -1.32 6.02 -2 5 C-1.125 2.3125 -1.125 2.3125 0 0 Z " fill="#12A0DD" transform="translate(788,878)"/>
<path d="M0 0 C0.66 0 1.32 0 2 0 C2.66 1.65 3.32 3.3 4 5 C3.34 5.66 2.68 6.32 2 7 C0.68 5.35 -0.64 3.7 -2 2 C-1.34 1.34 -0.68 0.68 0 0 Z " fill="#10A1DE" transform="translate(348,816)"/>
<path d="M0 0 C4.75 1.875 4.75 1.875 7 3 C6.67 3.99 6.34 4.98 6 6 C5.01 6 4.02 6 3 6 C2.01 4.02 1.02 2.04 0 0 Z " fill="#15A1E0" transform="translate(78,800)"/>
<path d="M0 0 C0.99 0 1.98 0 3 0 C1.8141763 3.37503669 0.72426311 5.64722731 -2 8 C-2.33 6.68 -2.66 5.36 -3 4 C-2.01 3.67 -1.02 3.34 0 3 C0 2.01 0 1.02 0 0 Z " fill="#119FDC" transform="translate(1153,710)"/>
<path d="M0 0 C2 3 2 3 1.625 5.6875 C1.41875 6.450625 1.2125 7.21375 1 8 C-0.32 7.67 -1.64 7.34 -3 7 C-1.125 2.25 -1.125 2.25 0 0 Z " fill="#159FDD" transform="translate(149,194)"/>
<path d="M0 0 C0.66 0 1.32 0 2 0 C1.5206753 4.31392226 0.2542015 6.16569547 -3 9 C-3.66 8.67 -4.32 8.34 -5 8 C-4.21718695 6.66144944 -3.42348123 5.32926356 -2.625 4 C-2.18414062 3.2575 -1.74328125 2.515 -1.2890625 1.75 C-0.86367187 1.1725 -0.43828125 0.595 0 0 Z " fill="#1CA2DC" transform="translate(158,179)"/>
<path d="M0 0 C4 4.625 4 4.625 4 8 C3.34 8 2.68 8 2 8 C0 5 0 5 -1 2 C-0.67 1.34 -0.34 0.68 0 0 Z " fill="#1CA2DD" transform="translate(990,143)"/>
<path d="M0 0 C0.33 1.32 0.66 2.64 1 4 C1.66 4.33 2.32 4.66 3 5 C0.03 7.475 0.03 7.475 -3 10 C-2.01 6.7 -1.02 3.4 0 0 Z " fill="#484343" transform="translate(397,1434)"/>
<path d="M0 0 C0.33 0.66 0.66 1.32 1 2 C0.0625 4.625 0.0625 4.625 -1 7 C-2.9375 6.625 -2.9375 6.625 -5 6 C-5.33 5.34 -5.66 4.68 -6 4 C-4.35 4 -2.7 4 -1 4 C-0.67 2.68 -0.34 1.36 0 0 Z " fill="#3E3938" transform="translate(495,1358)"/>
<path d="M0 0 C1.9451 2.91765 2.45276317 4.62537285 3 8 C2.01 8.495 2.01 8.495 1 9 C-1.09230769 4.56923077 -1.09230769 4.56923077 -0.625 1.6875 C-0.41875 1.130625 -0.2125 0.57375 0 0 Z " fill="#3B3736" transform="translate(595,1287)"/>
<path d="M0 0 C0.144375 0.61875 0.28875 1.2375 0.4375 1.875 C0.93152225 4.03258322 0.93152225 4.03258322 2 6 C1.01 6.33 0.02 6.66 -1 7 C-1.99 5.02 -2.98 3.04 -4 1 C-2.68 1.33 -1.36 1.66 0 2 C0 1.34 0 0.68 0 0 Z " fill="#169FDD" transform="translate(143,899)"/>
<path d="M0 0 C0.66 1.32 1.32 2.64 2 4 C1.01 4.99 0.02 5.98 -1 7 C-1.99 6.67 -2.98 6.34 -4 6 C-2.68 4.02 -1.36 2.04 0 0 Z " fill="#ECF6FC" transform="translate(1043,886)"/>
<path d="M0 0 C1.875 0.25 1.875 0.25 4 1 C5.25 3.0625 5.25 3.0625 6 5 C5.01 5.33 4.02 5.66 3 6 C2.01 4.02 1.02 2.04 0 0 Z " fill="#109FDA" transform="translate(128,882)"/>
<path d="M0 0 C1.5625 1.8125 1.5625 1.8125 3 4 C2.67 4.99 2.34 5.98 2 7 C1.01 6.67 0.02 6.34 -1 6 C-1.33 5.01 -1.66 4.02 -2 3 C-1.34 3 -0.68 3 0 3 C0 2.01 0 1.02 0 0 Z " fill="#F4F9FA" transform="translate(1026,192)"/>
<path d="M0 0 C0.66 0 1.32 0 2 0 C1.34 2.64 0.68 5.28 0 8 C-0.99 7.67 -1.98 7.34 -3 7 C-2.67 5.68 -2.34 4.36 -2 3 C-1.34 3 -0.68 3 0 3 C0 2.01 0 1.02 0 0 Z " fill="#423E3D" transform="translate(452,1499)"/>
<path d="M0 0 C2.97 0.495 2.97 0.495 6 1 C3.61426621 2.89213369 1.92824652 4.02391783 -1 5 C-0.67 3.35 -0.34 1.7 0 0 Z " fill="#2B2624" transform="translate(297,1483)"/>
<path d="M0 0 C1.9451 2.91765 2.45276317 4.62537285 3 8 C1.68 8 0.36 8 -1 8 C-0.67 5.36 -0.34 2.72 0 0 Z " fill="#3B3735" transform="translate(653,1455)"/>
<path d="M0 0 C1.98 0.495 1.98 0.495 4 1 C3.34 2.32 2.68 3.64 2 5 C1.01 4.67 0.02 4.34 -1 4 C-0.67 2.68 -0.34 1.36 0 0 Z " fill="#312B29" transform="translate(276,1404)"/>
<path d="M0 0 C0.33 1.32 0.66 2.64 1 4 C-0.32 4.33 -1.64 4.66 -3 5 C-3.33 3.68 -3.66 2.36 -4 1 C-2 0 -2 0 0 0 Z " fill="#302A28" transform="translate(556,1369)"/>
<path d="M0 0 C1.98 0.99 1.98 0.99 4 2 C4 3.65 4 5.3 4 7 C3.01 7.495 3.01 7.495 2 8 C1.34 5.36 0.68 2.72 0 0 Z " fill="#0C9DDF" transform="translate(930,1050)"/>
<path d="M0 0 C0.99 0.33 1.98 0.66 3 1 C3.3721042 2.32303717 3.70630173 3.65737935 4 5 C4.66 5.33 5.32 5.66 6 6 C5.01 6.33 4.02 6.66 3 7 C0 2.25 0 2.25 0 0 Z " fill="#129FDB" transform="translate(122,871)"/>
<path d="M0 0 C0.99 1.32 1.98 2.64 3 4 C1.35 4.33 -0.3 4.66 -2 5 C-2.66 4.01 -3.32 3.02 -4 2 C-2.68 1.34 -1.36 0.68 0 0 Z " fill="#13A1DD" transform="translate(1111,331)"/>
<path d="M0 0 C2.0625 0.4375 2.0625 0.4375 4 1 C2.68 2.65 1.36 4.3 0 6 C-0.38218767 4.34385343 -0.71395102 2.67542976 -1 1 C-0.67 0.67 -0.34 0.34 0 0 Z " fill="#16A1DE" transform="translate(348,291)"/>
<path d="M0 0 C4 4.625 4 4.625 4 8 C1.01284458 6.00856305 0.21258505 5.23356015 -1 2 C-0.67 1.34 -0.34 0.68 0 0 Z " fill="#19A2DD" transform="translate(1017,185)"/>
<path d="M0 0 C2.52588702 2.36292656 3.88820837 3.66462511 5 7 C4.01 7.495 4.01 7.495 3 8 C2.34 7.67 1.68 7.34 1 7 C0.59270772 4.67843403 0.25561323 2.3431213 0 0 Z " fill="#21A4DE" transform="translate(937,61)"/>
</svg>
