<?xml version="1.0" encoding="UTF-8"?>
<!DOCTYPE svg PUBLIC "-//W3C//DTD SVG 1.1//EN" "http://www.w3.org/Graphics/SVG/1.1/DTD/svg11.dtd">
<svg xmlns="http://www.w3.org/2000/svg" version="1.1" width="368px" height="190px" style="shape-rendering:geometricPrecision; text-rendering:geometricPrecision; image-rendering:optimizeQuality; fill-rule:evenodd; clip-rule:evenodd" xmlns:xlink="http://www.w3.org/1999/xlink">
<g><path style="opacity:1" fill="#fcbd2b" d="M 312.5,37.5 C 313.326,39.2644 314.659,40.5977 316.5,41.5C 321.855,50.2968 319.855,57.1301 310.5,62C 295.772,63.111 290.439,56.611 294.5,42.5C 295.906,42.0269 296.573,41.0269 296.5,39.5C 301.08,35.4197 306.414,34.753 312.5,37.5 Z"/></g>
<g><path style="opacity:1" fill="#ffd98f" d="M 312.5,37.5 C 314.773,37.9568 316.106,39.2901 316.5,41.5C 314.659,40.5977 313.326,39.2644 312.5,37.5 Z"/></g>
<g><path style="opacity:0.388" fill="#ffe7ac" d="M 296.5,39.5 C 296.573,41.0269 295.906,42.0269 294.5,42.5C 294.427,40.9731 295.094,39.9731 296.5,39.5 Z"/></g>
<g><path style="opacity:1" fill="#1b3b82" d="M 116.5,66.5 C 116.427,68.0269 117.094,69.0269 118.5,69.5C 118.427,71.0269 119.094,72.0269 120.5,72.5C 121.931,73.7804 122.598,75.4471 122.5,77.5C 117.557,78.8268 112.557,79.8268 107.5,80.5C 104.934,80.3444 102.434,80.6777 100,81.5C 92.6009,74.0601 84.1009,72.5601 74.5,77C 71.519,79.4639 69.1856,82.2972 67.5,85.5C 66.8359,84.352 66.6692,83.0187 67,81.5C 59.9213,82.4799 52.7546,82.8132 45.5,82.5C 46.4608,79.5739 47.1274,76.5739 47.5,73.5C 48.8109,70.8646 50.4776,68.5313 52.5,66.5C 54.1667,65.5 55.5,64.1667 56.5,62.5C 58.8694,58.8051 62.2027,56.3051 66.5,55C 85.9257,47.191 102.592,51.0243 116.5,66.5 Z"/></g>
<g><path style="opacity:1" fill="#143980" d="M 180.5,57.5 C 180.402,59.5529 181.069,61.2196 182.5,62.5C 185.006,69.3528 187.34,76.3528 189.5,83.5C 189.5,84.5 189.5,85.5 189.5,86.5C 188.609,85.7387 187.942,84.7387 187.5,83.5C 180.58,81.9384 173.913,82.2717 167.5,84.5C 166.766,83.2921 166.433,81.9587 166.5,80.5C 166.607,78.6214 166.107,78.2881 165,79.5C 164.392,81.1545 163.892,82.8211 163.5,84.5C 160.262,83.2519 156.762,82.5852 153,82.5C 149.397,82.5501 146.064,83.2168 143,84.5C 142.517,83.552 142.351,82.552 142.5,81.5C 143.473,81.0133 144.473,80.5133 145.5,80C 144.667,77.9189 144.667,75.7522 145.5,73.5C 147.901,66.6278 149.901,59.6278 151.5,52.5C 160.857,52.1684 170.19,52.5017 179.5,53.5C 180.246,54.7362 180.579,56.0695 180.5,57.5 Z"/></g>
<g><path style="opacity:1" fill="#0c377e" d="M 203.5,52.5 C 225.5,52.5 247.5,52.5 269.5,52.5C 269.5,59.8333 269.5,67.1667 269.5,74.5C 262.167,74.5 254.833,74.5 247.5,74.5C 247.5,78.8333 247.5,83.1667 247.5,87.5C 246.549,86.0813 246.216,84.4147 246.5,82.5C 240.158,82.3338 233.825,82.5005 227.5,83C 226.915,84.3024 226.249,85.469 225.5,86.5C 225.5,82.5 225.5,78.5 225.5,74.5C 218.167,74.5 210.833,74.5 203.5,74.5C 203.5,67.1667 203.5,59.8333 203.5,52.5 Z"/></g>
<g><path style="opacity:1" fill="#13397f" d="M 279.5,52.5 C 283.167,52.5 286.833,52.5 290.5,52.5C 290.286,58.0816 292.619,62.0816 297.5,64.5C 298.568,65.4345 299.901,65.7678 301.5,65.5C 301.5,72.8333 301.5,80.1667 301.5,87.5C 301.167,87.5 300.833,87.5 300.5,87.5C 300.5,85.8333 300.5,84.1667 300.5,82.5C 294.158,82.6662 287.825,82.4995 281.5,82C 280.956,81.2828 280.289,80.7828 279.5,80.5C 279.5,71.1667 279.5,61.8333 279.5,52.5 Z"/></g>
<g><path style="opacity:0.267" fill="#a8b5d0" d="M 180.5,57.5 C 181.931,58.7804 182.598,60.4471 182.5,62.5C 181.069,61.2196 180.402,59.5529 180.5,57.5 Z"/></g>
<g><path style="opacity:0.725" fill="#8792bb" d="M 56.5,62.5 C 55.5,64.1667 54.1667,65.5 52.5,66.5C 52.8333,64.1667 54.1667,62.8333 56.5,62.5 Z"/></g>
<g><path style="opacity:0.731" fill="#5b77a4" d="M 297.5,64.5 C 299.167,64.5 300.833,64.5 302.5,64.5C 302.5,73.5 302.5,82.5 302.5,91.5C 302.167,91.5 301.833,91.5 301.5,91.5C 301.5,90.1667 301.5,88.8333 301.5,87.5C 301.5,80.1667 301.5,72.8333 301.5,65.5C 299.901,65.7678 298.568,65.4345 297.5,64.5 Z"/></g>
<g><path style="opacity:0.439" fill="#9eaac9" d="M 116.5,66.5 C 117.906,66.9731 118.573,67.9731 118.5,69.5C 117.094,69.0269 116.427,68.0269 116.5,66.5 Z"/></g>
<g><path style="opacity:0.278" fill="#a9b3cf" d="M 118.5,69.5 C 119.906,69.9731 120.573,70.9731 120.5,72.5C 119.094,72.0269 118.427,71.0269 118.5,69.5 Z"/></g>
<g><path style="opacity:0.427" fill="#a0b2c5" d="M 203.5,52.5 C 203.5,59.8333 203.5,67.1667 203.5,74.5C 210.833,74.5 218.167,74.5 225.5,74.5C 225.5,78.5 225.5,82.5 225.5,86.5C 225.5,88.5 225.5,90.5 225.5,92.5C 225.5,95.8333 225.5,99.1667 225.5,102.5C 225.5,104.5 225.5,106.5 225.5,108.5C 225.5,109.833 225.5,111.167 225.5,112.5C 225.5,119.833 225.5,127.167 225.5,134.5C 232.833,134.5 240.167,134.5 247.5,134.5C 247.833,134.5 248.167,134.5 248.5,134.5C 240.684,135.492 232.684,135.826 224.5,135.5C 224.5,115.5 224.5,95.5 224.5,75.5C 217.167,75.5 209.833,75.5 202.5,75.5C 202.175,67.6484 202.508,59.9818 203.5,52.5 Z"/></g>
<g><path style="opacity:0.434" fill="#879db3" d="M 269.5,52.5 C 270.492,59.9818 270.825,67.6484 270.5,75.5C 263.167,75.5 255.833,75.5 248.5,75.5C 248.5,95.1667 248.5,114.833 248.5,134.5C 248.167,134.5 247.833,134.5 247.5,134.5C 247.5,128.5 247.5,122.5 247.5,116.5C 247.5,114.5 247.5,112.5 247.5,110.5C 247.5,108.167 247.5,105.833 247.5,103.5C 247.5,102.167 247.5,100.833 247.5,99.5C 247.5,97.5 247.5,95.5 247.5,93.5C 247.5,91.5 247.5,89.5 247.5,87.5C 247.5,83.1667 247.5,78.8333 247.5,74.5C 254.833,74.5 262.167,74.5 269.5,74.5C 269.5,67.1667 269.5,59.8333 269.5,52.5 Z"/></g>
<g><path style="opacity:1" fill="#7483ae" d="M 47.5,73.5 C 47.1274,76.5739 46.4608,79.5739 45.5,82.5C 44.8333,83.1667 44.1667,83.8333 43.5,84.5C 43.6667,80.3266 45,76.6599 47.5,73.5 Z"/></g>
<g><path style="opacity:0.02" fill="#bdc8db" d="M 122.5,77.5 C 123.043,77.56 123.376,77.8933 123.5,78.5C 118.312,80.1844 112.978,80.851 107.5,80.5C 112.557,79.8268 117.557,78.8268 122.5,77.5 Z"/></g>
<g><path style="opacity:1" fill="#7c89b3" d="M 145.5,73.5 C 144.667,75.7522 144.667,77.9189 145.5,80C 144.473,80.5133 143.473,81.0133 142.5,81.5C 142.733,78.4582 143.733,75.7916 145.5,73.5 Z"/></g>
<g><path style="opacity:0.227" fill="#9dafc3" d="M 166.5,80.5 C 164.5,85.5 162.5,90.5 160.5,95.5C 160.5,94.5 160.5,93.5 160.5,92.5C 161.5,89.8333 162.5,87.1667 163.5,84.5C 163.892,82.8211 164.392,81.1545 165,79.5C 166.107,78.2881 166.607,78.6214 166.5,80.5 Z"/></g>
<g><path style="opacity:1" fill="#0d3f70" d="M 67.5,85.5 C 67.5,85.8333 67.5,86.1667 67.5,86.5C 66.7784,86.9175 66.2784,87.5842 66,88.5C 65.5026,91.146 65.3359,93.8127 65.5,96.5C 64.776,94.7816 64.1094,92.9483 63.5,91C 57.5,90.3333 51.5,90.3333 45.5,91C 44.9152,92.3024 44.2485,93.469 43.5,94.5C 43.5,91.1667 43.5,87.8333 43.5,84.5C 44.1667,83.8333 44.8333,83.1667 45.5,82.5C 52.7546,82.8132 59.9213,82.4799 67,81.5C 66.6692,83.0187 66.8359,84.352 67.5,85.5 Z"/></g>
<g><path style="opacity:1" fill="#144273" d="M 142.5,81.5 C 142.351,82.552 142.517,83.552 143,84.5C 146.064,83.2168 149.397,82.5501 153,82.5C 156.762,82.5852 160.262,83.2519 163.5,84.5C 162.5,87.1667 161.5,89.8333 160.5,92.5C 153.696,91.2337 147.029,89.9003 140.5,88.5C 140.721,85.9327 141.388,83.5994 142.5,81.5 Z"/></g>
<g><path style="opacity:1" fill="#104072" d="M 189.5,86.5 C 189.804,87.1499 190.137,87.8165 190.5,88.5C 184.202,89.4963 177.868,89.8297 171.5,89.5C 171.737,90.791 171.404,91.791 170.5,92.5C 170.34,90.847 169.674,89.5137 168.5,88.5C 168.167,87.1667 167.833,85.8333 167.5,84.5C 173.913,82.2717 180.58,81.9384 187.5,83.5C 187.942,84.7387 188.609,85.7387 189.5,86.5 Z"/></g>
<g><path style="opacity:1" fill="#0c3f70" d="M 247.5,87.5 C 247.5,89.5 247.5,91.5 247.5,93.5C 246.733,92.828 246.066,91.9947 245.5,91C 239.5,90.3333 233.5,90.3333 227.5,91C 226.956,91.7172 226.289,92.2172 225.5,92.5C 225.5,90.5 225.5,88.5 225.5,86.5C 226.249,85.469 226.915,84.3024 227.5,83C 233.825,82.5005 240.158,82.3338 246.5,82.5C 246.216,84.4147 246.549,86.0813 247.5,87.5 Z"/></g>
<g><path style="opacity:1" fill="#0c3f73" d="M 279.5,80.5 C 280.289,80.7828 280.956,81.2828 281.5,82C 287.825,82.4995 294.158,82.6662 300.5,82.5C 300.5,84.1667 300.5,85.8333 300.5,87.5C 294.22,87.2239 287.72,87.5572 281,88.5C 280.722,87.5842 280.222,86.9175 279.5,86.5C 279.5,84.5 279.5,82.5 279.5,80.5 Z"/></g>
<g><path style="opacity:1" fill="#104764" d="M 65.5,96.5 C 65.5569,97.609 65.8902,98.609 66.5,99.5C 59.5361,98.4469 52.5361,98.2803 45.5,99C 44.9558,99.7172 44.2891,100.217 43.5,100.5C 43.5,98.5 43.5,96.5 43.5,94.5C 44.2485,93.469 44.9152,92.3024 45.5,91C 51.5,90.3333 57.5,90.3333 63.5,91C 64.1094,92.9483 64.776,94.7816 65.5,96.5 Z"/></g>
<g><path style="opacity:1" fill="#154966" d="M 140.5,88.5 C 147.029,89.9003 153.696,91.2337 160.5,92.5C 160.5,93.5 160.5,94.5 160.5,95.5C 160.567,96.9587 160.234,98.2921 159.5,99.5C 159.167,99.5 158.833,99.5 158.5,99.5C 151.687,98.5088 144.687,98.1755 137.5,98.5C 137.5,97.8333 137.5,97.1667 137.5,96.5C 138.129,93.6027 139.129,90.936 140.5,88.5 Z"/></g>
<g><path style="opacity:1" fill="#1b4a6b" d="M 189.5,83.5 C 191.806,87.0845 193.139,91.0845 193.5,95.5C 193.631,96.2389 193.464,96.9056 193,97.5C 186.115,95.5587 178.948,94.8921 171.5,95.5C 171.443,94.391 171.11,93.391 170.5,92.5C 171.404,91.791 171.737,90.791 171.5,89.5C 177.868,89.8297 184.202,89.4963 190.5,88.5C 190.137,87.8165 189.804,87.1499 189.5,86.5C 189.5,85.5 189.5,84.5 189.5,83.5 Z"/></g>
<g><path style="opacity:1" fill="#0f4663" d="M 247.5,93.5 C 247.5,95.5 247.5,97.5 247.5,99.5C 240.883,98.411 234.217,98.2443 227.5,99C 226.663,100.011 226.33,101.178 226.5,102.5C 226.167,102.5 225.833,102.5 225.5,102.5C 225.5,99.1667 225.5,95.8333 225.5,92.5C 226.289,92.2172 226.956,91.7172 227.5,91C 233.5,90.3333 239.5,90.3333 245.5,91C 246.066,91.9947 246.733,92.828 247.5,93.5 Z"/></g>
<g><path style="opacity:1" fill="#104666" d="M 279.5,86.5 C 280.222,86.9175 280.722,87.5842 281,88.5C 287.72,87.5572 294.22,87.2239 300.5,87.5C 300.833,87.5 301.167,87.5 301.5,87.5C 301.5,88.8333 301.5,90.1667 301.5,91.5C 301.875,94.3965 301.375,97.0632 300,99.5C 293.013,97.941 286.179,98.2743 279.5,100.5C 279.5,95.8333 279.5,91.1667 279.5,86.5 Z"/></g>
<g><path style="opacity:0.361" fill="#aebfca" d="M 168.5,88.5 C 169.674,89.5137 170.34,90.847 170.5,92.5C 171.11,93.391 171.443,94.391 171.5,95.5C 171.5,96.1667 171.5,96.8333 171.5,97.5C 169.928,94.7846 168.928,91.7846 168.5,88.5 Z"/></g>
<g><path style="opacity:0.229" fill="#adbec9" d="M 67.5,86.5 C 66.2477,91.4908 66.2477,96.4908 67.5,101.5C 66.6618,101.158 66.3284,100.492 66.5,99.5C 65.8902,98.609 65.5569,97.609 65.5,96.5C 65.3359,93.8127 65.5026,91.146 66,88.5C 66.2784,87.5842 66.7784,86.9175 67.5,86.5 Z"/></g>
<g><path style="opacity:1" fill="#104c58" d="M 247.5,99.5 C 247.5,100.833 247.5,102.167 247.5,103.5C 243.916,104.131 240.249,104.465 236.5,104.5C 232.761,104.486 229.428,103.82 226.5,102.5C 226.33,101.178 226.663,100.011 227.5,99C 234.217,98.2443 240.883,98.411 247.5,99.5 Z"/></g>
<g><path style="opacity:1" fill="#19515c" d="M 301.5,91.5 C 301.833,91.5 302.167,91.5 302.5,91.5C 302.5,97.1667 302.5,102.833 302.5,108.5C 302.167,108.5 301.833,108.5 301.5,108.5C 301.662,106.473 301.495,104.473 301,102.5C 300.5,103 300,103.5 299.5,104C 292.63,104.398 285.964,104.565 279.5,104.5C 279.5,103.167 279.5,101.833 279.5,100.5C 286.179,98.2743 293.013,97.941 300,99.5C 301.375,97.0632 301.875,94.3965 301.5,91.5 Z"/></g>
<g><path style="opacity:0.847" fill="#829fa3" d="M 137.5,96.5 C 137.5,97.1667 137.5,97.8333 137.5,98.5C 136.962,100.117 136.629,101.784 136.5,103.5C 135.069,104.78 134.402,106.447 134.5,108.5C 134.167,109.5 133.5,110.167 132.5,110.5C 133.646,105.562 135.313,100.895 137.5,96.5 Z"/></g>
<g><path style="opacity:0.179" fill="#cdd9dc" d="M 171.5,97.5 C 172.434,98.5676 172.768,99.901 172.5,101.5C 167.381,102.103 162.715,101.436 158.5,99.5C 158.833,99.5 159.167,99.5 159.5,99.5C 163.298,100.483 167.298,100.817 171.5,100.5C 171.5,99.5 171.5,98.5 171.5,97.5 Z"/></g>
<g><path style="opacity:1" fill="#144e59" d="M 171.5,95.5 C 178.948,94.8921 186.115,95.5587 193,97.5C 193.464,96.9056 193.631,96.2389 193.5,95.5C 195.072,98.2154 196.072,101.215 196.5,104.5C 176.326,104.83 156.326,104.497 136.5,103.5C 136.629,101.784 136.962,100.117 137.5,98.5C 144.687,98.1755 151.687,98.5088 158.5,99.5C 162.715,101.436 167.381,102.103 172.5,101.5C 172.768,99.901 172.434,98.5676 171.5,97.5C 171.5,96.8333 171.5,96.1667 171.5,95.5 Z"/></g>
<g><path style="opacity:0.2" fill="#bccbd1" d="M 43.5,84.5 C 43.5,87.8333 43.5,91.1667 43.5,94.5C 43.5,96.5 43.5,98.5 43.5,100.5C 44.3414,102.379 44.6747,104.379 44.5,106.5C 42.983,102.44 42.3164,98.1071 42.5,93.5C 42.502,90.3138 42.8353,87.3138 43.5,84.5 Z"/></g>
<g><path style="opacity:1" fill="#144f50" d="M 136.5,103.5 C 156.326,104.497 176.326,104.83 196.5,104.5C 196.5,105.5 196.5,106.5 196.5,107.5C 176.257,107.827 156.091,107.493 136,106.5C 135.722,107.416 135.222,108.082 134.5,108.5C 134.402,106.447 135.069,104.78 136.5,103.5 Z"/></g>
<g><path style="opacity:1" fill="#134f4d" d="M 225.5,102.5 C 225.833,102.5 226.167,102.5 226.5,102.5C 229.428,103.82 232.761,104.486 236.5,104.5C 240.249,104.465 243.916,104.131 247.5,103.5C 247.5,105.833 247.5,108.167 247.5,110.5C 240.167,109.833 232.833,109.167 225.5,108.5C 225.5,106.5 225.5,104.5 225.5,102.5 Z"/></g>
<g><path style="opacity:1" fill="#165051" d="M 66.5,99.5 C 66.3284,100.492 66.6618,101.158 67.5,101.5C 68.8109,104.135 70.4776,106.469 72.5,108.5C 72.3893,109.117 72.056,109.617 71.5,110C 63.1467,110.832 54.8134,110.665 46.5,109.5C 46.0576,108.261 45.3909,107.261 44.5,106.5C 44.6747,104.379 44.3414,102.379 43.5,100.5C 44.2891,100.217 44.9558,99.7172 45.5,99C 52.5361,98.2803 59.5361,98.4469 66.5,99.5 Z"/></g>
<g><path style="opacity:0.031" fill="#bdcdcc" d="M 114.5,107.5 C 117.572,107.183 120.572,107.516 123.5,108.5C 123.376,109.107 123.043,109.44 122.5,109.5C 119.833,108.833 117.167,108.167 114.5,107.5 Z"/></g>
<g><path style="opacity:1" fill="#165149" d="M 196.5,104.5 C 197.338,104.842 197.672,105.508 197.5,106.5C 197.366,108.292 197.699,109.958 198.5,111.5C 197.778,111.918 197.278,112.584 197,113.5C 175.5,112.828 154,112.161 132.5,111.5C 132.5,111.167 132.5,110.833 132.5,110.5C 133.5,110.167 134.167,109.5 134.5,108.5C 135.222,108.082 135.722,107.416 136,106.5C 156.091,107.493 176.257,107.827 196.5,107.5C 196.5,106.5 196.5,105.5 196.5,104.5 Z"/></g>
<g><path style="opacity:0.808" fill="#8aa7a2" d="M 197.5,106.5 C 199.208,109.95 200.541,113.617 201.5,117.5C 199.992,115.819 198.992,113.819 198.5,111.5C 197.699,109.958 197.366,108.292 197.5,106.5 Z"/></g>
<g><path style="opacity:0.296" fill="#c0cfd2" d="M 279.5,52.5 C 279.5,61.8333 279.5,71.1667 279.5,80.5C 279.5,82.5 279.5,84.5 279.5,86.5C 279.5,91.1667 279.5,95.8333 279.5,100.5C 279.5,101.833 279.5,103.167 279.5,104.5C 279.5,107.5 279.5,110.5 279.5,113.5C 279.5,118.5 279.5,123.5 279.5,128.5C 279.5,130.5 279.5,132.5 279.5,134.5C 286.833,134.5 294.167,134.5 301.5,134.5C 301.833,134.5 302.167,134.5 302.5,134.5C 294.684,135.492 286.684,135.826 278.5,135.5C 278.169,107.662 278.502,79.995 279.5,52.5 Z"/></g>
<g><path style="opacity:1" fill="#15504a" d="M 301.5,108.5 C 300.698,109.952 300.198,111.618 300,113.5C 293.197,112.219 286.364,112.219 279.5,113.5C 279.5,110.5 279.5,107.5 279.5,104.5C 285.964,104.565 292.63,104.398 299.5,104C 300,103.5 300.5,103 301,102.5C 301.495,104.473 301.662,106.473 301.5,108.5 Z"/></g>
<g><path style="opacity:1" fill="#1f5748" d="M 44.5,106.5 C 45.3909,107.261 46.0576,108.261 46.5,109.5C 54.8134,110.665 63.1467,110.832 71.5,110C 72.056,109.617 72.3893,109.117 72.5,108.5C 81.3066,115.475 89.6399,114.975 97.5,107C 103.188,106.446 108.855,106.613 114.5,107.5C 117.167,108.167 119.833,108.833 122.5,109.5C 122.293,112.241 121.293,114.574 119.5,116.5C 95.793,116.522 72.4596,116.522 49.5,116.5C 46.7933,113.753 45.1266,110.42 44.5,106.5 Z"/></g>
<g><path style="opacity:1" fill="#155142" d="M 225.5,108.5 C 232.833,109.167 240.167,109.833 247.5,110.5C 247.5,112.5 247.5,114.5 247.5,116.5C 240.71,116.592 233.71,116.592 226.5,116.5C 226.768,114.901 226.434,113.568 225.5,112.5C 225.5,111.167 225.5,109.833 225.5,108.5 Z"/></g>
<g><path style="opacity:1" fill="#1b573f" d="M 132.5,111.5 C 154,112.161 175.5,112.828 197,113.5C 197.278,112.584 197.778,111.918 198.5,111.5C 198.992,113.819 199.992,115.819 201.5,117.5C 202.404,118.209 202.737,119.209 202.5,120.5C 194.655,120.809 186.655,120.476 178.5,119.5C 169.983,119.174 161.65,119.507 153.5,120.5C 153.204,122.403 152.537,124.07 151.5,125.5C 151.5,124.5 151.5,123.5 151.5,122.5C 144.245,122.813 137.079,122.48 130,121.5C 129.8,123.32 128.966,124.653 127.5,125.5C 128.774,120.677 130.441,116.01 132.5,111.5 Z"/></g>
<g><path style="opacity:0.304" fill="#b9cdc4" d="M 153.5,120.5 C 161.65,119.507 169.983,119.174 178.5,119.5C 178.5,120.167 178.5,120.833 178.5,121.5C 170.252,120.531 161.918,120.198 153.5,120.5 Z"/></g>
<g><path style="opacity:1" fill="#1b583b" d="M 301.5,108.5 C 301.833,108.5 302.167,108.5 302.5,108.5C 302.5,117.167 302.5,125.833 302.5,134.5C 302.167,134.5 301.833,134.5 301.5,134.5C 302.011,130.97 301.344,127.804 299.5,125C 293.833,124.333 288.167,124.333 282.5,125C 281.186,125.985 280.186,127.152 279.5,128.5C 279.5,123.5 279.5,118.5 279.5,113.5C 286.364,112.219 293.197,112.219 300,113.5C 300.198,111.618 300.698,109.952 301.5,108.5 Z"/></g>
<g><path style="opacity:1" fill="#1d5939" d="M 119.5,116.5 C 116.167,121.833 111.833,126.167 106.5,129.5C 107.598,128.603 107.598,127.77 106.5,127C 91.8333,126.333 77.1667,126.333 62.5,127C 62.1667,127.333 61.8333,127.667 61.5,128C 64.2979,129.598 67.2979,130.765 70.5,131.5C 71.9935,132.141 72.9935,133.141 73.5,134.5C 64.7209,132.859 57.5542,128.526 52,121.5C 50.9055,119.922 50.0722,118.255 49.5,116.5C 72.4596,116.522 95.793,116.522 119.5,116.5 Z"/></g>
<g><path style="opacity:1" fill="#18572d" d="M 151.5,125.5 C 151.072,128.785 150.072,131.785 148.5,134.5C 140.833,134.5 133.167,134.5 125.5,134.5C 125.5,133.5 125.5,132.5 125.5,131.5C 127.074,129.898 127.741,127.898 127.5,125.5C 128.966,124.653 129.8,123.32 130,121.5C 137.079,122.48 144.245,122.813 151.5,122.5C 151.5,123.5 151.5,124.5 151.5,125.5 Z"/></g>
<g><path style="opacity:0.024" fill="#b4c9ba" d="M 178.5,121.5 C 180.61,125.502 181.943,129.835 182.5,134.5C 180.39,130.498 179.057,126.165 178.5,121.5 Z"/></g>
<g><path style="opacity:1" fill="#19572e" d="M 178.5,119.5 C 186.655,120.476 194.655,120.809 202.5,120.5C 204.121,124.743 205.454,129.076 206.5,133.5C 198.684,134.492 190.684,134.826 182.5,134.5C 181.943,129.835 180.61,125.502 178.5,121.5C 178.5,120.833 178.5,120.167 178.5,119.5 Z"/></g>
<g><path style="opacity:1" fill="#15552d" d="M 225.5,112.5 C 226.434,113.568 226.768,114.901 226.5,116.5C 233.71,116.592 240.71,116.592 247.5,116.5C 247.5,122.5 247.5,128.5 247.5,134.5C 240.167,134.5 232.833,134.5 225.5,134.5C 225.5,127.167 225.5,119.833 225.5,112.5 Z"/></g>
<g><path style="opacity:1" fill="#225e34" d="M 106.5,129.5 C 96.2723,136.476 85.2723,138.143 73.5,134.5C 72.9935,133.141 71.9935,132.141 70.5,131.5C 67.2979,130.765 64.2979,129.598 61.5,128C 61.8333,127.667 62.1667,127.333 62.5,127C 77.1667,126.333 91.8333,126.333 106.5,127C 107.598,127.77 107.598,128.603 106.5,129.5 Z"/></g>
<g><path style="opacity:0.769" fill="#88a993" d="M 127.5,125.5 C 127.741,127.898 127.074,129.898 125.5,131.5C 125.595,129.214 126.262,127.214 127.5,125.5 Z"/></g>
<g><path style="opacity:1" fill="#155528" d="M 301.5,134.5 C 294.167,134.5 286.833,134.5 279.5,134.5C 279.5,132.5 279.5,130.5 279.5,128.5C 280.186,127.152 281.186,125.985 282.5,125C 288.167,124.333 293.833,124.333 299.5,125C 301.344,127.804 302.011,130.97 301.5,134.5 Z"/></g>
<g><path style="opacity:0.033" fill="#ebf0eb" d="M 125.5,131.5 C 125.5,132.5 125.5,133.5 125.5,134.5C 133.167,134.5 140.833,134.5 148.5,134.5C 140.677,135.656 132.677,135.823 124.5,135C 123.713,133.687 124.046,132.52 125.5,131.5 Z"/></g>
<g><path style="opacity:0.034" fill="#f3f6f3" d="M 206.5,133.5 C 207.043,133.56 207.376,133.893 207.5,134.5C 199.009,135.821 190.676,135.821 182.5,134.5C 190.684,134.826 198.684,134.492 206.5,133.5 Z"/></g>
<g><path style="opacity:0.008" fill="#ededed" d="M 70.5,189.5 C 71.1667,188.167 71.8333,188.167 72.5,189.5C 71.8333,189.5 71.1667,189.5 70.5,189.5 Z"/></g>
</svg>
