<?xml version="1.0" encoding="UTF-8"?>
<!DOCTYPE svg PUBLIC "-//W3C//DTD SVG 1.1//EN" "http://www.w3.org/Graphics/SVG/1.1/DTD/svg11.dtd">
<svg xmlns="http://www.w3.org/2000/svg" version="1.1" width="345px" height="256px" style="shape-rendering:geometricPrecision; text-rendering:geometricPrecision; image-rendering:optimizeQuality; fill-rule:evenodd; clip-rule:evenodd" xmlns:xlink="http://www.w3.org/1999/xlink">
<g><path style="opacity:0.199" fill="#929497" d="M 175.5,162.5 C 176.404,161.791 176.737,160.791 176.5,159.5C 177.927,157.852 178.76,155.852 179,153.5C 179.667,146.5 179.667,139.5 179,132.5C 170.23,113.567 167.897,93.9 172,73.5C 173.276,69.1768 174.442,64.8435 175.5,60.5C 176.833,60.5 178.167,60.5 179.5,60.5C 179.5,58.1667 179.5,55.8333 179.5,53.5C 195.411,26.1932 219.411,12.1932 251.5,11.5C 297.369,13.8719 324.869,37.5386 334,82.5C 337.794,111.125 329.294,135.291 308.5,155C 291.633,164.566 281.8,179.066 279,198.5C 272.056,217.264 259.89,231.431 242.5,241C 224.523,245.171 207.523,242.505 191.5,233C 181.263,223.023 175.429,210.856 174,196.5C 173.2,185.102 173.7,173.769 175.5,162.5 Z"/></g>
<g><path style="opacity:1" fill="#fbfbfc" d="M 239.5,32.5 C 278.33,29.3147 303.163,46.3147 314,83.5C 316.905,104.075 311.405,121.908 297.5,137C 289.548,142.229 282.048,148.063 275,154.5C 271.661,160.536 268.328,166.536 265,172.5C 263.622,174.213 261.955,175.547 260,176.5C 260.291,179.295 260.791,182.129 261.5,185C 261.369,187.253 260.869,189.419 260,191.5C 256.838,198.664 252.838,205.33 248,211.5C 246.084,213.209 243.918,214.543 241.5,215.5C 238.666,220.679 234.332,223.346 228.5,223.5C 219.013,222.048 210.013,219.215 201.5,215C 194.134,200.389 191.967,184.889 195,168.5C 197.006,165.328 199.506,162.662 202.5,160.5C 199.167,153.273 198.5,145.773 200.5,138C 200.441,133.778 199.941,129.611 199,125.5C 188.491,105.139 187.825,84.4724 197,63.5C 206.838,47.1529 221.004,36.8196 239.5,32.5 Z"/></g>
<g><path style="opacity:1" fill="#45abf5" d="M 238.5,42.5 C 262.009,38.9408 281.176,46.2742 296,64.5C 308.662,84.4791 308.662,104.479 296,124.5C 290.076,130.428 283.576,135.594 276.5,140C 268.078,146.353 262.245,154.519 259,164.5C 256.724,167.888 253.558,169.554 249.5,169.5C 238.005,166.959 226.671,163.792 215.5,160C 211.069,157.738 209.069,154.071 209.5,149C 210.451,142.849 210.618,136.683 210,130.5C 206.858,120.076 203.525,109.742 200,99.5C 198.734,70.9393 211.567,51.9393 238.5,42.5 Z"/></g>
<g><path style="opacity:0.875" fill="#3fa9f5" d="M 17.5,53.5 C 24.5293,53.3769 31.5293,53.7103 38.5,54.5C 38.162,56.854 37.662,59.1873 37,61.5C 31.5838,60.3611 26.0838,60.1944 20.5,61C 17.0834,63.321 16.7501,65.9876 19.5,69C 25.6309,70.9283 31.4642,73.4283 37,76.5C 41.9133,89.3436 37.58,96.6769 24,98.5C 19.4938,97.7912 14.9938,97.1245 10.5,96.5C 10.5,94.5 10.5,92.5 10.5,90.5C 15.8489,90.8553 21.1822,91.022 26.5,91C 31.6696,88.7873 32.6696,85.4539 29.5,81C 24.0531,79.3049 18.7198,77.3049 13.5,75C 7.36278,66.3123 8.69611,59.1456 17.5,53.5 Z"/></g>
<g><path style="opacity:0.867" fill="#3fa9f5" d="M 41.5,53.5 C 52.1667,53.5 62.8333,53.5 73.5,53.5C 73.5,55.8333 73.5,58.1667 73.5,60.5C 69.5,60.5 65.5,60.5 61.5,60.5C 61.5,72.8333 61.5,85.1667 61.5,97.5C 58.8333,97.5 56.1667,97.5 53.5,97.5C 53.5,85.1667 53.5,72.8333 53.5,60.5C 49.5,60.5 45.5,60.5 41.5,60.5C 41.5,58.1667 41.5,55.8333 41.5,53.5 Z"/></g>
<g><path style="opacity:0.87" fill="#3fa9f5" d="M 82.5,53.5 C 87.5,53.5 92.5,53.5 97.5,53.5C 100.833,68.1667 104.167,82.8333 107.5,97.5C 104.833,97.5 102.167,97.5 99.5,97.5C 99.3797,94.5198 98.713,91.6865 97.5,89C 92.1771,88.5006 86.8437,88.334 81.5,88.5C 81.3215,91.2165 80.8215,93.8832 80,96.5C 77.6194,97.435 75.1194,97.7683 72.5,97.5C 75.5174,82.7635 78.8508,68.0968 82.5,53.5 Z M 88.5,60.5 C 89.5,60.5 90.5,60.5 91.5,60.5C 92.6207,67.4823 94.2873,74.3156 96.5,81C 92.1287,81.8275 87.7953,81.6609 83.5,80.5C 85.4822,73.9044 87.1489,67.2377 88.5,60.5 Z"/></g>
<g><path style="opacity:0.901" fill="#3fa9f5" d="M 113.5,53.5 C 121.22,53.2384 128.887,53.7384 136.5,55C 140.77,56.2704 143.27,59.1037 144,63.5C 145.754,70.9148 143.588,76.7481 137.5,81C 139.962,86.0921 142.295,91.2587 144.5,96.5C 141.572,97.4841 138.572,97.8174 135.5,97.5C 134.238,92.7168 132.572,88.0501 130.5,83.5C 127.232,82.513 123.898,82.1796 120.5,82.5C 120.5,87.5 120.5,92.5 120.5,97.5C 118.167,97.5 115.833,97.5 113.5,97.5C 113.5,82.8333 113.5,68.1667 113.5,53.5 Z M 120.5,60.5 C 125.267,60.1908 129.934,60.6908 134.5,62C 136.934,65.716 137.101,69.5493 135,73.5C 134.25,74.1258 133.416,74.6258 132.5,75C 128.514,75.4988 124.514,75.6655 120.5,75.5C 120.5,70.5 120.5,65.5 120.5,60.5 Z"/></g>
<g><path style="opacity:0.871" fill="#3fa8f4" d="M 179.5,53.5 C 179.5,55.8333 179.5,58.1667 179.5,60.5C 178.167,60.5 176.833,60.5 175.5,60.5C 172.833,60.5 170.167,60.5 167.5,60.5C 167.5,72.8333 167.5,85.1667 167.5,97.5C 164.833,97.5 162.167,97.5 159.5,97.5C 159.5,85.1667 159.5,72.8333 159.5,60.5C 155.5,60.5 151.5,60.5 147.5,60.5C 147.5,58.1667 147.5,55.8333 147.5,53.5C 158.167,53.5 168.833,53.5 179.5,53.5 Z"/></g>
<g><path style="opacity:1" fill="#fefefe" d="M 243.5,53.5 C 266.618,51.1333 282.785,60.4667 292,81.5C 295.125,94.186 293.459,106.186 287,117.5C 278.667,124.167 270.333,130.833 262,137.5C 256.815,143.032 252.815,149.366 250,156.5C 249.275,157.059 248.442,157.392 247.5,157.5C 238.749,155.523 230.249,152.856 222,149.5C 223.597,133.558 220.597,118.558 213,104.5C 207.824,78.1687 217.991,61.1687 243.5,53.5 Z"/></g>
<g><path style="opacity:0.957" fill="#3fa9f5" d="M 10.5,108.5 C 17.5,108.5 24.5,108.5 31.5,108.5C 31.3334,132.169 31.5,155.836 32,179.5C 34.2412,187.725 39.7412,191.725 48.5,191.5C 57.2078,191.743 62.7078,187.743 65,179.5C 65.5,155.836 65.6666,132.169 65.5,108.5C 72.5,108.5 79.5,108.5 86.5,108.5C 86.6666,133.169 86.5,157.836 86,182.5C 83.9672,197.533 75.4672,206.367 60.5,209C 52.5,209.667 44.5,209.667 36.5,209C 21.987,206.487 13.487,197.987 11,183.5C 10.5,158.502 10.3334,133.502 10.5,108.5 Z"/></g>
<g><path style="opacity:0.959" fill="#3fa9f5" d="M 176.5,159.5 C 175.596,160.209 175.263,161.209 175.5,162.5C 172.024,168.141 167.357,172.641 161.5,176C 157.943,177.408 154.276,178.408 150.5,179C 142.841,179.5 135.174,179.666 127.5,179.5C 127.5,189.167 127.5,198.833 127.5,208.5C 120.5,208.5 113.5,208.5 106.5,208.5C 106.5,175.167 106.5,141.833 106.5,108.5C 121.17,108.333 135.837,108.5 150.5,109C 170.099,111.979 179.432,123.479 178.5,143.5C 178.48,148.928 177.813,154.261 176.5,159.5 Z M 127.5,126.5 C 133.842,126.334 140.175,126.5 146.5,127C 154.421,129.516 158.087,135.016 157.5,143.5C 157.579,150.478 154.912,155.978 149.5,160C 142.254,161.391 134.921,161.891 127.5,161.5C 127.5,149.833 127.5,138.167 127.5,126.5 Z"/></g>
<g><path style="opacity:1" fill="#434344" d="M 246.5,189.5 C 234.023,185.544 221.356,181.877 208.5,178.5C 204.024,178.178 202.524,175.844 204,171.5C 204.804,170.196 205.971,169.529 207.5,169.5C 221.111,173.486 234.778,177.32 248.5,181C 252.77,182.635 253.437,185.135 250.5,188.5C 249.264,189.246 247.93,189.579 246.5,189.5 Z"/></g>
<g><path style="opacity:1" fill="#cdcdcd" d="M 208.5,178.5 C 221.356,181.877 234.023,185.544 246.5,189.5C 245.833,189.5 245.5,189.833 245.5,190.5C 232.947,187.282 220.613,183.615 208.5,179.5C 208.5,179.167 208.5,178.833 208.5,178.5 Z"/></g>
<g><path style="opacity:1" fill="#434344" d="M 208.5,179.5 C 220.613,183.615 232.947,187.282 245.5,190.5C 246.993,191.312 247.66,192.645 247.5,194.5C 247.167,195.5 246.833,196.5 246.5,197.5C 243.549,198.357 240.549,198.357 237.5,197.5C 227.799,193.903 217.799,190.903 207.5,188.5C 204.415,188.582 202.748,187.082 202.5,184C 202.901,180.438 204.901,178.938 208.5,179.5 Z"/></g>
<g><path style="opacity:1" fill="#444445" d="M 205.5,190.5 C 216.244,192.853 226.911,195.519 237.5,198.5C 241.392,199.742 242.392,202.242 240.5,206C 228.649,204.455 216.982,201.789 205.5,198C 202.86,195.379 202.86,192.879 205.5,190.5 Z"/></g>
<g><path style="opacity:1" fill="#d1d1d2" d="M 207.5,188.5 C 217.799,190.903 227.799,193.903 237.5,197.5C 237.5,197.833 237.5,198.167 237.5,198.5C 226.911,195.519 216.244,192.853 205.5,190.5C 206.167,189.833 206.833,189.167 207.5,188.5 Z"/></g>
<g><path style="opacity:1" fill="#464647" d="M 208.5,201.5 C 215.977,202.703 223.31,204.536 230.5,207C 232.363,208.418 232.863,210.251 232,212.5C 231.044,213.894 229.711,214.561 228,214.5C 221.444,212.87 214.944,211.037 208.5,209C 207.221,206.502 207.221,204.002 208.5,201.5 Z"/></g>
</svg>
