<?xml version="1.0" encoding="UTF-8"?>
<!DOCTYPE svg PUBLIC "-//W3C//DTD SVG 1.1//EN" "http://www.w3.org/Graphics/SVG/1.1/DTD/svg11.dtd">
<svg xmlns="http://www.w3.org/2000/svg" version="1.1" width="1536px" height="1293px" style="shape-rendering:geometricPrecision; text-rendering:geometricPrecision; image-rendering:optimizeQuality; fill-rule:evenodd; clip-rule:evenodd" xmlns:xlink="http://www.w3.org/1999/xlink">
<g><path style="opacity:0.994" fill="#234da7" d="M 471.5,-0.5 C 637.833,-0.5 804.167,-0.5 970.5,-0.5C 1030.06,4.62641 1083.06,25.7931 1129.5,63C 1185.96,112.922 1216.79,175.755 1222,251.5C 1223.04,272.561 1222.38,293.561 1220,314.5C 1209.31,373.947 1197.97,433.28 1186,492.5C 1163.93,576.866 1120.77,648.366 1056.5,707C 991.836,765.372 916.17,801.372 829.5,815C 822.516,815.832 815.516,816.499 808.5,817C 643.167,817.5 477.834,817.667 312.5,817.5C 320.371,775.479 328.371,733.479 336.5,691.5C 581.167,691.667 825.834,691.5 1070.5,691C 1037.02,658.524 1003.69,625.524 970.5,592C 765.834,591.5 561.167,591.333 356.5,591.5C 361.833,562.833 367.167,534.167 372.5,505.5C 542.5,505.667 712.5,505.5 882.5,505C 859.5,482 836.5,459 813.5,436C 671.167,435.5 528.834,435.333 386.5,435.5C 390.235,415.587 394.235,395.753 398.5,376C 516.5,375.667 634.5,375.333 752.5,375C 736.274,359.109 719.94,343.109 703.5,327C 605.167,326.5 506.834,326.333 408.5,326.5C 410.411,311.368 413.078,296.368 416.5,281.5C 496.834,281.667 577.167,281.5 657.5,281C 645.778,268.943 633.778,257.276 621.5,246C 555.501,245.5 489.501,245.333 423.5,245.5C 425.608,234.52 427.608,223.52 429.5,212.5C 482.168,212.667 534.834,212.5 587.5,212C 579.167,203.667 570.833,195.333 562.5,187C 520.168,186.5 477.835,186.333 435.5,186.5C 436.724,178.154 438.058,169.82 439.5,161.5C 471.835,161.667 504.168,161.5 536.5,161C 530.5,155 524.5,149 518.5,143C 493.502,142.5 468.502,142.333 443.5,142.5C 444.518,136.241 445.851,130.075 447.5,124C 464.5,123.667 481.5,123.333 498.5,123C 494.167,118.667 489.833,114.333 485.5,110C 473.838,109.5 462.171,109.333 450.5,109.5C 456.871,72.6898 463.871,36.0231 471.5,-0.5 Z"/></g>
<g><path style="opacity:0.972" fill="#1b1b20" d="M 297.5,900.5 C 314.503,900.333 331.503,900.5 348.5,901C 329.712,1004.54 309.879,1108.04 289,1211.5C 274.241,1212.66 259.408,1212.82 244.5,1212C 244.043,1211.59 243.709,1211.09 243.5,1210.5C 246.008,1198.49 248.175,1186.49 250,1174.5C 228.886,1207.14 199.053,1220.97 160.5,1216C 141.951,1211.65 128.784,1200.82 121,1183.5C 107.867,1136.29 113.867,1091.63 139,1049.5C 163.618,1012.63 198.284,994.294 243,994.5C 250.51,994.847 258.01,995.347 265.5,996C 269.488,996.282 273.321,997.115 277,998.5C 283.73,965.776 290.564,933.109 297.5,900.5 Z M 233.5,1037.5 C 245.872,1037.01 257.538,1039.51 268.5,1045C 264.561,1066.36 259.728,1087.53 254,1108.5C 246.443,1129.79 234.277,1147.95 217.5,1163C 210.586,1168.92 202.586,1172.42 193.5,1173.5C 186.043,1172.86 180.21,1169.53 176,1163.5C 169.833,1145.51 168.833,1127.17 173,1108.5C 175.974,1084.86 186.141,1065.03 203.5,1049C 212.621,1042.6 222.621,1038.76 233.5,1037.5 Z"/></g>
<g><path style="opacity:0.972" fill="#1b1b20" d="M 563.5,945.5 C 581.167,945.5 598.833,945.5 616.5,945.5C 613.541,963.093 610.207,980.593 606.5,998C 621.83,998.5 637.163,998.667 652.5,998.5C 649.992,1012.2 647.325,1025.87 644.5,1039.5C 629.167,1039.5 613.833,1039.5 598.5,1039.5C 591.512,1075.12 584.678,1110.79 578,1146.5C 577.333,1152.17 577.333,1157.83 578,1163.5C 579.549,1168.04 582.716,1170.87 587.5,1172C 597.463,1173.21 607.463,1173.71 617.5,1173.5C 616.456,1182.89 614.956,1192.22 613,1201.5C 612.516,1205.34 611.349,1208.84 609.5,1212C 588.211,1217.37 566.878,1217.71 545.5,1213C 531.726,1207.89 523.892,1198.06 522,1183.5C 521.333,1176.17 521.333,1168.83 522,1161.5C 529.9,1120.84 537.733,1080.17 545.5,1039.5C 535.478,1039.83 525.478,1039.5 515.5,1038.5C 518.481,1025.28 520.814,1011.95 522.5,998.5C 532.833,998.5 543.167,998.5 553.5,998.5C 556.834,980.83 560.167,963.164 563.5,945.5 Z"/></g>
<g><path style="opacity:0.97" fill="#1b1b20" d="M 428.5,992.5 C 445.925,991.509 462.925,993.675 479.5,999C 500.959,1008.24 511.959,1024.57 512.5,1048C 512.039,1071.94 501.373,1089.6 480.5,1101C 461.819,1110.17 442.152,1116.17 421.5,1119C 404.232,1121.34 386.899,1122.84 369.5,1123.5C 367.071,1137 368.571,1150 374,1162.5C 381.731,1171.42 391.564,1175.92 403.5,1176C 429.082,1176.66 454.082,1173.16 478.5,1165.5C 478.823,1179.08 478.49,1192.58 477.5,1206C 443.889,1216.55 409.556,1219.88 374.5,1216C 332.811,1208.79 313.144,1183.96 315.5,1141.5C 314.844,1101.07 326.344,1064.73 350,1032.5C 370.871,1008.65 397.038,995.315 428.5,992.5 Z M 428.5,1031.5 C 436.944,1030.76 444.944,1032.26 452.5,1036C 461.9,1045.31 462.9,1055.47 455.5,1066.5C 447.095,1074.54 437.095,1079.7 425.5,1082C 409.636,1084.94 393.636,1086.44 377.5,1086.5C 382.038,1066.81 392.371,1050.98 408.5,1039C 414.885,1035.38 421.552,1032.88 428.5,1031.5 Z"/></g>
<g><path style="opacity:0.967" fill="#1b1b20" d="M 760.5,992.5 C 768.875,992.316 777.208,992.816 785.5,994C 787.631,994.543 789.631,995.376 791.5,996.5C 786.047,1012.41 780.88,1028.41 776,1044.5C 775.481,1045.52 774.647,1046.18 773.5,1046.5C 762.102,1043.1 751.102,1043.93 740.5,1049C 718.211,1065.65 703.378,1087.48 696,1114.5C 689.774,1146.86 683.441,1179.19 677,1211.5C 659.577,1212.49 642.077,1212.83 624.5,1212.5C 637.546,1141.77 651.046,1071.1 665,1000.5C 679.924,998.526 695.091,997.859 710.5,998.5C 708.428,1011.17 706.595,1023.84 705,1036.5C 713.114,1025.39 722.28,1015.22 732.5,1006C 741.004,999.58 750.337,995.08 760.5,992.5 Z"/></g>
<g><path style="opacity:0.969" fill="#1b1b20" d="M 1095.5,992.5 C 1110.51,991.333 1124.84,993.833 1138.5,1000C 1157.35,1013.11 1165.68,1031.27 1163.5,1054.5C 1163.49,1062.2 1162.99,1069.87 1162,1077.5C 1153.12,1122.12 1144.45,1166.79 1136,1211.5C 1118.57,1212.66 1101.07,1212.82 1083.5,1212C 1082.98,1211.44 1082.64,1210.77 1082.5,1210C 1092.85,1161.74 1101.85,1113.24 1109.5,1064.5C 1109.94,1042.11 1099.27,1033.61 1077.5,1039C 1062.42,1046.12 1050.26,1056.62 1041,1070.5C 1031.31,1084.88 1024.31,1100.55 1020,1117.5C 1013.62,1149.14 1007.45,1180.81 1001.5,1212.5C 983.833,1212.5 966.167,1212.5 948.5,1212.5C 961.951,1141.13 975.618,1069.79 989.5,998.5C 1004.83,998.5 1020.17,998.5 1035.5,998.5C 1033.47,1010.94 1031.3,1023.27 1029,1035.5C 1045.04,1011.73 1067.21,997.393 1095.5,992.5 Z"/></g>
<g><path style="opacity:0.972" fill="#1b1b20" d="M 876.5,994.5 C 908.572,993.901 939.905,998.401 970.5,1008C 971.081,1008.89 971.415,1009.89 971.5,1011C 958.412,1077.85 945.246,1144.68 932,1211.5C 917.245,1212.49 902.412,1212.82 887.5,1212.5C 889.387,1199.79 891.22,1187.12 893,1174.5C 871.895,1207.14 842.061,1220.97 803.5,1216C 782.709,1211.21 768.876,1198.71 762,1178.5C 750.697,1129.98 758.697,1084.98 786,1043.5C 808.862,1013.65 839.029,997.319 876.5,994.5 Z M 876.5,1037.5 C 887.507,1037.41 898.174,1039.24 908.5,1043C 909.91,1043.37 910.91,1044.2 911.5,1045.5C 907.763,1064.58 903.597,1083.58 899,1102.5C 891.336,1126 878.502,1146.17 860.5,1163C 853.439,1168.52 845.439,1172.02 836.5,1173.5C 823.474,1171.97 816.307,1164.64 815,1151.5C 810.884,1119.98 816.884,1090.65 833,1063.5C 843.861,1048.5 858.361,1039.83 876.5,1037.5 Z"/></g>
<g><path style="opacity:0.946" fill="#1b1b20" d="M 1306.5,997.5 C 1318.87,997.185 1331.21,997.685 1343.5,999C 1350.86,999.921 1357.86,1001.92 1364.5,1005C 1361.7,1012.41 1358.7,1019.75 1355.5,1027C 1345.09,1024.07 1334.42,1022.07 1323.5,1021C 1305.15,1018.78 1289.98,1024.61 1278,1038.5C 1267.26,1060.29 1272.43,1077.13 1293.5,1089C 1305.66,1095.25 1317.33,1102.25 1328.5,1110C 1344.33,1123.19 1350.5,1140.02 1347,1160.5C 1341.44,1183.72 1327.61,1199.89 1305.5,1209C 1274.34,1218.96 1243.18,1218.79 1212,1208.5C 1211.5,1208.17 1211,1207.83 1210.5,1207.5C 1213.34,1198.78 1216.84,1190.45 1221,1182.5C 1240.74,1190.56 1261.24,1193.39 1282.5,1191C 1311.9,1184.64 1322.4,1167.14 1314,1138.5C 1311.54,1135.04 1308.7,1131.87 1305.5,1129C 1292.67,1120.75 1279.67,1112.75 1266.5,1105C 1244.08,1087.17 1237.91,1064.67 1248,1037.5C 1257.8,1018.05 1273.3,1005.55 1294.5,1000C 1298.67,999.295 1302.67,998.461 1306.5,997.5 Z"/></g>
<g><path style="opacity:0.951" fill="#1b1b20" d="M 1535.5,1051.5 C 1535.5,1063.83 1535.5,1076.17 1535.5,1088.5C 1531.62,1121.59 1519.45,1151.26 1499,1177.5C 1471.14,1206.99 1436.97,1218.82 1396.5,1213C 1389.29,1212.09 1382.13,1210.93 1375,1209.5C 1374.17,1209.83 1373.33,1210.17 1372.5,1210.5C 1366.62,1237.79 1360.95,1265.12 1355.5,1292.5C 1346.5,1292.5 1337.5,1292.5 1328.5,1292.5C 1346.88,1195.76 1365.72,1099.09 1385,1002.5C 1393.44,1001.18 1401.94,1001.18 1410.5,1002.5C 1407.21,1018.14 1404.37,1033.8 1402,1049.5C 1412.44,1033.06 1425.61,1019.23 1441.5,1008C 1459.71,997.322 1479.05,994.655 1499.5,1000C 1513.58,1005.08 1523.41,1014.58 1529,1028.5C 1531.97,1036.07 1534.14,1043.74 1535.5,1051.5 Z M 1470.5,1020.5 C 1482.76,1019.74 1492.26,1024.41 1499,1034.5C 1504.61,1046.7 1507.11,1059.53 1506.5,1073C 1506.59,1104.82 1498.09,1133.99 1481,1160.5C 1461.94,1185.44 1436.77,1195.61 1405.5,1191C 1395.77,1189.57 1386.44,1186.9 1377.5,1183C 1381.85,1159.77 1386.68,1136.6 1392,1113.5C 1400.98,1083.89 1416.48,1058.39 1438.5,1037C 1447.99,1028.96 1458.66,1023.46 1470.5,1020.5 Z"/></g>
<g><path style="opacity:0.95" fill="#1b1b20" d="M 1172.5,1162.5 C 1187.02,1160.34 1196.85,1166 1202,1179.5C 1205.18,1196.99 1198.35,1208.16 1181.5,1213C 1162.02,1213.52 1152.52,1204.02 1153,1184.5C 1155.52,1173.49 1162.02,1166.16 1172.5,1162.5 Z"/></g>
</svg>
