<?xml version="1.0" encoding="UTF-8" standalone="no"?>
<svg
   viewBox="0 0 885.25249 212.12933"
   height="212.12933"
   width="885.2525"
   xml:space="preserve"
   id="svg2"
   version="1.1"
   sodipodi:docname="logo_canaldireto_spperto-páginas.svg"
   xmlns:inkscape="http://www.inkscape.org/namespaces/inkscape"
   xmlns:sodipodi="http://sodipodi.sourceforge.net/DTD/sodipodi-0.dtd"
   xmlns="http://www.w3.org/2000/svg"
   xmlns:svg="http://www.w3.org/2000/svg"
   xmlns:rdf="http://www.w3.org/1999/02/22-rdf-syntax-ns#"
   xmlns:cc="http://creativecommons.org/ns#"
   xmlns:dc="http://purl.org/dc/elements/1.1/"><sodipodi:namedview
     id="namedview1"
     pagecolor="#ffffff"
     bordercolor="#000000"
     borderopacity="0.25"
     inkscape:showpageshadow="2"
     inkscape:pageopacity="0.0"
     inkscape:pagecheckerboard="0"
     inkscape:deskcolor="#d1d1d1" /><metadata
     id="metadata8"><rdf:RDF><cc:Work
         rdf:about=""><dc:format>image/svg+xml</dc:format><dc:type
           rdf:resource="http://purl.org/dc/dcmitype/StillImage" /></cc:Work></rdf:RDF></metadata><defs
     id="defs6"><clipPath
       id="clipPath26"
       clipPathUnits="userSpaceOnUse"><path
         id="path24"
         d="M 0,595.276 H 841.89 V 0 H 0 Z" /></clipPath><linearGradient
       id="linearGradient96"
       spreadMethod="pad"
       gradientTransform="matrix(0,50.8416,50.8416,0,347.962,261.557)"
       gradientUnits="userSpaceOnUse"
       y2="0"
       x2="1"
       y1="0"
       x1="0"><stop
         id="stop92"
         offset="0"
         style="stop-opacity:1;stop-color:#ec1e27" /><stop
         id="stop94"
         offset="1"
         style="stop-opacity:1;stop-color:#a61e22" /></linearGradient><linearGradient
       id="linearGradient116"
       spreadMethod="pad"
       gradientTransform="matrix(0,46.0838,46.0838,0,410.397,248.21)"
       gradientUnits="userSpaceOnUse"
       y2="0"
       x2="1"
       y1="0"
       x1="0"><stop
         id="stop112"
         offset="0"
         style="stop-opacity:1;stop-color:#ec1e27" /><stop
         id="stop114"
         offset="1"
         style="stop-opacity:1;stop-color:#a61e22" /></linearGradient><linearGradient
       id="linearGradient136"
       spreadMethod="pad"
       gradientTransform="matrix(0,45.1835,45.1835,0,470.721,237.462)"
       gradientUnits="userSpaceOnUse"
       y2="0"
       x2="1"
       y1="0"
       x1="0"><stop
         id="stop132"
         offset="0"
         style="stop-opacity:1;stop-color:#ec1e27" /><stop
         id="stop134"
         offset="1"
         style="stop-opacity:1;stop-color:#a61e22" /></linearGradient><linearGradient
       id="linearGradient156"
       spreadMethod="pad"
       gradientTransform="matrix(0,48.0345,48.0345,0,538.972,226.872)"
       gradientUnits="userSpaceOnUse"
       y2="0"
       x2="1"
       y1="0"
       x1="0"><stop
         id="stop152"
         offset="0"
         style="stop-opacity:1;stop-color:#ec1e27" /><stop
         id="stop154"
         offset="1"
         style="stop-opacity:1;stop-color:#a61e22" /></linearGradient><linearGradient
       id="linearGradient176"
       spreadMethod="pad"
       gradientTransform="matrix(0,50.9132,50.9132,0,597.984,209.783)"
       gradientUnits="userSpaceOnUse"
       y2="0"
       x2="1"
       y1="0"
       x1="0"><stop
         id="stop172"
         offset="0"
         style="stop-opacity:1;stop-color:#ec1e27" /><stop
         id="stop174"
         offset="1"
         style="stop-opacity:1;stop-color:#a61e22" /></linearGradient><linearGradient
       id="linearGradient196"
       spreadMethod="pad"
       gradientTransform="matrix(0,67.7127,67.7127,0,121.944,232.332)"
       gradientUnits="userSpaceOnUse"
       y2="0"
       x2="1"
       y1="0"
       x1="0"><stop
         id="stop192"
         offset="0"
         style="stop-opacity:1;stop-color:#ec1e27" /><stop
         id="stop194"
         offset="1"
         style="stop-opacity:1;stop-color:#a61e22" /></linearGradient><linearGradient
       id="linearGradient216"
       spreadMethod="pad"
       gradientTransform="matrix(0,65.4679,65.4679,0,181.753,233.454)"
       gradientUnits="userSpaceOnUse"
       y2="0"
       x2="1"
       y1="0"
       x1="0"><stop
         id="stop212"
         offset="0"
         style="stop-opacity:1;stop-color:#ec1e27" /><stop
         id="stop214"
         offset="1"
         style="stop-opacity:1;stop-color:#a61e22" /></linearGradient></defs><g
     transform="matrix(1.3333333,0,0,-1.3333333,-118.63413,502.91465)"
     id="g10"><g
       transform="translate(752.915,297.452)"
       id="g12"><path
         id="path14"
         style="fill:#ed1c24;fill-opacity:1;fill-rule:nonzero;stroke:none"
         d="M 0,0 -125.845,-79.363 -52.472,33.091 Z" /></g><g
       transform="translate(626.482,377.186)"
       id="g16"><path
         id="path18"
         style="fill:#bf1b2c;fill-opacity:1;fill-rule:nonzero;stroke:none"
         d="M 0,0 43.602,-66.42 73.96,-46.643 Z" /></g><g
       id="g20"><g
         clip-path="url(#clipPath26)"
         id="g22"><g
           transform="translate(678.824,297.452)"
           id="g28"><path
             id="path30"
             style="fill:#921320;fill-opacity:1;fill-rule:nonzero;stroke:none"
             d="m 0,0 21.619,33.091 c 0,0 -16.774,-10.985 -30.326,-19.826 z" /></g><g
           transform="translate(253.828,255.475)"
           id="g32"><path
             id="path34"
             style="fill:#fff;fill-opacity:1;fill-rule:nonzero;stroke:none"
             d="m 0,0 h -22.518 l 5.757,21.494 H 5.757 l 5.886,22.262 H 33.905 L 28.019,21.494 H 50.537 L 44.78,0 H 22.262 L 16.249,-22.263 H -6.014 Z" /></g><g
           transform="translate(88.9756,332.677)"
           id="g36"><path
             id="path38"
             style="fill:#fff;fill-opacity:1;fill-rule:nonzero;stroke:none"
             d="m 0,0 c 0,7.645 3.173,15.432 9.086,21.346 5.337,5.337 13.125,9.014 22.5,9.014 10.241,0 17.38,-4.976 20.409,-12.764 L 39.879,11.105 c -2.019,4.183 -5.192,6.563 -10.096,6.563 -3.894,0 -7.428,-1.658 -10.096,-4.327 -3.101,-3.173 -5.048,-7.644 -5.048,-12.404 0,-6.418 4.255,-10.384 10.096,-10.384 4.399,0 7.573,1.875 10.818,5.12 L 45,-12.692 C 40.096,-18.246 33.461,-22.139 23.87,-22.139 9.952,-22.139 0,-13.558 0,0" /></g><g
           transform="translate(170.25,331.523)"
           id="g40"><path
             id="path42"
             style="fill:#fff;fill-opacity:1;fill-rule:nonzero;stroke:none"
             d="M 0,0 -1.875,14.423 -11.322,0 Z M -4.543,30.865 H 9.158 l 7.861,-50.841 H 2.308 L 1.082,-10.89 H -18.39 l -6.057,-9.086 h -15.217 z" /></g><g
           transform="translate(202.775,362.028)"
           id="g44"><path
             id="path46"
             style="fill:#fff;fill-opacity:1;fill-rule:nonzero;stroke:none"
             d="M 0,0 H 12.981 L 26.105,-28.053 33.678,0 H 47.523 L 33.966,-50.48 H 21.707 L 8.077,-21.346 0.289,-50.48 H -13.63 Z" /></g><g
           transform="translate(278.857,331.523)"
           id="g48"><path
             id="path50"
             style="fill:#fff;fill-opacity:1;fill-rule:nonzero;stroke:none"
             d="M 0,0 -1.875,14.423 -11.322,0 Z M -4.543,30.865 H 9.158 l 7.861,-50.841 H 2.308 L 1.082,-10.89 H -18.39 l -6.057,-9.086 h -15.216 z" /></g><g
           transform="translate(311.382,362.028)"
           id="g52"><path
             id="path54"
             style="fill:#fff;fill-opacity:1;fill-rule:nonzero;stroke:none"
             d="M 0,0 H 13.99 L 3.75,-38.221 H 27.836 L 24.519,-50.48 H -13.63 Z" /></g><g
           transform="translate(387.104,349.696)"
           id="g56"><path
             id="path58"
             style="fill:#fff;fill-opacity:1;fill-rule:nonzero;stroke:none"
             d="m 0,0 h -4.11 l -6.923,-25.745 h 4.615 c 5.914,0 11.034,1.731 14.423,5.12 2.74,2.74 4.399,6.562 4.399,10.601 0,2.884 -0.865,5.192 -2.452,6.851 C 7.933,-1.226 4.976,0 0,0 M -14.783,12.332 H 1.515 c 9.807,0 15.937,-2.668 19.759,-6.491 3.75,-3.75 5.481,-8.654 5.481,-14.783 0,-7.573 -2.885,-14.495 -8.294,-19.904 -6.057,-6.058 -14.783,-9.303 -26.466,-9.303 h -20.408 z" /></g><g
           transform="translate(425.759,362.028)"
           id="g60"><path
             id="path62"
             style="fill:#fff;fill-opacity:1;fill-rule:nonzero;stroke:none"
             d="M 0,0 H 13.991 L 0.433,-50.48 h -13.991 z" /></g><g
           transform="translate(462.538,337.797)"
           id="g64"><path
             id="path66"
             style="fill:#fff;fill-opacity:1;fill-rule:nonzero;stroke:none"
             d="m 0,0 c 3.822,0 6.923,1.009 8.654,2.74 1.153,1.155 1.803,2.596 1.803,4.327 0,1.37 -0.433,2.452 -1.371,3.318 -1.154,1.153 -3.172,1.803 -6.13,1.803 H -4.687 L -8.005,0 Z M -4.687,-10.962 H -5.842 -10.89 L -15,-26.25 h -14.062 l 13.629,50.48 H 3.606 c 8.365,0 13.918,-1.802 17.307,-5.192 2.669,-2.668 3.895,-6.346 3.895,-10.384 0,-4.759 -1.515,-9.015 -4.76,-12.188 C 17.884,-5.697 14.711,-7.789 9.591,-9.231 L 17.452,-26.25 H 2.019 Z" /></g><g
           transform="translate(497.226,362.028)"
           id="g68"><path
             id="path70"
             style="fill:#fff;fill-opacity:1;fill-rule:nonzero;stroke:none"
             d="M 0,0 H 40.384 L 37.139,-11.827 H 10.601 L 8.509,-19.543 H 32.596 L 29.639,-30.504 H 5.553 L 3.389,-38.582 H 30.36 L 27.187,-50.48 H -13.63 Z" /></g><g
           transform="translate(552.106,349.768)"
           id="g72"><path
             id="path74"
             style="fill:#fff;fill-opacity:1;fill-rule:nonzero;stroke:none"
             d="m 0,0 h -15.072 l 3.245,12.26 H 32.379 L 29.134,0 H 13.99 L 3.75,-38.221 h -13.99 z" /></g><g
           transform="translate(613.982,327.268)"
           id="g76"><path
             id="path78"
             style="fill:#fff;fill-opacity:1;fill-rule:nonzero;stroke:none"
             d="m 0,0 c 3.101,3.102 4.976,7.717 4.976,11.971 0,6.419 -3.894,11.178 -11.105,11.178 -3.823,0 -7.14,-1.587 -9.592,-4.038 -3.101,-3.173 -4.976,-7.788 -4.976,-12.043 0,-6.419 3.894,-11.178 11.106,-11.178 3.821,0 7.139,1.658 9.591,4.11 m 19.182,13.125 c 0,-7.86 -3.245,-15.504 -8.798,-21.057 -5.336,-5.265 -12.692,-8.726 -21.201,-8.726 -14.423,0 -24.087,9.807 -24.087,22.644 0,7.86 3.245,15.433 8.799,20.986 5.336,5.336 12.692,8.725 21.201,8.725 14.424,0 24.086,-9.808 24.086,-22.572" /></g></g></g><g
       id="g80"><g
         id="g82"><g
           id="g88"><g
             id="g90"><path
               id="path98"
               style="fill:url(#linearGradient96);stroke:none"
               d="m 332.295,299.128 -17.731,-65.67 h 18.295 l 5.065,18.857 h 10.882 c 10.883,0 19.889,3.283 25.518,8.912 v 0 c 4.597,4.597 7.036,10.507 7.036,17.637 v 0 c 0,5.441 -1.688,9.944 -5.16,13.322 v 0 c -4.784,4.878 -11.727,6.942 -22.515,6.942 v 0 z m 13.978,-15.292 h 6.755 c 3.377,0 6.097,-0.656 7.88,-2.438 v 0 c 1.22,-1.22 1.782,-2.909 1.782,-4.692 v 0 c 0,-2.532 -0.843,-4.69 -2.532,-6.474 v 0 c -2.533,-2.438 -6.473,-3.751 -11.539,-3.751 v 0 h -6.943 z" /></g></g></g></g><g
       id="g100"><g
         id="g102"><g
           id="g108"><g
             id="g110"><path
               id="path118"
               style="fill:url(#linearGradient116);stroke:none"
               d="m 392.995,299.128 -17.731,-65.67 h 53.099 l 4.128,15.479 h -35.087 l 2.814,10.508 h 31.334 l 3.846,14.259 h -31.334 l 2.722,10.038 h 34.523 l 4.222,15.386 z" /></g></g></g></g><g
       id="g120"><g
         id="g122"><g
           id="g128"><g
             id="g130"><path
               id="path138"
               style="fill:url(#linearGradient136);stroke:none"
               d="m 453.413,299.128 -17.732,-65.67 h 18.294 l 5.348,19.889 h 6.566 1.502 l 8.724,-19.889 h 20.077 l -10.226,22.14 c 6.661,1.877 10.789,4.597 13.603,7.411 v 0 c 4.222,4.128 6.191,9.663 6.191,15.855 v 0 c 0,5.253 -1.594,10.038 -5.066,13.509 v 0 c -4.409,4.409 -11.632,6.755 -22.515,6.755 v 0 z m 13.978,-15.667 h 9.945 c 3.845,0 6.473,-0.845 7.974,-2.346 v 0 c 1.219,-1.125 1.782,-2.533 1.782,-4.315 v 0 c 0,-2.252 -0.845,-4.128 -2.346,-5.629 v 0 c -2.251,-2.251 -6.285,-3.564 -11.257,-3.564 v 0 h -10.414 z" /></g></g></g></g><g
       id="g140"><g
         id="g142"><g
           id="g148"><g
             id="g150"><path
               id="path158"
               style="fill:url(#linearGradient156);stroke:none"
               d="m 512.329,299.128 -4.221,-15.948 h 19.607 l -13.322,-49.722 h 18.2 l 13.322,49.722 h 19.701 l 4.222,15.948 z" /></g></g></g></g><g
       id="g160"><g
         id="g162"><g
           id="g168"><g
             id="g170"><path
               id="path178"
               style="fill:url(#linearGradient176);stroke:none"
               d="m 574.249,288.995 c -7.224,-7.223 -11.446,-17.073 -11.446,-27.298 v 0 c 0,-16.7 12.572,-29.458 31.334,-29.458 v 0 c 11.071,0 20.64,4.502 27.582,11.351 v 0 c 7.224,7.224 11.445,17.167 11.445,27.394 v 0 c 0,16.605 -12.57,29.363 -31.333,29.363 v 0 c -11.07,0 -20.64,-4.408 -27.582,-11.352 m 7.036,-25.893 c 0,5.537 2.439,11.541 6.473,15.668 v 0 c 3.19,3.19 7.506,5.254 12.478,5.254 v 0 c 9.381,0 14.448,-6.192 14.448,-14.542 v 0 c 0,-5.535 -2.44,-11.538 -6.474,-15.572 v 0 c -3.189,-3.19 -7.505,-5.348 -12.478,-5.348 v 0 c -9.38,0 -14.447,6.191 -14.447,14.54" /></g></g></g></g><g
       id="g180"><g
         id="g182"><g
           id="g188"><g
             id="g190"><path
               id="path198"
               style="fill:url(#linearGradient196);stroke:none"
               d="m 106.372,292.095 c -3.741,-3.741 -5.986,-8.699 -5.986,-14.31 v 0 c 0,-9.633 6.64,-14.029 16.928,-18.05 v 0 c 9.166,-3.555 10.943,-4.77 10.943,-7.389 v 0 c 0,-2.992 -3.087,-4.863 -7.389,-4.863 v 0 c -7.202,0 -13.842,2.992 -20.201,8.886 v 0 L 88.976,244.303 c 7.107,-7.575 17.582,-11.971 30.396,-11.971 v 0 c 9.071,0 16.834,2.898 21.791,7.855 v 0 c 3.834,3.835 6.079,8.885 6.079,14.778 v 0 c 0,9.82 -6.92,14.403 -17.022,18.238 v 0 c -8.978,3.554 -10.942,4.488 -10.942,7.202 v 0 c 0,2.525 2.713,4.582 7.108,4.582 v 0 c 6.64,0 12.345,-2.806 17.303,-7.108 v 0 l 11.223,12.439 c -6.266,5.986 -15.339,9.727 -26.843,9.727 v 0 c -9.071,0 -16.741,-2.993 -21.697,-7.95" /></g></g></g></g><g
       id="g200"><g
         id="g202"><g
           id="g208"><g
             id="g210"><path
               id="path218"
               style="fill:url(#linearGradient216);stroke:none"
               d="m 166.135,298.922 -17.677,-65.467 h 18.237 l 5.051,18.798 h 10.85 c 10.848,0 19.827,3.273 25.438,8.885 v 0 c 4.582,4.582 7.014,10.475 7.014,17.583 v 0 c 0,5.423 -1.683,9.914 -5.144,13.281 v 0 c -4.769,4.863 -11.691,6.92 -22.446,6.92 v 0 z m 13.935,-15.244 h 6.733 c 3.368,0 6.08,-0.654 7.857,-2.432 v 0 c 1.216,-1.216 1.777,-2.899 1.777,-4.677 v 0 c 0,-2.523 -0.842,-4.676 -2.526,-6.453 v 0 c -2.525,-2.431 -6.453,-3.741 -11.503,-3.741 v 0 h -6.921 z" /></g></g></g></g></g></svg>
